<?xml version="1.0" encoding="utf-8"?>
<!-- Generator: Adobe Illustrator 24.1.0, SVG Export Plug-In . SVG Version: 6.00 Build 0)  -->
<svg version="1.1" id="Layer_1" xmlns:sketch="http://www.bohemiancoding.com/sketch/ns"
	 xmlns="http://www.w3.org/2000/svg" xmlns:xlink="http://www.w3.org/1999/xlink" x="0px" y="0px" viewBox="0 0 60 60"
	 style="enable-background:new 0 0 60 60;" xml:space="preserve">
<style type="text/css">
	.st0{fill-rule:evenodd;clip-rule:evenodd;fill:#EFEFFF;}
	.st1{fill-rule:evenodd;clip-rule:evenodd;}
</style>
<rect class="st0" width="60" height="60"/>
<desc></desc>
<g id="black">
	<g id="slice" transform="translate(-400.000000, -200.000000)">
	</g>
	<g id="podcast" transform="translate(15.000000, 11.000000)">
		<path id="Podcast" class="st1" d="M15,18.7c2.8,0,5-2.1,5-4.7c0-2.6-2.2-4.8-5-4.8s-5,2.2-5,4.8S12.2,18.7,15,18.7L15,18.7z
			 M15,2.3C8.1,2.3,2.5,7.5,2.5,14c0,3.2,1.3,6,3.5,8.2c0.6-0.9,1.5-1.8,2.7-2.5c-1.5-1.5-2.4-3.5-2.4-5.7c0-4.6,3.9-8.2,8.8-8.2
			s8.8,3.7,8.8,8.2c0,2.2-0.9,4.2-2.4,5.7c1.2,0.7,2,1.6,2.7,2.5c2.2-2.1,3.5-5,3.5-8.2C27.5,7.5,21.9,2.3,15,2.3L15,2.3z M15-4.8
			C3.9-4.8-5,3.6-5,14c0,6.8,3.8,12.8,9.5,16.1c-0.1-0.8-0.2-1.7-0.2-2.6c0,0,0-0.7,0.2-1.8c-3.6-2.8-5.8-7-5.8-11.8
			C-1.2,5.5,6-1.3,15-1.3S31.2,5.5,31.2,14c0,4.8-2.2,8.9-5.8,11.8c0.2,1,0.2,1.7,0.2,1.7c0,0.9-0.1,1.8-0.2,2.6
			c5.8-3.2,9.6-9.2,9.6-16C35,3.6,26.1-4.8,15-4.8L15-4.8z M15,21.1c-3.8,0-6.9,2.9-6.9,6.5s3.1,15.3,6.9,15.3s6.9-11.7,6.9-15.3
			S18.8,21.1,15,21.1L15,21.1z"/>
	</g>
</g>
</svg>
