<?xml version="1.0" encoding="utf-8"?>
<!-- Generator: Adobe Illustrator 24.1.0, SVG Export Plug-In . SVG Version: 6.00 Build 0)  -->
<svg version="1.1" id="Layer_1" xmlns:sketch="http://www.bohemiancoding.com/sketch/ns"
	 xmlns="http://www.w3.org/2000/svg" xmlns:xlink="http://www.w3.org/1999/xlink" x="0px" y="0px" viewBox="0 0 60 60"
	 style="enable-background:new 0 0 60 60;" xml:space="preserve">
<style type="text/css">
	.st0{fill-rule:evenodd;clip-rule:evenodd;fill:#FFFFFF;}
	.st1{fill-rule:evenodd;clip-rule:evenodd;}
</style>
<rect class="st0" width="60" height="60"/>
<desc></desc>
<g id="black">
	<g id="slice" transform="translate(-400.000000, -200.000000)">
	</g>
	<g id="podcast" transform="translate(15.000000, 11.000000)">
		<path id="Podcast" class="st1" d="M15,18.6c3.3,0,6-2.5,6-5.7c0-3.1-2.7-5.7-6-5.7S9,9.9,9,13C9,16.1,11.7,18.6,15,18.6L15,18.6z
			 M15-1.1C6.7-1.1,0,5.2,0,13c0,3.8,1.6,7.2,4.2,9.8c0.7-1.1,1.8-2.2,3.2-3C5.6,18,4.5,15.6,4.5,13c0-5.5,4.7-9.9,10.5-9.9
			c5.8,0,10.5,4.4,10.5,9.9c0,2.6-1.1,5-2.9,6.8c1.4,0.8,2.4,1.9,3.2,3c2.6-2.5,4.2-6,4.2-9.8C30,5.2,23.3-1.1,15-1.1L15-1.1z
			 M15-9.6C1.7-9.6-9,0.5-9,13c0,8.1,4.6,15.3,11.4,19.3c-0.1-1-0.2-2-0.2-3.1c0,0,0-0.8,0.2-2.1c-4.3-3.4-7-8.4-7-14.1
			C-4.5,2.8,4.2-5.4,15-5.4S34.5,2.8,34.5,13c0,5.7-2.7,10.7-7,14.1c0.2,1.2,0.2,2,0.2,2c0,1.1-0.1,2.2-0.2,3.1
			C34.4,28.3,39,21.2,39,13C39,0.5,28.3-9.6,15-9.6L15-9.6z M15,21.5c-4.6,0-8.3,3.5-8.3,7.8c0,4.3,3.7,18.4,8.3,18.4
			s8.3-14.1,8.3-18.4S19.6,21.5,15,21.5L15,21.5z"/>
	</g>
</g>
</svg>
