<?xml version="1.0" encoding="utf-8"?>
<!-- Generator: Adobe Illustrator 24.1.0, SVG Export Plug-In . SVG Version: 6.00 Build 0)  -->
<svg version="1.1" id="Layer_1" xmlns="http://www.w3.org/2000/svg" xmlns:xlink="http://www.w3.org/1999/xlink" x="0px" y="0px"
	 viewBox="0 0 300 300" style="enable-background:new 0 0 300 300;" xml:space="preserve">
<style type="text/css">
	.st0{fill:#FFFFFF;stroke:#000000;stroke-miterlimit:10;}
	.st1{fill:#414042;}
	.st2{fill:#414042;stroke:#414042;stroke-width:3.1;stroke-miterlimit:10;}
	.st3{fill:none;stroke:#414042;stroke-width:4.4;stroke-miterlimit:10;}
</style>
<rect class="st0" width="300" height="300"/>
<rect x="114.1" y="56.7" class="st1" width="70.8" height="8.8"/>
<rect x="116" y="58.7" class="st1" width="66.9" height="4.8"/>
<polygon class="st1" points="194.9,44.3 200.8,50.8 184.8,65.5 179,59 "/>
<polygon class="st1" points="192.2,50.7 192.2,36.7 200.8,33.3 200.8,50.8 "/>
<polygon class="st1" points="159,178.7 173.1,160.1 179.3,166.3 166.4,183.3 "/>
<polygon class="st1" points="161.7,178.3 173.4,162.8 177.2,165.7 165.4,181.2 "/>
<polygon class="st1" points="188.4,70 225,69.7 222.2,78.5 187.2,78.7 "/>
<polygon class="st1" points="189.1,76.8 189.1,71.9 222.3,71.7 220.8,76.5 "/>
<polygon class="st1" points="157.6,114.1 165.7,110.8 179.3,166.3 171.2,169.4 "/>
<polygon class="st1" points="159.7,114.3 164.3,113.1 177.2,165.8 172.6,167 "/>
<polygon class="st1" points="157.6,114.1 168.4,96 176.3,99.7 164.4,119.6 "/>
<polygon class="st1" points="159.6,114.3 169.5,97.7 173.6,100.3 163.7,116.8 "/>
<polygon class="st1" points="168.4,96 186.5,93.3 187.7,102 168.6,104.8 "/>
<polygon class="st1" points="169.6,97.8 184.8,95.5 185.5,100.3 170.3,102.6 "/>
<polygon class="st1" points="176.4,82.8 184.7,80.4 190.7,122.4 182.9,123.7 "/>
<polygon class="st1" points="178.4,83.4 183.1,82.6 189.2,120.6 184.5,121.4 "/>
<polygon class="st1" points="176.4,82.8 188.4,70 195.3,75.2 181.9,89.5 "/>
<polygon class="st1" points="178.4,83.4 189.1,71.9 192.5,75.2 181.9,86.7 "/>
<polygon class="st1" points="188.9,90.6 208.2,90.6 206.9,99.4 190.1,99.4 "/>
<polygon class="st1" points="209.1,91 215.9,69.8 225,69.7 217.6,92.5 "/>
<polygon class="st1" points="216,91.2 211.5,89.7 217.3,71.8 222.3,71.7 "/>
<polygon class="st1" points="201.1,92.6 214.1,84.4 217.6,92.5 206.7,99.4 "/>
<polygon class="st1" points="203.8,93.2 213.5,87.1 216,91.2 206.2,97.4 "/>
<polygon class="st1" points="178.9,133.2 183.3,116.9 190.7,122.4 187.6,134 "/>
<polygon class="st1" points="181.2,131.8 184.6,119.3 189.2,120.6 185.8,133.1 "/>
<polygon class="st1" points="153.1,162.4 168.9,142.9 174.7,149 159.9,167.3 "/>
<polygon class="st1" points="175.3,136.3 181.8,127.4 187.6,134 177.9,146.4 "/>
<polygon class="st1" points="155.1,168 153.1,162.4 156.9,157.8 162.7,158.8 164.7,164.5 160.9,169.1 "/>
<polygon class="st1" points="98.1,50.8 103.9,44.3 119.9,59 114.1,65.5 "/>
<polygon class="st1" points="106.7,50.8 106.6,36.8 98.1,33.3 98.1,50.8 "/>
<polygon class="st1" points="141,178.7 126.9,160.1 120.7,166.3 133.6,183.3 "/>
<polygon class="st1" points="126.5,162.9 138.2,178.4 134.4,181.3 122.7,165.8 "/>
<polygon class="st1" points="111.7,69.9 75,69.7 77.8,78.5 112.8,78.7 "/>
<polygon class="st1" points="110.9,76.7 110.9,71.9 77.7,71.7 79.2,76.5 "/>
<polygon class="st1" points="142.4,114.1 134.3,110.7 120.7,166.3 128.8,169.4 "/>
<polygon class="st1" points="135.7,113.1 140.3,114.3 127.4,167 122.8,165.8 "/>
<polygon class="st1" points="142.4,114.1 131.6,95.9 123.7,99.7 135.6,119.6 "/>
<polygon class="st1" points="130.4,97.8 140.2,114.3 136.2,116.9 126.3,100.3 "/>
<polygon class="st1" points="131.6,95.9 113.5,93.3 112.3,102 131.3,104.8 "/>
<polygon class="st1" points="115.2,95.5 130.4,97.8 129.7,102.6 114.5,100.3 "/>
<polygon class="st1" points="123.6,82.8 115.3,80.4 109.2,122.4 117.1,123.7 "/>
<polygon class="st1" points="116.9,82.7 121.6,83.5 115.4,121.5 110.8,120.7 "/>
<polygon class="st1" points="123.6,82.8 111.7,69.9 104.7,75.2 118.1,89.5 "/>
<polygon class="st1" points="110.9,71.9 121.5,83.4 118.1,86.8 107.4,75.3 "/>
<polygon class="st1" points="111.1,90.6 91.8,90.6 93.1,99.4 109.9,99.4 "/>
<polygon class="st1" points="90.9,91 84.1,69.8 75,69.7 82.3,92.5 "/>
<polygon class="st1" points="84,91.2 88.5,89.7 82.7,71.7 77.7,71.7 "/>
<polygon class="st1" points="98.9,92.6 85.8,84.4 82.3,92.5 93.3,99.4 "/>
<polygon class="st1" points="86.5,87.1 96.2,93.3 93.7,97.4 84,91.2 "/>
<polygon class="st1" points="121.1,133.2 116.7,116.9 109.2,122.4 112.4,134 "/>
<polygon class="st1" points="115.3,119.3 118.7,131.8 114.1,133.1 110.7,120.6 "/>
<polygon class="st1" points="146.9,162.4 131,142.9 125.3,149 140.1,167.3 "/>
<polygon class="st1" points="124.7,136.2 118.2,127.3 112.4,134 122.1,146.4 "/>
<polygon class="st1" points="144.9,168 146.9,162.4 143.1,157.8 137.3,158.8 135.3,164.5 139.1,169.1 "/>
<polygon class="st1" points="166.4,183.3 167.5,174.5 132.6,174.5 133.6,183.3 "/>
<path class="st1" d="M87.4,201.4H70.7v8h14.8v4.7H70.7V226h-5.2v-29.3h21.8V201.4z"/>
<path class="st1" d="M109,196.7V226h-5.2v-29.4H109z"/>
<path class="st1" d="M147.9,196.7h5.1V226h-4.3l-16.2-20.9V226h-5.1v-29.4h4.8l15.7,20.3V196.7z"/>
<path class="st1" d="M193.1,226L181,211.2l-7.3,7.4v7.5h-2.2v-29.4h2.2V216l18.7-19.3h3l-12.8,13l13.4,16.4L193.1,226z"/>
<polygon class="st1" points="225.3,196.5 223.2,196.5 209.5,226 211.8,226 215.5,217.8 215.5,217.8 218.6,211 218.6,211 
	224.2,198.9 228.8,208.9 232.8,217.8 232.8,217.8 236.6,226 238.9,226 "/>
<rect x="60" y="237.3" class="st1" width="21.8" height="5.3"/>
<path class="st1" d="M73.5,237.3v29.4h-5.1v-29.4H73.5z"/>
<path class="st1" d="M234.9,237.3h5.1v29.4h-4.3l-16.2-20.9v20.9h-5.1v-29.4h4.8l15.7,20.3L234.9,237.3z"/>
<path class="st2" d="M155,264.8l-11.3-12.9l-6.8,6.5v6.5h-2v-25.7h2v16.8l17.5-16.8h2.8l-12,11.3l12.5,14.3H155z"/>
<path class="st1" d="M197.7,242H181v8h14.8v4.7H181v11.9h-5.2v-29.4h21.9V242z"/>
<rect x="175.9" y="261.4" class="st1" width="21.8" height="5.3"/>
<ellipse class="st3" cx="106.8" cy="252" rx="12" ry="12.6"/>
</svg>
