<?xml version="1.0" encoding="utf-8"?>
<!-- Generator: Adobe Illustrator 24.1.0, SVG Export Plug-In . SVG Version: 6.00 Build 0)  -->
<svg version="1.1" id="Layer_1" xmlns="http://www.w3.org/2000/svg" xmlns:xlink="http://www.w3.org/1999/xlink" x="0px" y="0px"
	 viewBox="0 0 1800 1200" style="enable-background:new 0 0 1800 1200;" xml:space="preserve">
<style type="text/css">
	.st0{fill:#414042;}
	.st1{fill:#414042;stroke:#414042;stroke-width:20;stroke-miterlimit:10;}
	.st2{fill:none;stroke:#414042;stroke-width:26;stroke-miterlimit:10;}
</style>
<path class="st0" d="M832.1,665.77h-94.88v45.55h84.17v26.65h-84.17v67.98h-29.36V639.07H832.1V665.77z"/>
<path class="st0" d="M954.78,639.07v166.98h-29.16V639.07H954.78z"/>
<path class="st0" d="M1176.02,639.07h28.86v166.98h-24.59l-92.22-118.81v118.81h-28.86V639.07h27.2l89.45,115.65L1176.02,639.07z"/>
<path class="st0" d="M1433.26,806.06l-68.68-84.42l-41.53,41.93v42.49h-12.42V639.07h12.42v109.71l106.4-109.71h16.94l-73.01,73.76
	l76.08,93.27L1433.26,806.06z"/>
<polygon class="st0" points="1616.23,637.86 1604.26,637.86 1526.53,806.06 1539.4,806.06 1560.62,759.29 1560.77,759.29 
	1578.57,720.28 1578.57,720.28 1610,651.49 1636.04,708.76 1659.07,759.29 1659.12,759.29 1680.39,806.06 1693.97,806.06 "/>
<rect x="676.12" y="870.21" class="st0" width="124.25" height="30.22"/>
<path class="st0" d="M753.1,870.06v166.98h-29.31V870.06H753.1z"/>
<path class="st0" d="M1671.14,870.06H1700v166.98h-24.59l-92.12-118.76v118.76h-28.86V870.06h27.2l89.45,115.65L1671.14,870.06z"/>
<path class="st1" d="M1216.24,1026.34l-64.11-73.61l-38.82,36.66v37.01h-11.56V880.57h11.56v95.53l99.51-95.53h15.84l-68.28,64.46
	l70.95,81.3H1216.24z"/>
<path class="st0" d="M1459.45,896.81h-94.93v45.55h84.17v26.9h-84.17v67.98h-29.36V870.06h124.3V896.81z"/>
<rect x="1335.16" y="1007.18" class="st0" width="124.24" height="30.22"/>
<ellipse class="st2" cx="942.51" cy="953.58" rx="68.28" ry="71.85"/>
<rect x="244.16" y="633.34" class="st0" width="261.01" height="32.43"/>
<rect x="251.25" y="640.63" class="st0" width="246.68" height="17.85"/>
<polygon class="st0" points="542.27,587.33 563.69,611.32 504.86,665.77 483.44,641.84 "/>
<polygon class="st0" points="532.07,611.22 532.27,559.63 564,546.91 563.95,611.27 "/>
<polygon class="st0" points="409.73,1083.11 461.67,1014.47 484.6,1037.3 437.09,1100 "/>
<polygon class="st0" points="419.59,1081.5 462.83,1024.38 476.71,1035.24 433.47,1092.36 "/>
<polygon class="st0" points="517.99,682.06 653.09,681.26 642.64,713.59 513.61,714.49 "/>
<polygon class="st0" points="520.75,707.15 520.7,689.3 643.19,688.55 637.41,706.35 "/>
<polygon class="st0" points="404.75,844.72 434.57,832.5 484.6,1037.3 454.68,1048.71 "/>
<polygon class="st0" points="412.35,845.63 429.34,841.3 476.86,1035.59 459.86,1039.91 "/>
<polygon class="st0" points="404.75,844.72 444.43,777.95 473.49,791.62 429.59,865.09 "/>
<polygon class="st0" points="412.1,845.53 448.5,784.54 463.48,793.84 427.08,854.78 "/>
<polygon class="st0" points="444.43,777.95 511.05,768.14 515.57,800.22 445.28,810.58 "/>
<polygon class="st0" points="448.85,784.69 504.97,776.39 507.48,794.04 451.37,802.33 "/>
<polygon class="st0" points="473.74,729.38 504.51,720.58 526.74,875.44 497.93,880.37 "/>
<polygon class="st0" points="481.38,731.64 498.68,728.77 521.21,868.91 503.91,871.77 "/>
<polygon class="st0" points="473.74,729.38 517.99,682.06 543.48,701.27 494.31,754.32 "/>
<polygon class="st0" points="481.28,731.64 520.6,689.2 533.37,701.42 494,743.86 "/>
<polygon class="st0" points="519.95,758.19 591.05,758.04 586.27,790.47 524.42,790.62 "/>
<polygon class="st0" points="594.26,759.65 619.56,681.46 653.09,681.26 625.99,765.23 "/>
<polygon class="st0" points="619.96,760.55 603.32,754.92 624.74,688.7 643.19,688.55 "/>
<polygon class="st0" points="564.9,765.68 613.12,735.31 625.99,765.23 585.72,790.47 "/>
<polygon class="st0" points="574.76,767.94 610.81,745.32 620.01,760.45 583.96,783.13 "/>
<polygon class="st0" points="482.99,915.42 499.28,855.28 526.74,875.44 515.12,918.38 "/>
<polygon class="st0" points="491.54,910.19 504.06,864.08 520.95,868.86 508.43,914.96 "/>
<polygon class="st0" points="387.91,1022.87 446.39,951.07 467.51,973.59 413.2,1041.02 "/>
<polygon class="st0" points="469.82,926.53 493.7,893.75 515.12,918.38 479.52,964.09 "/>
<polygon class="st0" points="395.4,1043.74 387.91,1022.87 402.04,1005.82 423.51,1009.8 430.9,1030.66 416.87,1047.61 "/>
<polygon class="st0" points="185.23,611.32 206.65,587.33 265.48,641.79 244.06,665.77 "/>
<polygon class="st0" points="216.95,611.27 216.65,559.68 185.03,546.96 185.08,611.32 "/>
<polygon class="st0" points="343.36,1083.06 291.37,1014.42 268.49,1037.25 316.01,1100 "/>
<polygon class="st0" points="289.81,1024.68 333.05,1081.8 319.18,1092.66 275.93,1035.54 "/>
<polygon class="st0" points="235.16,682.01 100,681.26 110.46,713.59 239.43,714.44 "/>
<polygon class="st0" points="232.29,707.1 232.44,689.25 109.91,688.55 115.69,706.35 "/>
<polygon class="st0" points="348.34,844.72 318.52,832.45 268.49,1037.25 298.41,1048.71 "/>
<polygon class="st0" points="323.7,841.3 340.75,845.58 293.23,1039.86 276.24,1035.59 "/>
<polygon class="st0" points="348.34,844.72 308.67,777.9 279.55,791.57 323.4,864.99 "/>
<polygon class="st0" points="304.14,784.79 340.55,845.73 325.56,855.03 289.16,794.04 "/>
<polygon class="st0" points="308.67,777.9 242.04,768.14 237.52,800.17 307.71,810.58 "/>
<polygon class="st0" points="248.13,776.39 304.24,784.69 301.73,802.33 245.61,794.04 "/>
<polygon class="st0" points="279.35,729.38 248.53,720.53 226.31,875.39 255.12,880.37 "/>
<polygon class="st0" points="254.41,729.02 271.71,731.89 249.18,872.08 231.89,869.16 "/>
<polygon class="st0" points="279.35,729.38 235.16,682.01 209.51,701.27 258.74,754.32 "/>
<polygon class="st0" points="232.24,689.4 271.56,731.84 258.84,744.06 219.52,701.62 "/>
<polygon class="st0" points="233.14,758.14 162.05,758.04 166.77,790.47 228.62,790.52 "/>
<polygon class="st0" points="158.83,759.6 133.54,681.36 100,681.26 127.1,765.23 "/>
<polygon class="st0" points="133.14,760.55 149.78,754.92 128.31,688.65 109.86,688.55 "/>
<polygon class="st0" points="188.19,765.58 140.02,735.31 127.1,765.23 167.38,790.47 "/>
<polygon class="st0" points="142.29,745.37 178.34,768.04 169.14,783.18 133.09,760.5 "/>
<polygon class="st0" points="270.1,915.42 253.81,855.18 226.31,875.39 237.97,918.38 "/>
<polygon class="st0" points="248.58,864.18 261.1,910.29 244.21,915.02 231.69,868.91 "/>
<polygon class="st0" points="365.08,1022.87 306.66,951.02 285.59,973.54 339.89,1040.97 "/>
<polygon class="st0" points="283.28,926.48 259.29,893.7 237.97,918.38 273.52,964.09 "/>
<polygon class="st0" points="357.69,1043.63 365.08,1022.87 351.05,1005.82 329.58,1009.69 322.19,1030.56 336.22,1047.61 "/>
<polygon class="st0" points="437.09,1100 441.11,1067.52 312.29,1067.57 316.01,1100 "/>
</svg>
