<?xml version="1.0" encoding="utf-8"?>
<!-- Generator: Adobe Illustrator 24.1.0, SVG Export Plug-In . SVG Version: 6.00 Build 0)  -->
<svg version="1.1" id="Layer_1" xmlns="http://www.w3.org/2000/svg" xmlns:xlink="http://www.w3.org/1999/xlink" x="0px" y="0px"
	 viewBox="0 0 1800 1800" style="enable-background:new 0 0 1800 1800;" xml:space="preserve">
<style type="text/css">
	.st0{fill:#FEFEFE;}
	.st1{fill:#B9DEE2;}
	.st2{fill:#B8DDE1;}
	.st3{fill:#75BEC7;}
	.st4{fill:#00848F;}
	.st5{fill:#0097A6;}
	.st6{fill:#B4DCE0;}
	.st7{fill:#71BDC6;}
	.st8{fill:#50BFC5;}
	.st9{fill:#6EBBC4;}
	.st10{fill:#70BCC5;}
	.st11{fill:#A7D5DA;}
	.st12{fill:#B3DBDF;}
	.st13{fill:#1EB6BE;}
	.st14{fill:#A2D3D8;}
	.st15{fill:#A6D5DB;}
	.st16{fill:#AED9DD;}
	.st17{fill:#ABD8DD;}
	.st18{fill:#82C5CD;}
	.st19{fill:#4AA9B3;}
	.st20{fill:#B0DADE;}
	.st21{fill:#88C7CF;}
	.st22{fill:#54AEB7;}
	.st23{fill:#A8D7DC;}
	.st24{fill:#ACD8DD;}
	.st25{fill:#7EC2CB;}
	.st26{fill:#9DD1D7;}
	.st27{fill:#8ECAD1;}
	.st28{fill:#B0DADF;}
	.st29{fill:#4FABB5;}
	.st30{fill:#6BBAC3;}
	.st31{fill:#83C5CC;}
	.st32{fill:#66B7C0;}
	.st33{fill:#A7D6DB;}
	.st34{fill:#58B0BA;}
	.st35{fill:#118C97;}
	.st36{fill:#44A6B0;}
	.st37{fill:#5CB2BC;}
	.st38{fill:#50ACB5;}
	.st39{fill:#7FC2CA;}
	.st40{fill:#92CCD2;}
	.st41{fill:#0A8994;}
	.st42{fill:#5DB2BC;}
	.st43{fill:#329DA7;}
	.st44{fill:#379FAA;}
	.st45{fill:#79C0C9;}
	.st46{fill:#96CDD4;}
	.st47{fill:#00B0BA;}
	.st48{fill:#A1D3D9;}
	.st49{fill:#62B5BE;}
	.st50{fill:#97CED5;}
	.st51{fill:#168F9A;}
	.st52{fill:#9FD4D8;}
	.st53{fill:#A3D4D9;}
	.st54{fill:#138D99;}
	.st55{fill:#49A8B2;}
	.st56{fill:#058692;}
	.st57{fill:#9AD0D6;}
	.st58{fill:#1B919C;}
	.st59{fill:#88C7CE;}
	.st60{fill:#B1DADE;}
	.st61{fill:#62C2C9;}
	.st62{fill:#1A919C;}
	.st63{fill:#AED8DD;}
	.st64{fill:#90CBD2;}
	.st65{fill:#8AC8CF;}
	.st66{fill:#95CDD4;}
	.st67{fill:#70C7CB;}
	.st68{fill:#0D8A96;}
	.st69{fill:#8AC8D0;}
	.st70{fill:#63B5BF;}
	.st71{fill:#99CFD5;}
	.st72{fill:#2D9AA5;}
	.st73{fill:#068792;}
	.st74{fill:#1F939E;}
	.st75{fill:#8CC9D0;}
	.st76{fill:#58B0B9;}
	.st77{fill:#00A2AF;}
	.st78{fill:#2E9BA5;}
	.st79{fill:#95D0D6;}
	.st80{fill:#60B4BD;}
	.st81{fill:#3CA2AC;}
	.st82{fill:#ABD7DC;}
	.st83{fill:#85C6CE;}
	.st84{fill:#40A4AE;}
	.st85{fill:#2496A1;}
	.st86{fill:#2797A2;}
	.st87{fill:#00ABB6;}
	.st88{fill:#2A99A4;}
	.st89{fill:#8DCED3;}
	.st90{fill:#68B8C1;}
	.st91{fill:#00A8B2;}
	.st92{fill:#009DAC;}
	.st93{fill:#9AD2D7;}
	.st94{fill:#339DA8;}
	.st95{fill:#7BC0C9;}
	.st96{fill:#83CCD1;}
	.st97{fill:#93CCD3;}
	.st98{fill:#3EA3AD;}
	.st99{fill:#7ECACF;}
	.st100{fill:#A0D3D8;}
	.st101{fill:#9ACFD5;}
	.st102{fill:#3BA1AC;}
	.st103{fill:#45A6B0;}
	.st104{fill:#2998A3;}
	.st105{fill:#61B5BE;}
	.st106{fill:#A4D6DA;}
	.st107{fill:#38A0AA;}
	.st108{fill:#55AEB8;}
	.st109{fill:#88CED2;}
	.st110{fill:#79C8CD;}
	.st111{fill:#20949F;}
	.st112{fill:#77BFC7;}
	.st113{fill:#83C5CD;}
	.st114{fill:#84C6CE;}
	.st115{fill:#80C4CC;}
	.st116{fill:#7CC2CA;}
	.st117{fill:#78C0C9;}
	.st118{fill:#6AB9C2;}
	.st119{fill:#359EA9;}
	.st120{fill:#2395A0;}
	.st121{fill:#2495A0;}
</style>
<rect y="0" class="st0" width="1800" height="1800"/>
<g>
	<g>
		<path class="st1" d="M411.9,1176.6c-19.4-2.9-37.8-9.2-55.9-16.5c-19.9-8-39.1-17.6-57.8-28.1c-2.7-13-4.1-26.2-5.9-39.3
			c-5-36.2-10.3-72.3-15.4-108.5c-1.2-8.8-2.5-17.6-3.8-26.4c-0.2-1.6-0.5-3.2,0.1-4.8c2-2.6,4.2-0.8,6.1,0
			c17.4,7,34.8,14.1,52.1,21.2c32.4,13.4,64.7,27,97.1,40.5c12.7,5.3,25.4,10.4,38.1,15.8c1.6,0.7,3.5,0.9,4.1,3
			c-6,12.9-11.2,26.1-16.6,39.3c-13.1,31.5-26,63.1-39.2,94.5C413.5,1170.3,412,1173.2,411.9,1176.6z"/>
		<path class="st2" d="M212.6,762.6c8.4-9.6,18.4-17.7,28-26c15.3-13.3,30.9-26.4,47.1-38.6c12.9-9.7,25.8-19.4,39.8-27.5
			c7.4,4.9,14,10.8,21,16.3c26.3,20.4,52.6,40.8,78.7,61.4c5.7,4.5,11.6,8.7,17.1,13.5c0,2.2-1.9,2.9-3.3,3.8
			c-39.2,25.1-76.4,53-112.3,82.7c-1.5,1.2-2.9,2.6-5.1,2.4c-9.1-7-17.9-14.2-26.9-21.3c-11.8-9.2-23.8-18.3-35.5-27.7
			c-15.3-12.3-31.4-23.7-46.4-36.5C213.9,764.4,212.9,763.8,212.6,762.6z"/>
		<path class="st3" d="M722.8,900.7c1.5,17.4,0.8,34.9,0,52.3c-0.1,1.1-0.5,2.2-0.7,3.2c-1.2-2.9-2.5-3.7-6-2.4
			c-45.8,17.9-91.6,35.7-137.4,53.5c-6.8,2.6-13.5,5.3-20.3,7.9c-2.1,0.8-4.7,2.1-6.4-1c-1.2-4.2,0.1-8.4,0.5-12.5
			c1.9-22.2,3-44.4,4-66.7c1.2-26,0.2-52,0.7-78c0.1-4.5-1.7-8.9-0.4-13.5c0.5-0.8,1-2,2.1-1c4.3,4.1,10.1,5.1,15.3,6.8
			c41.4,13.9,82.7,28.3,124.1,42.2C706.5,894.4,715,896.7,722.8,900.7z"/>
		<path class="st4" d="M482,648.1c7.8,2,15,5.6,22.5,8.7c45,18.6,90.3,36.7,134.9,56.2c11.5,5,21.7,12,30.2,21.4
			c-1.4,3.5-4,1.7-6,1.1c-9.7-3.1-19.4-6.3-29-9.6c-26.4-9.2-52.9-18.3-79.5-27.1c-12.6-4.2-25-8.9-37.7-12.8
			c-4.1-1.8-5.2-6.1-7.9-9.2c-7.2-9.3-15.3-17.7-24.7-24.7C483.3,651.2,481.5,650.4,482,648.1z"/>
		<path class="st4" d="M668.5,1073.5c-10.6,9.1-22.8,15.6-35.2,21.6c-45.6,22.1-91.2,44.1-136.8,66.1c-0.6,0.3-1.2,0.5-1.8,0.7
			c-1.6-2.7,1.1-3.6,2.2-5.2c2.9-2,5.5-4.4,7.9-7c3.8-4.3,7.3-8.9,10.7-13.6c2.3-2.6,3.1-6.4,6.5-8.2
			c46.8-18.1,93.5-36.4,140.4-54.5C664.2,1072.8,666.4,1070.5,668.5,1073.5z"/>
		<path class="st5" d="M154.5,876.4c-2.6-5.9-4.4-11.9-3.7-18.4c2.2-1.4,3.7,0.2,5.1,1.4c13.1,10.4,26.3,20.8,39.6,31
			c14.6,11.1,28.7,22.9,43.4,34c2.4,1.8,5.4,3.2,5.9,6.7c-0.4,2.9-2.2,4.9-4.6,6.4c-1.7,0.5-3.4,0-5-0.6c-1.5-0.6-2.9-1.4-4.3-2.2
			c-1.7-1-3.6-1.4-5.3-2.1c-1.2-0.5-2.2-1.1-3.3-1.8c-0.7-0.4-1.4-0.9-2.1-1.2c-1.2-0.7-2.5-1.3-3.8-1.9c-1.3-0.7-2.6-1.3-3.9-1.9
			c-1.3-0.7-2.7-1.3-4-2c-2.8-1.7-5.6-3.5-8.6-4.8c-2.2-1.4-4.6-2.5-6.9-3.9c-1.8-1.5-3.8-2.8-5.9-4.1c-2.3-1.7-4.8-3.2-7.1-4.9
			c-6.1-4.2-11.5-9.2-16.5-14.6C159.4,887,156.3,882.1,154.5,876.4z"/>
		<path class="st6" d="M411.9,1176.6c-2-1.4-1.1-3.1-0.5-4.7c12.2-29.3,24.4-58.5,36.6-87.8c6.4-15.5,12.8-30.9,19.2-46.4
			c0.7-1.6,0.7-3.6,3-3.9c3.9-0.9,6.9,0.6,9.3,3.7c0.2,2.9-1.7,5.2-2.7,7.7c-17.3,42.2-34.9,84.3-52.3,126.4c-0.9,2.2-1.3,4.8-3.8,6
			C417.8,1177.2,414.9,1176.9,411.9,1176.6z"/>
		<path class="st7" d="M722.8,900.7c-5.9-0.4-11.2-3-16.6-4.8c-28.2-9.5-56.4-19.2-84.6-28.8c-20.1-6.9-40.2-13.9-60.4-20.5
			c-2.6-0.9-2-2.9-3.3-4.1c-1.8-1.6-1.5-3.5-0.8-5.4c2.4-2.4,4.9-0.8,7.2,0c18.1,6.1,36.1,12.3,54.2,18.4
			c27.2,9.3,54.5,18.7,81.8,27.8c5.8,1.9,11.5,4.2,17.4,6.2c1.7,0.6,3.3,1.4,4.6,2.7c0.7,2.5-0.3,5.2,0.6,7.7
			C722.8,900,722.8,900.3,722.8,900.7z"/>
		<path class="st8" d="M162.1,821.9c1.3-3.4,3.4-6.3,5.8-9c9.6,6.3,18.3,13.8,27.3,20.8c25.1,19.6,50.2,39.1,75.2,58.8
			c1.5,1.2,3.4,2,3.8,4.2c-1.7,3.7-3.7,7.2-8.2,8.2c-12.6-10.6-25.9-20.4-38.8-30.6c-20.4-16.1-41-32-61.5-48.1
			C164.4,825,162.6,824,162.1,821.9z"/>
		<path class="st3" d="M154.5,876.4c6.3,11.9,15.8,21,26.3,29.1c0.1,10.4,2.4,20.6,3.8,30.8c3.7,27.4,8,54.8,11.5,82.3
			c0.3,2.1,1.7,5.3-2.6,5.5c-3.4-13.6-6.7-27.2-10.3-40.7c-9.3-34.8-18.8-69.5-28.2-104.2C154.7,878.3,154.6,877.3,154.5,876.4z"/>
		<path class="st9" d="M721.9,891.9c-33.7-11.5-67.5-23.1-101.2-34.6c-20.2-6.9-40.3-13.7-60.5-20.5c-0.7-0.3-1.6-0.2-2.4-0.3
			c-2.2-2.2-2.6-4.8-1.5-7.6c2.7-2.2,5.3-0.4,7.7,0.5c33.2,11,66.2,22.6,99.4,33.7c16.9,5.7,33.6,11.8,50.6,17.2
			c2.5,0.8,5.1,1.9,6.5-1.6c0.2-0.2,0.4-0.3,0.6-0.5c1.5,4.1,0.7,8.4,0.9,12.6c0.3,0.3,0.3,0.5,0.2,0.8
			C722.1,891.8,722,891.9,721.9,891.9z"/>
		<path class="st10" d="M552.9,1015.3c9.9-2.3,19-6.9,28.5-10.5c32.9-12.6,65.8-25.4,98.6-38.2c12.4-4.8,24.9-9.7,37.3-14.6
			c1.4-0.5,2.7-1.1,4.4-1.1c0.1,1.7,0.2,3.5,0.3,5.2c0,0.6-0.1,1.2-0.1,1.8c-1.2,1.5-2.8,2.1-4.5,2.7c-45.1,17.6-90.2,35-135.3,52.6
			c-8.3,3.2-16.5,6.7-24.9,9.6c-1.9,0.7-3.9,1.9-5.9,0C550.3,1020.1,550.3,1017.4,552.9,1015.3z"/>
		<path class="st11" d="M350.6,657.5c2.6-2.1,5.6-3.6,8.9-4.6c28.2,22.6,56.9,44.6,85.4,66.9c8.5,6.7,17,13.4,25.6,20
			c1.5,1.2,3.1,2.4,3.1,4.6c-1.5,2.9-3.9,4.2-7.1,4.5c-6.8-2.6-11.8-7.9-17.3-12.3c-31-24.2-62-48.3-92.9-72.6
			C354.2,662.3,350.7,661.3,350.6,657.5z"/>
		<path class="st12" d="M212.6,762.6c7.7,5.9,15.3,11.7,23,17.6c17.1,13.2,34.1,26.3,51.2,39.6c10.8,8.4,21.5,16.9,32.2,25.4
			c1.7,1.4,3.1,3.3,4.6,4.9c-0.8,3-2.2,5.4-5.8,5.6c-6.8-3.8-12.5-9.1-18.5-13.9c-13.4-10.7-27.3-20.6-40.5-31.5
			c-16.1-13.2-33.2-25.2-49.2-38.4c-1.2-1-2.7-1.8-3.4-3.4C207.5,765.7,210.6,764.7,212.6,762.6z"/>
		<path class="st13" d="M162.1,821.9c29.1,22.8,58.2,45.5,87.3,68.3c4.7,3.7,9.5,7.2,14.2,10.7c1.3,1,2.5,2.1,2.6,3.9
			c-0.8,3.3-2.2,6.2-6.1,6.8c-11.2-9.6-23-18.3-34.6-27.4c-22.4-17.5-44.7-35.1-67.3-52.4c-0.4-0.3-0.7-0.7-1-1.1
			C158.3,827.4,160.2,824.7,162.1,821.9z"/>
		<path class="st14" d="M473.2,744.3c-4.4-5.5-10.5-9-15.9-13.2c-21.9-17.4-44.1-34.6-66.1-51.8c-9.3-7.2-18.6-14.4-27.9-21.6
			c-1.7-1.3-3.5-2.3-3.8-4.7c2.8-1.5,5.5-3.3,8.7-3.9c6.4,6.8,14.1,11.9,21.3,17.6c30,23.4,60,46.8,90,70.2c1,0.8,2.2,1.5,2.7,2.8
			C480.3,743.3,477.4,744.9,473.2,744.3z"/>
		<path class="st15" d="M448,1177.7c-3.5,1.7-7.2,0.6-10.8,0.8c-1.7-2.1-0.3-4,0.5-5.9c10.4-25.6,21.2-51.1,31.7-76.7
			c6.6-16,13.2-32,19.9-48c0.9-2.1,1.6-4.3,4.1-5.1c2.9,0,5.7,0.4,7.3,3.3c-1.5,7.3-5,13.9-7.9,20.7
			c-14.4,34.8-28.8,69.5-43.2,104.3C448.9,1173.3,448,1175.4,448,1177.7z"/>
		<path class="st6" d="M274,952.2c1.5,10.6,2.9,21.3,4.4,31.9c1.7,12.4,3.6,24.8,5.3,37.2c2.1,14.6,4,29.2,6.1,43.9
			c1.8,12.9,3.7,25.7,5.6,38.6c1.2,8.1,2.2,16.2,3.5,24.3c0.2,1.5,0.9,2.8-0.6,4c-2.8-0.8-5.5-2-7.7-3.9
			c-2.7-25.9-7.1-51.6-10.6-77.4c-4.3-31.6-9.3-63-13.3-94.6c-0.3-2.1-0.8-4.2,1-6C270.3,948.7,272.5,949.4,274,952.2z"/>
		<path class="st16" d="M206,768.5c4,1.2,6.6,4.4,9.7,6.9c12.9,10.3,26.5,19.8,39.3,30.3c20.6,16.9,42.2,32.5,62.8,49.4
			c-1.3,3.4-3,6.3-7,7c-11.5-10.4-24.3-19.4-36.4-29c-23.8-18.7-47.7-37.2-71.5-55.9c-1-0.8-2.1-1.5-2.7-2.8
			C201.7,772,203.7,770.1,206,768.5z"/>
		<path class="st17" d="M284.7,1125.1c-2.3-1.3-4.6-2.5-6.9-3.8c-2.6-13-4.1-26.2-5.9-39.4c-4.9-36.1-10.3-72.1-15.3-108.2
			c-1-7.2-2-14.4-3.1-21.6c-0.4-2.6-0.7-5.2,0.7-7.6c3.6-1.8,6.2-0.2,8.2,2.8c6.6,47,13.3,93.9,19.9,140.9c1.4,10.3,3,20.5,4.3,30.8
			C286.8,1121.2,288,1123.9,284.7,1125.1z"/>
		<path class="st18" d="M193.5,914.1c2.1,1.5,4.9,1.8,6.6,3.9c1.4,1.9,1.9,4,2.2,6.3c7.4,51.8,14.7,103.6,22,155.4
			c0.3,2.4,0.9,4.8-1.1,6.9c-3.5-3-6.9-6.2-9.7-10c-0.1-9.9-2.2-19.5-3.6-29.3c-5.9-41.8-11.9-83.5-17.8-125.3
			C191.9,919.5,189.4,916.1,193.5,914.1z"/>
		<path class="st19" d="M713.4,825.8c1.7,2.4,0.3,5.4,1.7,7.8c-1.8,1.5-3.7,0.6-5.5,0c-42.2-14.1-84.3-28.6-126.4-43
			c-10.3-3.5-20.5-7.2-30.9-10.1c-0.9-0.3-1.9-0.5-2.6-1.2c-1.5-2.4-2.3-4.9-1-7.7c2.6-2.2,5.3-0.7,7.7,0.2
			c17.2,6,34.6,11.7,51.8,17.6c26.1,9,52.3,17.9,78.4,26.7C695.6,819.1,704.6,822.1,713.4,825.8z"/>
		<path class="st20" d="M420.7,1177.6c15.6-37.6,31.1-75.3,46.7-112.9c3.8-9.1,7.7-18.1,11.6-27.1c3.5-1.4,5.9,0.1,8,2.7
			c-9,21.8-18.1,43.6-27.1,65.4c-9.3,22.4-18.6,44.8-27.8,67.3c-0.7,1.8-0.9,3.8-1.8,5.5C427.1,1179,423.9,1178.1,420.7,1177.6z"/>
		<path class="st21" d="M223.4,1086.6c0.1-9.2-2.2-18.1-3.3-27.2c-1.6-12.9-3.5-25.7-5.4-38.6c-2.1-14.9-4.3-29.8-6.5-44.7
			c-1.8-12.2-3.5-24.4-5.2-36.7c-1-7.1-1.9-14.3-2.9-21.4c3.2,1.2,6.2,2.8,8.9,4.9c7.4,54.3,15.4,108.6,23,162.9
			c0.3,2.3,1.7,5.2-1.9,6.4C227.3,1091,225.3,1088.8,223.4,1086.6z"/>
		<path class="st12" d="M443.9,761.7c-7.2-3.4-12.8-9.1-19-13.9c-15.9-12.1-31.5-24.5-47.2-36.8c-15.3-12-30.7-24-46-36
			c-1.6-1.3-2.9-3.1-4.3-4.6c2.3-1.3,4.5-2.6,6.8-4c6.6,3.6,12.1,8.7,17.9,13.2c30.8,24.1,61.8,48.1,92.6,72.3
			c2.1,1.7,4.5,3.2,5.5,6C449.1,760.9,446.8,761.8,443.9,761.7z"/>
		<path class="st22" d="M716.2,840.4c1.2,1.8,0.9,3.8,1,5.8c-0.1,2.7-2.1,1.9-3.5,1.8c-1.8-0.1-3.4-0.9-5.1-1.5
			c-47.2-16.1-94.3-32.3-141.6-48.2c-3.8-1.3-7.5-3-11.4-4.1c-2.3-0.6-3.7-1.9-4.4-4.1c-0.5-1.7-1.4-3.5-0.3-5.3
			c2.8-0.9,5.4,0.1,8,1c26.5,9.2,53.2,18.1,79.8,27.2c24.7,8.5,49.6,16.7,74.2,25.4C714.1,839,715.3,839.5,716.2,840.4z"/>
		<path class="st23" d="M200.2,774.3c7.4,3.9,13.4,9.8,20,14.9c15.6,11.9,30.9,24.2,46.4,36.3c13.8,10.8,27.7,21.5,41.6,32.2
			c1.2,1,2.6,2,2.7,3.9c-1.1,2.8-2.7,5-6,5.2c-34.8-27.4-69.8-54.5-104.7-81.8c-1.9-1.5-4.1-2.6-5.2-5
			C196.8,778.2,198.5,776.3,200.2,774.3z"/>
		<path class="st24" d="M430.4,1178.5c-0.8-1.3-1-2.5-0.3-4.1c10.5-25.1,21-50.3,31.4-75.4c7.5-18,14.9-36,22.4-54.1
			c0.7-1.6,1.1-3.4,2.9-4.3c2.9-0.4,5.5-0.3,6.8,2.9c-3.8,3.6-4.7,8.7-6.6,13.2c-16.4,39.5-32.7,79-49,118.5c-0.4,1-0.5,2.2-0.8,3.3
			C435,1178.5,432.7,1178.5,430.4,1178.5z"/>
		<path class="st25" d="M193.5,914.1c-1.5,5.1,0.5,10,1.1,14.9c1.8,15.3,4.2,30.5,6.5,45.7c2.2,14.8,4.5,29.5,6.6,44.3
			c2.1,14.8,4,29.6,6.1,44.4c0.5,3.5,0.9,7,1.6,10.5c0.3,1.6,0,2.5-1.7,2.7c-3.1-3.9-6.1-7.8-7.7-12.6
			c-5.4-35.8-10.3-71.6-15.5-107.4c-2-13.6-3.8-27.2-5.6-40.8c-0.3-2.3-1.1-5,2.7-5.4C189.9,911.1,191.8,912.4,193.5,914.1z"/>
		<path class="st26" d="M482.1,739.4c-6.4-2.8-11.1-8.1-16.6-12.2c-26-20-51.9-40.2-77.8-60.3c-6-4.6-11.8-9.5-17.8-14.1
			c-1.4-1-1.8-2.2-1.7-3.7c2.2-1.1,4.3-2.6,6.8-2.9c8.8,6,17,12.9,25.4,19.5c27.2,21.2,54.3,42.4,81.5,63.5c2.6,2,5.8,3.7,6.3,7.5
			C486.8,739,485,740.4,482.1,739.4z"/>
		<path class="st27" d="M396.4,639.3c3.8-1.1,7.6-2.5,11.6-2.7c0.7,2.5,2.5,4,4.5,5.5c32.4,25.2,64.8,50.4,97.1,75.7
			c2.4,1.9,5,3.6,6.6,6.3c-1.4,2.7-4.2,2.9-6.7,3.6c-3.1,0.4-5.1-1.6-7.3-3.3c-22.7-17.6-45.3-35.3-68-53
			c-10.8-8.4-21.7-16.8-32.5-25.3C399.5,644.3,396.4,642.9,396.4,639.3z"/>
		<path class="st28" d="M284.7,1125.1c2.6-3.6,0.2-7.3-0.3-10.7c-3.2-23.8-7-47.6-10.3-71.4c-3.1-21.9-5.9-43.9-8.9-65.8
			c-1.4-10-3.6-19.9-3.8-30.1c3-0.8,5.5-0.4,6.8,2.9c-1.7,3.8,0,7.6,0.4,11.3c1.9,15,4.2,29.9,6.4,44.8c2.1,14.8,4.3,29.6,6.4,44.3
			c1.7,11.9,3.5,23.8,5.2,35.8c1.8,12.7,3.4,25.5,5.3,38.2c0.3,1.7,0.3,2.8-1.3,3.5C288.3,1127.6,286.3,1126.8,284.7,1125.1z"/>
		<path class="st29" d="M716.2,840.4c-8.3-1.1-15.6-4.9-23.4-7.4c-23.8-7.7-47.4-15.9-71-24.1c-20.9-7.3-42.1-13.6-62.7-21.6
			c-2.5-1-5.2-1.5-7.8-2.2c-2-1.7-2.8-3.5-1-5.8c2.5-0.3,4.8,0.5,7.1,1.3c37.8,12.8,75.5,25.6,113.3,38.5c13,4.4,26,8.9,39,13.3
			c1.8,0.6,3.7,1,5.6,1.4C715.9,835.8,716.4,838,716.2,840.4z"/>
		<path class="st30" d="M551.9,1023.1c9.7-2.4,18.8-6.7,28.1-10.3c31.9-12.2,63.6-24.9,95.4-37.2c15.5-5.9,30.7-12.5,46.5-17.7
			c0,2.7,0.5,5.4-0.8,7.9c-10.6,2.9-20.7,7.5-30.9,11.5c-44.3,17.3-88.6,34.4-132.9,51.7c-2.1,0.8-4.3,2.5-6.8,0.7
			C549.4,1027.2,549.6,1024.9,551.9,1023.1z"/>
		<path class="st31" d="M423.6,634.6c2.9,0,5.9,0,8.8-0.1c30.5,24.1,61.4,47.8,92,72c1.6,1.2,3.3,2,5.2,2.4c1,0.7,1.5,1.8,2,2.8
			c0.8,1.7,1.9,3.4,1.7,5.4c-0.1,0.5-0.3,0.9-0.6,1.4c-1.9,1.8-4.1,2.7-6.8,2c-17.2-13.9-34.8-27.3-52.2-40.9
			c-16.1-12.6-32.4-25.2-48.5-37.9c-1.3-1-2.5-2.1-3.5-3.3C419.5,635.7,420.8,634.7,423.6,634.6z"/>
		<path class="st32" d="M551,1029.9c16.8-6.5,33.7-12.9,50.5-19.4c30.9-12,61.9-24,92.8-36c6.9-2.7,13.8-5.5,20.7-8.1
			c1.9-0.7,3.9-2.8,6.1-0.5c-0.2,2.6,0.3,5.3-1,7.8c-3.4-1.6-6.3,0.4-9.2,1.6c-20.3,8-40.7,15.8-61,23.7
			c-31,12.1-62.1,24.1-93.1,36.3c-2.3,0.9-4.7,2.5-7.3,0.4C548.6,1033.4,548.9,1031.4,551,1029.9z"/>
		<path class="st33" d="M254.6,944.3c0,12.1,2.9,23.9,4.3,35.8c1.5,12.6,3.6,25.1,5.4,37.6c2.1,14.6,4.1,29.2,6.2,43.9
			c1.8,12.9,3.6,25.7,5.5,38.6c0.8,5.7,1.6,11.4,2.5,17.1c0.2,1.5,0.8,2.8-0.6,4c-2.6-0.8-5-1.7-6.9-3.8
			c-6.8-55-15.5-109.8-23-164.8c-0.5-3.6-1.6-7.3,0.2-10.9C251.2,940,253.3,941.2,254.6,944.3z"/>
		<path class="st34" d="M552.1,789.9c1,1.1,1.3,2.4,3.2,3.1c29.1,9.7,58,19.6,87,29.5c22.9,7.8,45.7,15.7,68.6,23.5
			c1.9,0.6,4.1,2.6,6.2,0.2c1.3,2.1,0.9,4.5,1,6.7c-0.8,3.5-3.2,1.8-4.8,1.3c-14.3-5.2-28.9-9.6-43.2-14.7
			c-20-7.1-40.1-13.7-60.2-20.6c-17-5.8-33.9-11.8-51-17.4c-2.8-0.9-5.6-1.8-6.9-4.8C551.4,794.4,550,792.1,552.1,789.9z"/>
		<path class="st35" d="M683.3,750.9c2.4,2.1,3.3,5.2,5.1,7.7c-1.8,1.9-3.9,1.1-5.9,0.4c-27.8-9.1-55.4-18.8-83.2-28.1
			c-23.6-7.9-47-16.5-70.8-23.8c-2.9-2.2-4.9-4.9-4-8.8c2.1-1.4,4.1-0.4,6,0.3c49.5,16.6,98.8,33.8,148.3,50.4
			C680.4,749.5,681.8,750.3,683.3,750.9z"/>
		<path class="st36" d="M713.4,825.8c-4,0.3-7.5-1.6-11.2-2.9c-28.2-9.6-56.5-19.2-84.7-28.9c-20.6-7-41.2-14.1-61.7-21.2
			c-2.3-0.8-4.5-1.8-7-1.4c-2.9-1.7-2.5-4.3-2-6.9c2.4-1.7,4.7-0.3,6.9,0.5c40.4,13.7,80.8,27.4,121.1,41.3
			c9.9,3.4,19.9,6.6,29.9,10c2.2,0.7,4.4,1.1,6.7,0.7C712.7,819.8,713.2,822.7,713.4,825.8z"/>
		<path class="st37" d="M553.1,796.7c1.1,1.7,2.8,2.5,4.7,3.1c35,11.8,69.9,23.7,104.9,35.7c16.9,5.8,33.8,11.7,50.7,17.5
			c1.5,0.5,3.2,2.2,4.8,0c1.3,2.5,1,5.2,0.8,7.9c-2.4,0.9-4.4-0.3-6.5-1c-49.1-16.9-98.3-33.3-147.3-50.4c-3.9-1.4-8.2-1.8-11.8-4.1
			C552.5,802.4,551,799.6,553.1,796.7z"/>
		<path class="st38" d="M717.1,991.1c-0.1,2.8-0.6,5.4-1.9,7.9c-8.3,1.2-15.6,5.3-23.2,8.2c-16.2,6.1-32.3,12.4-48.4,18.7
			c-19.3,7.5-38.6,15-57.9,22.6c-11.9,4.7-23.9,9.2-35.7,13.9c-1.7,0.7-3.4,1.1-5.1-0.2c-1.1-1.9-0.4-3.5,0.6-5.2
			c5.6-4.4,12.4-6.1,18.8-8.6c30-11.7,60-23.3,89.9-35c18.2-7.1,36.5-14.1,54.7-21.3C711.4,991.1,714.1,989.1,717.1,991.1z"/>
		<path class="st39" d="M524.6,698.6c1,2.7,2.1,5.4,3.9,7.8c0.8,0.8,1.9,1.5,0.8,2.9c-2.9,1.8-4.5-0.9-6.2-2.2
			c-17.5-13.5-34.9-27.2-52.4-40.9c-11.9-9.3-23.8-18.5-35.7-27.8c-1.2-1-2.6-2-2.6-3.9c1.3,0,2.6,0,3.9,0c1.9,0.9,4-0.3,5.9,0.8
			c2.3,0.2,4.6-0.5,6.7,1c8.7,7.8,18.2,14.5,27.4,21.7c12.6,9.9,25.2,19.7,37.8,29.6c2.2,1.7,4.5,3.2,7,4.3
			C523.3,693.6,524.6,695.7,524.6,698.6z"/>
		<path class="st40" d="M396.4,639.3c4.9,6.4,11.8,10.3,18,15.2c20.2,16.1,40.7,31.9,61.1,47.8c10,7.8,20.1,15.5,30.1,23.3
			c1.1,0.9,2.2,1.2,3.6,1.1c-1.7,3.6-5.2,3.9-8.4,4.7c-4.9-2-8.3-6-12.3-9.2c-31-24.2-62.1-48.3-93-72.6c-1.8-1.4-3.5-2.8-5.3-4.3
			c-1.2-1-2.7-2.1-1.4-4C391.2,640.6,393.6,639.2,396.4,639.3z"/>
		<path class="st41" d="M524.6,698.6c-1.3-2-2.5-3.9-3.8-5.9c-0.8-0.7-1.9-1.2-0.6-2.4c2.4-1,4.5,0.2,6.5,0.9
			c49.5,17,99.2,33.8,148.8,50.7c0.3,0.1,0.6,0.1,1,0c3.2,2.3,4.1,6.4,6.8,9c-2.5,0.4-4.8-0.6-7-1.4c-38.5-13.1-77-26.1-115.4-39.2
			c-10.2-3.5-20.4-7-30.7-10.5C528.4,699.2,526.6,698.3,524.6,698.6z"/>
		<path class="st42" d="M719.9,976.5c0.2,2-0.5,3.9-1,5.8c-5.2,3.4-11.2,5.1-16.9,7.4c-49.1,18.9-98,38.2-147.1,57.1
			c-2.3,0.9-4.7,2.5-7.3,0.7c-1.2-2.2-0.6-4.1,0.8-6c6.3-3.7,13.4-5.6,20.2-8.2c20.8-8.1,41.7-16.1,62.4-24.3
			c26.4-10.4,52.8-20.5,79.2-30.9C713.3,976.9,716.3,974.5,719.9,976.5z"/>
		<path class="st43" d="M704.8,794.6c1.1,1.7,1.7,3.6,1.8,5.6c-0.8,3.8-3.5,1.9-5.2,1.4c-8.5-2.6-17-5.3-25.3-8.4
			c-16.8-6.3-34-11.6-51-17.5c-25.6-8.8-51.1-17.7-76.8-26.1c-2.3-0.8-4.7-1.2-6.5-3.1c-1.3-2.3-2.9-4.5-1.6-7.4
			c3.8-0.2,7.2,1.6,10.7,2.8c48.5,16.3,96.8,33.1,145.4,49.4C699.1,792.4,702.2,792.9,704.8,794.6z"/>
		<path class="st44" d="M542.4,746.1c12.2,4.2,24.4,8.3,36.6,12.5c30.6,10.4,61.1,20.8,91.7,31.2c10.4,3.5,20.7,7.2,31.1,10.6
			c1.5,0.5,3.3,2.1,4.7-0.2c1.5,2.5,2.1,5.2,1.9,8c-1.9,1.4-3.8,0.3-5.5-0.3c-49.5-17.1-99.2-33.6-148.7-50.8
			c-3.5-1.2-7.2-2-10.4-3.9C542.5,751.1,540.6,749,542.4,746.1z"/>
		<path class="st45" d="M187.6,910.3c-4.4,2.8-1,6.7-0.7,9.7c2.1,18.1,4.8,36.2,7.4,54.3c2.8,19.2,5.7,38.4,8.5,57.5
			c1.4,9.4,2.7,18.7,4,28.1c0.2,1.4,0.5,2.9-0.9,4c-4.8-8.3-6.9-17.6-9.4-26.7c-1.2-4.3-2-8.8-3-13.1c2.4-0.5,1.8-2.3,1.6-3.9
			c-2.8-20.3-5.7-40.7-8.6-61c-2.4-16.7-4.9-33.4-7.4-50c-0.3-1.7-0.7-3.3,1.7-3.6C183.2,906.9,185.7,908.2,187.6,910.3z"/>
		<path class="st46" d="M388.7,641.3c2.4,5.3,7.7,7.6,11.9,10.9c29.1,23.1,58.5,45.9,87.9,68.6c4.1,3.2,8,6.5,12,9.7
			c-1.4,3.4-4.3,3.7-7.4,3.5c-26.4-21.4-53.5-41.9-80.2-62.9c-9.7-7.6-19.4-15.1-29-22.8c-1.6-1.3-4.2-2.8-1-5.2
			C384.7,642.6,386.7,642,388.7,641.3z"/>
		<path class="st47" d="M157.4,830.7c5.5,1.6,9.1,6,13.4,9.2c15.8,12,31.3,24.3,46.9,36.5c13.6,10.6,27.2,21.1,40.8,31.7
			c1.1,0.8,1.8,1.8,1.9,3.2c0.2,2.8-1.6,3.8-3.9,4.4c-3.1-0.5-5-2.8-7.3-4.5c-29.6-22.9-59.1-45.9-88.5-69.1c-2-1.6-4.6-2.5-6.1-4.7
			C155,835,156.1,832.8,157.4,830.7z"/>
		<path class="st48" d="M448,1177.7c-3.1-0.5-1.3-2.3-0.8-3.5c6.8-16.7,13.7-33.3,20.6-50c10.6-25.6,21.1-51.1,31.7-76.7
			c0.2-0.4,0.6-0.7,0.9-1.1c3.1-1,5.5-0.2,7,2.8c-7.6,15.9-13.8,32.5-20.6,48.7c-9.9,23.7-19.8,47.5-29.6,71.3c-1,2.4-2,4.8-1.5,7.5
			C453.4,1178.4,450.6,1177.4,448,1177.7z"/>
		<path class="st49" d="M719.9,976.5c-10.8,2.4-20.6,7.4-30.9,11.2c-22.8,8.6-45.4,17.7-68.1,26.5c-23,9-46,17.9-69,26.8
			c-0.9,0.3-1.9,0.4-2.8,0.5c-1.7-2.3-0.8-4.1,1-5.8c7.8-1,14.6-4.9,21.8-7.7c36.1-13.8,72.2-27.9,108.2-42
			c12.2-4.7,24.4-9.4,36.5-14.3c2.4-1,3.6-1,3.6,2C720.1,974.7,720,975.6,719.9,976.5z"/>
		<path class="st50" d="M225.4,931.7c2.2-0.1,4.1,0.7,5.8,2c3.8,25.8,7.3,51.5,11,77.3c4.2,28.8,8.3,57.6,12.3,86.4
			c0.5,3.3,2.9,7.2-1,10.3c-2-0.4-3.4-1.6-4.9-2.9c-2.6-4.5-2.4-9.6-3.1-14.5c-4.2-29.3-8.5-58.6-12.6-88c-2.9-21.1-6-42.1-8.8-63.1
			C223.8,936.7,222.3,933.7,225.4,931.7z"/>
		<path class="st51" d="M529.3,709.2c-0.3-1-0.6-1.9-0.8-2.9c8,0.8,15.2,4.3,22.6,6.7c14,4.5,27.8,9.4,41.7,14.2
			c29.5,10,59,20.1,88.5,30.1c2.3,0.8,4.5,1.8,7.1,1.3c1.5,1.8,2.7,3.8,3.4,6c-1.4,3.4-4,1.8-6,1.2c-4.3-1.3-8.4-3.4-12.7-4.7
			c-24.8-7.7-49.3-16.6-73.9-24.9c-21.7-7.4-43.6-14.3-65-22.4c-1.2-0.5-2.4-1-3.4-1.8C530.3,711.2,529.8,710.2,529.3,709.2z"/>
		<path class="st52" d="M189.4,786c0.9-1.6,2.2-2.9,3.8-3.9c2.1-1.2,3.3,0.4,4.7,1.4c28.9,22.6,57.9,45.2,86.8,67.7
			c5.2,4.1,10.6,7.9,15.6,12.3c1.6,1.4,3.4,2.6,3.3,5.1c-0.6,2.1-2,3.3-4.2,3.6c-5.4-1.5-8.9-5.7-13.1-9
			c-30.8-24.1-61.7-48.1-92.5-72.2C192,789.6,190,788.4,189.4,786z"/>
		<path class="st53" d="M248.7,941.6c-0.8,8.1,1.4,15.9,2.4,23.8c1.6,12.7,3.6,25.4,5.4,38.1c2.1,14.8,4.3,29.5,6.4,44.3
			c1.8,12.2,3.5,24.4,5.2,36.7c1.2,8.2,2.5,16.5,3.6,24.7c0.4,2.8,1.3,5.7-0.8,8.3c-1.4-0.3-2.7-0.9-3.8-2c-2.4-5.8-2.2-12-3.1-18
			c-3.3-22-6.4-44-9.5-66.1c-2.8-19.5-5.4-39-8.2-58.5c-1.6-10.9-2.7-21.8-4.9-32.5c-0.1-0.5-0.1-1.1,0.1-1.6
			C245,936.9,246.8,939.4,248.7,941.6z"/>
		<path class="st54" d="M690.8,1051.2c-1.7,3.1-3.9,5.9-6.6,8.2c-10,2.3-19.2,6.7-28.6,10.4c-28.9,11.3-57.9,22.3-86.7,33.8
			c-11.6,4.6-23.2,8.9-34.8,13.6c-2.1,0.8-4.2,2-6.4,0.5c-0.8-2.9,0.5-5,2.6-6.8c41.9-16.1,83.7-32.6,125.6-48.8
			c9.9-3.8,19.8-8,29.8-11.5C687.3,1050,689.5,1048,690.8,1051.2z"/>
		<path class="st55" d="M545.3,1062c7.4-1.3,14-4.7,20.9-7.3c17.2-6.5,34.3-13.3,51.4-20c30.9-12.1,61.8-24.3,92.8-36.3
			c1.3-0.5,3.7-3.3,4.9,0.5c0,1.4,0,2.7-1,3.8c-19.5,8.2-39.3,15.5-59,23.2c-26.6,10.4-53.2,20.7-79.8,31.1
			c-8.3,3.2-16.5,6.6-24.8,9.6c-1.9,0.7-3.9,1.6-6.1,0.7c-1.5-1.3-0.6-2.8-0.2-4.2C544.5,1062.6,544.8,1062.3,545.3,1062z"/>
		<path class="st56" d="M676.5,742c-1.4,2.1-3,0.5-4.3,0c-42.9-14.4-85.8-28.9-128.7-43.6c-7.8-2.6-15.4-5.8-23.4-7.7
			c-2.6-1.1-4.1-2.7-3.3-5.8c8.6,1.6,16.6,5.1,24.9,7.8c12.9,4.2,25.6,8.7,38.4,13.1c20.7,7.1,41.4,14.3,62.1,21.3
			c7.5,2.6,15,5,22.5,7.5c1.6,0.5,3.3,1.7,4.9-0.1C672.3,736.5,674.6,739.1,676.5,742z"/>
		<path class="st57" d="M253.5,1107.7c1.6-5.8-0.7-11.4-1.4-17c-1.8-15.1-4.2-30.2-6.4-45.3c-2.1-14.8-4.4-29.5-6.5-44.3
			c-2.1-14.5-4.1-28.9-6.1-43.4c-0.9-6.4-1.8-12.7-2.7-19.1c-0.2-1.7-0.8-3.5,0.8-5c1.3,0.7,2.6,1.4,3.9,2.1
			c2.8,7.9,3,16.2,4.2,24.3c6.8,47.2,13.7,94.4,20.1,141.7c0.4,3,1.3,6.1-0.9,8.8C256.3,1110.5,255,1108.9,253.5,1107.7z"/>
		<path class="st58" d="M530.8,712.1c5.9,0.4,11.1,3.2,16.6,5.1c26.4,8.9,52.9,17.5,79.2,26.9c19.4,7,39.4,12.3,58.5,20.3
			c2.1,0.9,4.5,2.3,6.8,0.3c1.4,2,3.1,4,2.8,6.7c-1.8,1.5-3.7,0.6-5.5,0c-39.4-13.4-78.7-26.7-118-40.2c-11.3-3.9-22.7-7.6-34-11.4
			c-1.6-0.5-3.6-0.6-4.3-2.7C532.1,715.4,531.4,713.8,530.8,712.1z"/>
		<path class="st59" d="M423.6,634.6c-1.7,0.8-3.1,1.5-0.7,3.4c5.6,4.4,10.9,9,16.5,13.3c21.6,16.9,43.3,33.7,65,50.6
			c6.3,4.9,12.6,9.9,19,14.8c1.2,0.9,2.4,1.7,2.4,3.3c-0.7,2.5-2.8,2.4-4.7,2.6c-6.3-3.4-11.4-8.4-16.9-12.7
			c-28.7-22.3-57.3-44.6-85.9-67c-1.7-1.3-3.5-2.4-4.7-4.2c-0.7-1.1-1.5-2.3,0.4-3.1C417.1,635.3,420.2,634,423.6,634.6z"/>
		<path class="st60" d="M449.9,757.8c-31.8-24.8-63.7-49.6-95.3-74.6c-6.9-5.5-14.5-10.1-20.4-16.8c1.3-1.5,3.1-2.1,4.9-2.8
			c6.9,4.5,13.1,9.9,19.6,14.9c30.9,24,61.7,48.1,92.5,72.3c1.5,1.2,3.3,2.2,3.8,4.3C454,757.3,452.7,758.9,449.9,757.8z"/>
		<path class="st61" d="M273.9,896.5c-15.5-12-31-24-46.5-36.1c-15.6-12.2-31.3-24.2-46.7-36.6c-4.4-3.5-9.6-6-12.8-10.9
			c0.8-1.2,1.5-2.4,2.3-3.5c1.9-1.3,3,0.3,4.2,1.2c33.2,25.9,66.4,51.7,99.5,77.6c1.9,1.5,4,2.9,3.7,5.8
			C276.9,895.6,276.3,897.3,273.9,896.5z"/>
		<path class="st62" d="M690.8,1051.2c-4-1.5-7.1,1.3-10.3,2.6c-46.7,18.1-93.3,36.4-140,54.6c-3.2,1.3-6.4,3.1-10,3.3
			c-1.4-2.4,0.3-3.9,1.5-5.5c7-3.7,14.6-6,22-8.9c40.4-15.7,80.8-31.4,121.1-47.1c5.4-2.1,10.8-4.3,16.3-6.2c1.6-0.5,4.3-1.9,3.4,2
			C693.9,1047.9,692.9,1050,690.8,1051.2z"/>
		<path class="st63" d="M454.8,754.9c-29.1-22.7-58.2-45.5-87.3-68.2c-7.7-6-15.6-11.8-23.4-17.8c-1.9-1.5-3.4-3.5-5-5.2
			c1.6-1,3.2-1.9,4.8-2.9c37.3,29.3,74.8,58.3,112.1,87.7c1.4,1.1,2.9,2,3.8,3.7C458.9,754.4,457.5,756,454.8,754.9z"/>
		<path class="st64" d="M480,1168.9c-2.3,1-4.5,2-6.7,2.9c-3.4-1.4-1.2-3.7-0.6-5.4c3.2-7.8,6.4-15.6,9.7-23.3
			c11.5-27.5,22.8-55,34.2-82.5c1.1-2.6,1.6-5.8,5.2-6.4c2.1,0.2,4.2,0.3,5.2,2.6c-10.9,27.1-22.4,54-33.5,81
			c-3.5,8.5-7,17-10.5,25.5C482.2,1165.3,481.5,1167.3,480,1168.9z"/>
		<path class="st65" d="M413.9,635.6c-1.2,2.9,1.5,3.8,2.9,4.8c25.6,20,51.3,39.8,77,59.8c9.1,7.1,18.1,14.4,27.2,21.7
			c-0.8,2.7-2.6,2.9-4.9,1.9c-6.4-3.4-11.5-8.6-17.2-13c-15.9-12-31.5-24.4-47.2-36.7c-13.8-10.8-27.7-21.5-41.3-32.4
			c-1.3-1-5.1-2-2.3-5.2C410,636.2,411.9,635.9,413.9,635.6z"/>
		<path class="st66" d="M521.9,1055.2c-2.5,0.3-2.8,2.5-3.5,4.2c-14.3,34.6-28.5,69.2-42.7,103.8c-1.1,2.8-3.7,5.3-2.3,8.8
			c-1.7,1.3-3.9,1.3-5.8,2c-4-1.4-1.8-4.2-1.1-6.2c2.5-6.6,5.2-13.2,8-19.7c12.7-30.6,25.4-61.1,38-91.7c0.6-1.5,1-3.1,2.4-4.2
			C517.7,1051.9,520.5,1051.9,521.9,1055.2z"/>
		<path class="st67" d="M276.9,893.7c-2.6-5.6-8.2-7.9-12.6-11.5c-20-15.9-40.2-31.6-60.4-47.3c-10.8-8.4-21.5-16.8-32.3-25.2
			c-0.3-0.3-0.9-0.2-1.4-0.4c1-1.3,1.9-2.6,2.9-3.9c2.5-1.4,4,0.6,5.5,1.8c22.4,17.5,44.9,34.9,67.2,52.4
			c10.7,8.4,21.4,16.7,32.1,25c1.8,1.4,3.8,2.6,3.6,5.3C280.6,892.1,279.9,894.3,276.9,893.7z"/>
		<path class="st68" d="M527.8,1117.4c1.6,0.1,3.1-0.3,4.7-0.9c21.6-8.6,43.3-17.2,65-25.7c23.3-9.1,46.6-18.2,70-27.2
			c4.2-1.6,8.4-3.1,12.6-4.6c1.4-0.5,3-1.8,4.2,0.3c-1.3,1.8-2.8,3.4-4.7,4.7c-12.6,6.8-26.2,11-39.5,16.2
			c-34.5,13.6-69.1,26.9-103.7,40.3c-3.7,1.4-7.1,4-11.5,3C523.7,1120.6,525.2,1118.7,527.8,1117.4z"/>
		<path class="st69" d="M480,1168.9c2-8.9,6.4-16.9,9.7-25.2c11.2-27.7,22.7-55.2,34.1-82.8c0.6-1.5,1.1-3.1,2.8-3.8
			c2.3-1.2,4-0.4,5.2,1.7c-1.8,8.8-6.2,16.6-9.5,24.8c-10.8,26.8-22.3,53.2-32.9,80.1c-0.2,0.5-0.5,0.9-0.7,1.2
			C486,1166.6,483.1,1168,480,1168.9z"/>
		<path class="st70" d="M720,866.6c0,1.6-0.1,3.2-0.1,4.8c-2,0.8-3.8-0.1-5.6-0.7c-52.1-17.4-103.9-35.7-156.1-53
			c-0.9-0.3-1.8-0.6-2.6-1.2c-1.3-1.2-1.9-2.6-1.1-4.3c2.3-2.5,4.8-1.1,7.1-0.3c37.9,12.5,75.5,25.8,113.4,38.4
			c13.6,4.6,27.1,9.6,40.8,14C717.3,864.9,718.8,865.4,720,866.6z"/>
		<path class="st71" d="M515,1052.3c-4.7,13.9-11,27.2-16.5,40.7c-10.2,24.7-20.5,49.4-30.6,74.2c-0.8,2-2.8,4.3-0.4,6.7
			c-2.1,1.4-4.4,1.9-6.9,1.9c-3.4-1.3-1.5-3.7-0.9-5.4c2.6-7.3,5.8-14.4,8.8-21.5c12.7-30.2,25.1-60.6,37.7-90.9
			c1.1-2.7,2-5.5,3.9-7.8C512.1,1049.9,514.3,1049.4,515,1052.3z"/>
		<path class="st72" d="M704.8,794.6c-2.5,0.5-4.8-0.6-7-1.3c-22-7.4-44-14.8-66-22.3c-27.6-9.4-55.3-18.8-82.9-28.3
			c-2.8-1-6.1-1-8.4-3.3c-1.2-0.8-2-1.8-1-3.3c3.8-1.8,7.4,0,10.7,1.3c25,9.2,50.4,17.3,75.7,26c22.9,7.9,45.8,15.9,68.9,23.4
			c2.6,0.8,5.2,2,7.9,2C703.4,790.7,704.1,792.7,704.8,794.6z"/>
		<path class="st73" d="M524.8,1123.2c10-2.6,19.3-7,28.9-10.7c34.3-13.2,68.5-26.6,102.8-39.9c7.6-3,15.1-6.5,23-8.6
			c-3.3,3.6-6.7,7.1-11.1,9.4c-6.7,0.3-12.4,3.8-18.4,6.1c-34.3,13.1-68.4,26.5-102.6,39.8c-8.5,3.3-16.9,7.1-25.7,9.7
			C520.7,1126,522.5,1124.5,524.8,1123.2z"/>
		<path class="st74" d="M694.9,1045.9c-0.5-3.3-2.4-1.1-3.5-0.7c-14.3,5.5-28.6,11.1-42.9,16.6c-31.1,12.1-62.3,24.1-93.4,36.2
			c-7.5,2.9-15.1,5.8-22.6,8.7c-1.4-2.3-0.1-4,1.3-5.6c7.1-3.5,14.6-6,22-8.8c15.1-5.8,30.1-11.7,45.2-17.5
			c24.4-9.4,48.9-18.8,73.2-28.5c6.4-2.6,13-5,19.4-7.6c1.8-0.7,4.2-2.4,5.2,1.2C697.9,1042.1,696.6,1044.1,694.9,1045.9z"/>
		<path class="st26" d="M510.1,1050.3c-1.9,7.9-5.8,15-8.8,22.4c-13.3,32.5-26.9,64.8-40.2,97.3c-0.7,1.7-2.6,3.6-0.5,5.7
			c-1.4,1.4-3.2,0.8-4.8,1c-3.9-1-1.3-3.6-0.8-5c4.6-11.7,9.5-23.3,14.3-34.9c9.1-21.9,18.1-43.7,27.2-65.6
			c2.7-6.5,5.4-13.1,8.1-19.6c0.5-1.2,1.2-2.3,2.7-2.4C508.7,1048.6,509.9,1048.2,510.1,1050.3z"/>
		<path class="st75" d="M230.1,1092.2c1.4-1.1,1.2-2.6,1-4c-2.5-16.8-5.1-33.6-7.5-50.4c-2.1-14.8-4-29.6-6.1-44.3
			c-2.4-17-5.1-33.9-7.5-50.9c-0.7-5.2-1.2-10.5-2.1-15.7c-0.2-1.4-0.4-3,1.1-4c1.5,0.3,2.8,0.9,3.9,2c3.1,18,5.3,36.1,8,54.2
			c4.6,31,8.7,62.1,13.3,93.1c0.9,6.1,1.9,12.1,2.4,18.3c0.2,1.9,0.8,4.5-2.5,4.6C232.6,1094.3,231,1093.7,230.1,1092.2z"/>
		<path class="st76" d="M548.2,1047.4c8.1-1.7,15.5-5.4,23.2-8.3c33-12.7,65.9-25.5,98.8-38.4c14.4-5.6,28.8-11.4,43.3-17
			c1.8-0.7,3.7-1,5.6-1.5c-0.3,1.3-0.6,2.6-0.8,3.9c-2.3,2.5-5.5,3.4-8.5,4.5c-52,20.1-103.9,40.3-155.8,60.6c-2.2,0.9-4.5,2-7,1.1
			C546,1050.4,546.5,1048.7,548.2,1047.4z"/>
		<path class="st77" d="M150.8,853c-0.3-2,0.5-3.9,0.9-5.8c2.3-2.7,4.1-0.3,5.7,0.9c8.6,6.4,16.9,13.1,25.3,19.7
			c21.4,16.6,42.6,33.3,64,49.9c1.9,1.5,4.2,2.7,4.6,5.4c-0.6,2.4-1.8,4.4-4.4,5.1c-17.4-14.6-35.7-28.1-53.6-42.2
			C179.2,874.8,165.1,863.8,150.8,853z"/>
		<path class="st78" d="M706.3,1024.8c-1.3,1.9-0.8,4.6-2.7,6.2c-10.2,2.1-19.4,6.9-29.1,10.6c-43.7,16.8-87.3,34-130.9,50.9
			c-2.1,0.8-4.4,2.5-6.5-0.2c-0.4-2,0.2-3.6,1.9-4.8c37.6-14.5,75.1-29.2,112.6-43.8c16.4-6.4,32.9-12.8,49.3-19.1
			C702.6,1024,704.7,1022,706.3,1024.8z"/>
		<path class="st32" d="M555.8,816.1c12.7,3.1,24.9,7.8,37.3,12c30.1,10.1,60.2,20.4,90.2,30.7c12.2,4.2,24.4,8.4,36.6,12.7
			c0.9,1.2,1.4,2.4,1,3.9c-2.6,1.8-5,0.1-7.3-0.7c-39.1-13.5-78.4-26.7-117.5-40.1c-13-4.4-25.8-9.4-39.1-13
			c-0.8-0.4-1.3-0.9-1.7-1.7C554.7,818.6,554.7,817.2,555.8,816.1z"/>
		<path class="st79" d="M183.5,792.7c1.1-1.3,2.1-2.5,3.2-3.8c2.5-0.5,3.9,1.4,5.4,2.7c28.5,22.1,56.9,44.3,85.3,66.5
			c5,3.9,9.9,7.8,14.9,11.6c1.9,1.5,4,2.9,3.8,5.8c-0.5,1.8-1.5,3-3.5,3.2c-11.2-7.6-21.6-16.5-32.3-24.8
			c-24.4-18.9-48.7-38-73.1-56.9C185.7,795.8,183.9,794.9,183.5,792.7z"/>
		<path class="st80" d="M554,805.4c4.4-0.4,8.2,1.7,12.1,3c27.5,9.3,55,18.7,82.4,28.1c23.5,8,46.9,16.2,70.4,24.3
			c0.1,1,0.1,1.9,0.2,2.9c-2.6,2.3-5,0.3-7.2-0.5c-31.6-10.6-63.1-21.4-94.7-32.2c-20.9-7.1-41.8-14.1-62.6-21.4
			C553.6,808.4,552.6,807.1,554,805.4z"/>
		<path class="st81" d="M544.3,752.9c12.4,3.2,24.2,8,36.3,12c34.9,11.6,69.7,23.6,104.5,35.5c7.8,2.7,15.5,5.6,23.4,7.8
			c1.5,0.9,1.2,2.6,1.7,3.9c-2.5,2-4.9,0.8-7.3-0.1c-38.3-13.7-77-26.2-115.4-39.6c-12.9-4.5-26-8.7-38.9-13.3
			c-1.4-0.5-2.8-0.9-3.8-2C543.9,755.9,542.9,754.5,544.3,752.9z"/>
		<path class="st26" d="M258.4,1110.6c-0.1-12.4-2.9-24.5-4.4-36.8c-1.5-12.6-3.6-25.1-5.3-37.6c-2.1-14.6-4.1-29.2-6.2-43.8
			c-1.8-12.7-3.7-25.4-5.4-38.1c-0.8-6.2-2.6-12.2-2-18.5c1.7,0.3,3.3,0.7,5,1c0.3,0.5,0.4,1.1,0.4,1.7c0,8.9,2,17.6,3.2,26.4
			c2.8,20,5.5,40,8.4,59.9c3.2,21.5,6.2,43.1,9.3,64.7c0.9,6.4,2.1,12.8,2.6,19.2c0.1,1.6,1,3.6-1.7,4
			C260.7,1112.3,259.4,1111.8,258.4,1110.6z"/>
		<path class="st64" d="M216.8,926.8c1.5,0.2,2.8,0.9,3.9,1.9c2.3,17.9,5,35.7,7.6,53.6c2.7,19.1,5.5,38.2,8.2,57.4
			c2.4,17.5,4.9,35.1,7.4,52.6c0.4,3,1.3,6.1-1,8.8c-2-0.5-3.4-1.8-4.8-3.1c-7.4-55.1-15.5-110.2-23.3-165.3
			C214.4,930.5,213.3,927.7,216.8,926.8z"/>
		<path class="st82" d="M350.6,657.5c7.6,7.2,16.2,13.1,24.4,19.6c20.1,15.8,40.2,31.6,60.4,47.2c10.3,8,20.7,15.8,31,23.7
			c0.1,2-1.7,2-2.9,2.6c-3,0.8-4.9-1.4-6.9-2.9c-19.1-14.4-37.5-29.8-56.5-44.4c-16.9-13-33.8-26.1-50.5-39.4
			c-1.4-1.1-3.5-1.9-2.9-4.5C347.8,658.4,349.2,657.9,350.6,657.5z"/>
		<path class="st83" d="M488.8,1164.9c-0.6-3.4,1.1-6.3,2.3-9.2c13.2-32,26.5-63.9,39.8-95.9c0.1-0.3,0.4-0.5,0.6-0.7
			c2.1-1.2,3.4-0.1,4.6,1.6c0.8,2.3-0.2,4.5-1.1,6.5c-12.5,29.7-24.5,59.7-37.1,89.3c-0.1,0.3-0.2,0.6-0.3,0.9c-0.8,1.7-3.4,2-3,4.5
			C492.7,1163,490.7,1163.9,488.8,1164.9z"/>
		<path class="st84" d="M711.3,817c-0.5,2.8-2.4,2-4.1,1.4c-27.3-9.3-54.7-18.6-82-27.9c-25.5-8.7-51-17.3-76.6-25.9
			c-0.4-0.2-1-0.1-1.4-0.1c-1.3-0.8-1.8-1.9-1.2-3.3c2-2.2,4.2-0.9,6.3-0.3c20.1,6.6,40.1,13.5,60.1,20.3
			c31.7,10.7,63.3,21.7,95,32.3c1.1,0.4,2.1,0.8,3,1.5C711.4,815.5,711.4,816.2,711.3,817z"/>
		<path class="st85" d="M698.8,1039.8c-0.9-1.3-2.1-1.3-3.4-0.8c-13.4,5.4-26.8,10.9-40.3,16.1c-15.5,5.9-31,11.9-46.5,17.9
			c-15.3,5.9-30.6,11.7-45.7,18c-9.4,3.9-18.9,7.2-28.4,10.8c-1.2-1.6-0.3-2.9,0.6-4.3c8.4-4.9,17.8-7.6,26.8-11.1
			c24-9.4,47.9-18.7,71.9-28c20.8-8,41.6-16.2,62.5-24.2c1.7-0.7,3.6-1.8,5.5-0.3C700.8,1035.9,699.8,1037.8,698.8,1039.8z"/>
		<path class="st74" d="M532.8,717.1c26.9,9,53.8,18,80.7,27.1c25.2,8.5,50.4,17.2,75.6,25.8c1.8,0.6,3.7,1,5.6,1.4
			c0.6,1.3,1.3,2.6,1.9,3.9c-2,1.7-4,0.4-6-0.2c-45-14.5-89.5-30.1-134.3-45.2c-7.2-2.4-14.3-5-21.6-7.3c-1.7-1.1-2.7-2.4-2.3-4.6
			C532.6,717.7,532.7,717.4,532.8,717.1z"/>
		<path class="st27" d="M216.8,926.8c-1.5,1-1.3,2.6-1.1,4c2.5,16.8,5.1,33.7,7.5,50.5c2.4,17,4.6,34.1,7,51.1
			c2.4,17.3,5.3,34.6,7.4,52c0.5,4.4,3.1,9,0.3,13.6c-1.5-0.7-3-1.4-4-2.9c1.5-0.6,1.5-1.6,1.3-3.1c-1.8-13-3.5-26-5.3-39.1
			c-1.8-13.2-3.7-26.3-5.6-39.5c-2.1-14.7-4.3-29.5-6.5-44.2c-2-14-4.1-27.9-6.1-41.9c-0.2-1,0.1-1.9,1.1-2.5
			C214.4,925.1,215.7,925.7,216.8,926.8z"/>
		<path class="st86" d="M699.6,781.1c1.2,1.8,2.2,3.6,1.8,5.8c-1.8,1.3-3.4,0.3-5-0.3c-26.3-9-52.7-17.9-79.1-27
			c-25.1-8.6-50.3-17-75.4-25.7c-1.4-0.5-2.8-0.9-4-1.7c-1.2-0.9-1.5-2.1-1-3.5c1.6-2.3,3.7-1.5,5.7-0.8c17.4,6.2,35,11.7,52.3,17.9
			c6.9,2.4,13.8,4.7,20.7,7c23.9,8.2,47.8,16.1,71.6,24.5C691.2,778.8,695.4,780.2,699.6,781.1z"/>
		<path class="st87" d="M154.6,837.5c6.5,2.1,11,7.2,16.2,11.1c15.7,11.9,31.2,24.3,46.8,36.4c12.7,9.9,25.3,19.8,38,29.6
			c0.4,0.3,0.9,0.5,1.3,0.7c0.6,2.6-0.9,3.6-3,4.2c-6.2-2.2-10.6-7.3-15.6-11.2c-20.2-15.8-40.6-31.4-60.7-47.3
			c-7-5.5-14-10.9-21-16.4c-1.2-1-2.8-1.8-3.3-3.4C153.6,840,154.1,838.8,154.6,837.5z"/>
		<path class="st88" d="M537.9,731.7c13.3,3.2,26,8.5,39,12.9c38.7,13,77.3,26.2,115.9,39.3c2.9,1,5.8,2,8.7,3
			c0.4,0.6,0.8,1.2,1.2,1.8c-1.5,2-3.2,0.9-4.8,0.3c-19.7-6.7-39.5-13.2-59.1-20.2c-20.5-7.3-41.3-13.8-62-20.7
			c-10.7-3.6-21.4-7.3-32-11c-1.7-0.6-3.5-0.7-5.2-0.7C537.6,735.3,537.1,733.7,537.9,731.7z"/>
		<path class="st89" d="M183.5,792.7c30.4,23.7,60.7,47.4,91.1,71.1c6.1,4.7,12.7,8.7,17.9,14.5c0.3,2.3-1,3-2.9,3.2
			c-13.2-9.6-25.9-19.9-38.7-30c-22.3-17.4-44.8-34.6-66.9-52.3c-1.2-1-2.8-1.7-3.1-3.6C181.3,794.4,182.3,793.5,183.5,792.7z"/>
		<path class="st90" d="M556.8,821c4.4-0.4,8.2,1.6,12.1,3c28.5,9.7,57.1,19.4,85.6,29.1c20.3,6.9,40.5,14,60.8,20.9
			c1.8,0.6,3.7,0.9,5.6,1.4c0.1,0.9,0.1,1.9,0.2,2.9l-0.2,0.1c-2.8,2-5.3,0.3-7.8-0.6c-39-12.9-77.8-26.5-116.7-39.6
			c-12-4-23.8-8.3-35.8-12.3C558.5,825.2,554.8,825.1,556.8,821z"/>
		<path class="st91" d="M153.2,841.3c7.5,4.4,13.9,10.3,20.9,15.5c8.9,6.6,17.4,13.8,26.1,20.6c12.4,9.7,24.8,19.3,37.2,29
			c5.4,4.2,10.8,8.6,16.2,12.8c0.1,2.1-0.2,3.9-3,3.6c-7.8-7.5-16.7-13.5-25.2-20.1c-18.8-14.8-37.6-29.6-56.5-44.3
			c-4.4-3.5-8.9-6.9-13.3-10.3c-1.1-0.9-2.4-1.8-3.9-0.8C151.9,845.1,152.2,843.1,153.2,841.3z"/>
		<path class="st92" d="M150.8,853c4.4,0,6.8,3.6,9.8,5.9c19.4,14.7,38.3,30,57.7,44.8c9,6.9,17.9,14,26.8,21.1
			c0.9,0.7,1.6,1.6,1.6,2.8c0.7,2.4-0.8,3.1-2.7,3.4c-0.8-2.9-3.4-4.2-5.5-5.8c-19.6-15.3-39.3-30.5-59-45.8
			c-8.4-6.5-16.6-13.2-24.9-19.8c-1.1-0.9-2.6-1.2-3.9-1.8C150.7,856.3,150.8,854.6,150.8,853z"/>
		<path class="st93" d="M295.4,875.5c-0.2-2.4-2-3.6-3.6-4.8c-21.6-16.8-43.1-33.6-64.7-50.4c-13.5-10.5-27-20.9-40.4-31.3
			c0.6-1.3,1.5-2.3,2.8-3c26.9,20.9,53.8,41.8,80.7,62.8c9.7,7.6,19.2,15.6,29.3,22.8C299.3,874.1,298,875.5,295.4,875.5z"/>
		<path class="st94" d="M706.3,1024.8c-6.3,0.1-11.5,3.5-17.1,5.7c-49,18.9-97.9,38.1-146.8,57.1c-1,0.4-2.2,0.4-3.3,0.6
			c-0.5-0.7-0.5-1.4-0.3-2.2c1.2-2.2,3.4-2.9,5.5-3.7c31.9-12.5,63.9-24.9,95.8-37.3c20.5-8,40.9-16.1,61.5-23.9
			c1.9-0.7,3.8-1.9,6-1.4c0.2,0.2,0.4,0.3,0.6,0.5C708.1,1021.9,707.8,1023.6,706.3,1024.8z"/>
		<path class="st95" d="M516.8,685c1.1,1.9,2.2,3.8,3.3,5.8c0.2,0.7,0.5,1.3,0.7,2c-6.6-1.9-11-7.1-16.2-11
			c-15.9-12-31.5-24.3-47.1-36.8c-3.1-2.5-7.5-4-8.6-8.6c5.6,1.4,11.6,1.5,16.7,4.8c3.2,4.1,7.6,6.7,11.7,9.8
			c10.9,8.5,21.4,17.4,32.8,25.3C512.3,679.1,514.6,682,516.8,685z"/>
		<path class="st96" d="M176.8,800.6c0.6-0.7,1.2-1.4,1.7-2c2.6-1.6,4.3,0.2,6,1.6c18.2,14.5,36.8,28.6,55.1,43
			c14.2,11.2,28.6,22.3,42.8,33.4c2.3,1.8,5.6,3,5.8,6.7c-0.5,1.8-1.5,3.1-3.6,3.1c-3.9-3.9-8.6-6.8-12.8-10.3
			c-17.6-14.2-35.8-27.6-53.5-41.7c-12.4-9.9-25-19.4-37.4-29.2C179.3,803.9,177.3,802.9,176.8,800.6z"/>
		<path class="st97" d="M225.4,931.7c-1.2,5.5,0.7,10.8,1.3,16.1c1.9,15.1,4.2,30.1,6.4,45.2c2.2,15.1,4.3,30.1,6.5,45.2
			c1.7,12.2,3.6,24.4,5.2,36.7c1.3,10,3.4,19.9,3.9,30c-1.4,0-2.3-0.7-2.9-1.9c-3-3.9-2-8.7-2.7-13.1c-2.1-13.3-4.2-26.6-5.8-40
			c-2.1-17.4-4.8-34.6-7.2-52c-2.4-17-4.6-34-7.4-50.9c-0.7-4.4-1-8.9-1.9-13.3c-0.3-1.7-0.1-3.2,1.8-4
			C223.5,930.3,224.5,931,225.4,931.7z"/>
		<path class="st82" d="M346.8,659.5c5.5,6.2,12.5,10.5,18.8,15.6c11.3,9.3,23.2,17.8,34.7,26.8c16.3,12.8,32.6,25.7,48.8,38.5
			c3.4,2.7,6.9,5.3,10.3,8c1.2,1,2.3,1.8,3.9,1.6c0,2.7-1.6,2.7-3.6,2c-6.1-3-10.8-7.9-16.2-11.9c-14.4-11-28.5-22.4-42.8-33.6
			c-18.2-14.2-36.5-28.4-54.8-42.6c-1-0.8-1.9-1.7-2-3.2C344.9,660.3,345.8,659.9,346.8,659.5z"/>
		<path class="st98" d="M710.4,815.1c-8.9-1.1-17-4.9-25.4-7.7c-14-4.5-27.8-9.4-41.7-14.1c-30.5-10.4-61.1-20.8-91.6-31.2
			c-1.7-0.6-3.5-2-5.5-0.4c-1.5-1.4-2.4-2.9-1-4.9c20.9,7.1,41.8,14.3,62.7,21.4c30.4,10.4,60.7,20.7,91.1,31.1
			c3.6,1.2,7,3.4,11.1,2.9C710.3,813.2,710.4,814.1,710.4,815.1z"/>
		<path class="st99" d="M176.8,800.6c10.5,8.1,21,16.2,31.5,24.3c13.4,10.4,26.5,21.1,40.1,31.2c11.6,8.7,22.2,18.7,34.5,26.5
			c1.1,0.7,1.5,2,1.6,3.4c0.6,1.7-0.5,2.1-1.8,2.4c-13.7-10.2-27-20.9-40.5-31.3c-21.8-17-43.7-34-65.5-51.1
			c-0.9-0.7-1.9-1.3-2.2-2.5C175.4,802.5,176.1,801.5,176.8,800.6z"/>
		<path class="st100" d="M262.1,1112.7c2.2-2.9,0.2-5.9-0.1-8.7c-2.3-17.8-4.9-35.6-7.5-53.3c-2.5-17-5.1-33.9-7.6-50.9
			c-2.1-14.9-4-29.9-6-44.8c-0.5-3.3-1.1-6.6-1.6-10c-0.3-2.5-1.2-5.1,0.7-7.4c0.8,0,1.5,0.3,1.9,1c0,0.3,0,0.6,0,0.9
			c2.5,15.7,4.5,31.5,6.8,47.3c2.2,15.1,4.2,30.3,6.4,45.4c2.1,14.6,4.2,29.3,6.2,43.9c1.4,10.2,2.8,20.4,4.5,30.5
			c0.3,1.8,0.5,3.5,0.2,5.3c-0.3,1.4-1,2.4-2.7,1.5C262.9,1113.2,262.5,1112.9,262.1,1112.7z"/>
		<path class="st101" d="M487.8,736.6c-4.4-6.4-11.3-10-17.2-14.7c-21.7-17.2-43.7-34.1-65.5-51.1c-9.7-7.5-19.2-15.1-28.9-22.7
			c-0.7-0.5-1.1-1.1-1.2-2c1.2-0.8,2.4-1.2,3.8-1.3c36.3,28.7,73,56.8,109.3,85.5c1.5,1.2,3.2,2.2,3.8,4.2
			C491.2,736.7,489.7,737,487.8,736.6z"/>
		<path class="st98" d="M711.7,1010.6c-0.2,1.4-0.1,2.9-1.2,4.1c-6.2,0.6-11.7,3.7-17.4,5.9c-48.6,18.9-97.2,37.7-145.7,56.6
			c-1.8,0.7-3.6,1.7-5.5,0.4c-0.7-1.3-0.5-2.5,0.7-3.5c20-8.2,40.3-15.8,60.4-23.7c29.9-11.7,59.9-23.3,89.8-35
			c4.4-1.7,8.8-3.3,13.1-5C707.8,1009.6,709.9,1008.7,711.7,1010.6z"/>
		<path class="st102" d="M542.2,1077.5c15.2-5.8,30.4-11.6,45.6-17.4c31-12,61.9-24,92.8-36c8.3-3.2,16.5-6.4,24.7-9.7
			c1.8-0.7,3.5-2,5.2,0.3c0.1,0.3,0,0.5-0.2,0.7c-3.4,3.3-8,4.2-12.2,5.8c-34.2,13.2-68.4,26.6-102.6,39.9
			c-16,6.2-31.9,12.4-47.9,18.6c-2.1,0.8-4.3,1.6-6.5,0C540.7,1078.6,540.5,1077.6,542.2,1077.5z"/>
		<path class="st84" d="M711.7,1010.6c-6.2-0.2-11.4,3.3-16.9,5.4c-43.6,16.8-87,33.9-130.5,50.8c-7,2.7-13.9,5.9-21.3,7.8
			c-0.6-0.6-0.8-1.3-0.8-2.1c0.1-0.8,0.3-1.5,1-2c14-4.1,27.2-10.1,40.8-15.3c40.8-15.7,81.6-31.7,122.4-47.5c2.1-0.8,4.7-2.7,6,1.2
			C712.2,1009.4,712,1010,711.7,1010.6z"/>
		<path class="st103" d="M544.2,1066.9c8.5-1.4,16-5.4,24-8.3c14.8-5.5,29.5-11.4,44.3-17.2c14.9-5.8,29.6-11.9,44.5-17.7
			c14.5-5.6,29-11.2,43.5-16.5c4.5-1.7,8.5-5.2,13.7-4.4c0,1.1,0,2.2-0.9,3c-15.3,4.9-29.9,11.2-44.8,17
			c-39.9,15.5-79.8,31-119.8,46.5c-1.6,0.6-3.2,1.8-5,0.4C543.3,1068.7,543.3,1067.7,544.2,1066.9z"/>
		<path class="st104" d="M537.5,1092.1c1.8,1.5,3.3,0.1,4.9-0.6c39.9-15.6,79.9-31.2,119.8-46.8c11.7-4.6,23.4-9.2,35.2-13.6
			c1.9-0.7,4.1-2.6,6.2-0.2c-0.3,0.6-0.7,1.3-1,1.9c-9.1,2.3-17.6,6.3-26.3,9.7c-36.1,14-72.3,28-108.4,42.2
			c-9.6,3.8-19.3,7.6-29,11.2c-0.9,0.3-1.7,0.9-2.7,0.3C535.4,1094.4,535.9,1093.1,537.5,1092.1z"/>
		<path class="st101" d="M491.8,734.5c-21.4-16.7-42.8-33.4-64.3-50.1c-15.5-12.1-30.8-24.2-46.3-36.2c-1.2-0.9-2.4-1.7-2.4-3.3
			c1.1-1,2.4-1.6,3.9-1.7c-1.1,1.7-0.5,2.7,1.1,3.9c21,16.2,41.9,32.5,62.8,48.9c14.8,11.6,29.6,23.2,44.4,34.8
			c1,0.8,1.5,1.6,1.6,2.8C492.9,734.3,492.5,734.6,491.8,734.5z"/>
		<path class="st105" d="M555,809.3c11.3,2.8,22.1,7,33.1,10.6c12.9,4.2,25.7,8.7,38.5,13.1c28.7,9.8,57.4,19.6,86.1,29.4
			c2.1,0.7,4.2,1.7,6.6,1.3c1.2,0.7,0.8,1.9,0.8,2.9c-8.5-1.8-16.6-5.1-24.9-7.9c-28.4-9.6-56.8-19.3-85.2-29
			c-16.9-5.8-33.9-11.5-50.8-17.4c-1.5-0.5-2.8-0.4-4.2-0.1C554,811.3,554,810.3,555,809.3z"/>
		<path class="st106" d="M303.1,868.4c-2.6-4.5-7.1-6.9-11-10c-15.6-12.4-31.3-24.5-47.1-36.7c-13.8-10.7-27.6-21.5-41.6-32
			c-3.4-2.6-6-6.4-10.3-7.7c0.6-0.7,1.3-1.3,1.9-2c7.9,4.9,14.9,11.2,22.2,16.9c27.7,21.4,55.4,43,82.9,64.6
			c1.8,1.4,4.2,2.5,4.8,5.1C305.2,868.1,304.8,869,303.1,868.4z"/>
		<path class="st85" d="M699.6,781.1c-1.6,1.8-3.2,0.7-4.9,0.1c-46.9-15.9-93.9-31.9-140.8-47.8c-4-1.4-7.9-2.9-11.8-4.3
			c-1.7-0.6-3.3-1.4-5.1-0.4c-1.4-0.5-1.3-1.4-0.6-2.4c0.9-0.6,2-0.7,3-0.6c12.5,3.8,24.8,8.4,37.3,12.3c14.5,4.5,29,9,43.3,14.2
			c16,5.8,32.2,10.6,48.1,16.5c0.8,0.3,1.6,0.4,2.4,0.4c6,0.6,11.5,3.2,17.1,5.1c3.3,1.1,6.5,2.8,10.2,2.7
			C698.9,778.1,699.4,779.6,699.6,781.1z"/>
		<path class="st107" d="M541.3,1079.5c8.2-0.6,15.3-4.8,22.8-7.7c32.8-12.5,65.6-25.4,98.4-38.1c15.9-6.2,31.9-12.3,47.8-18.4
			c-0.2,1.8-0.7,3.5-1.9,4.9l-0.1-0.1c-4.8-0.9-8.7,2.1-12.7,3.7c-48,18.7-95.9,37.3-144,55.9c-2.4,0.9-4.8,1.9-7.2,2.8
			c-1.4,0.5-2.8,0.9-3.7-0.9C540.5,1080.8,540.7,1080,541.3,1079.5z"/>
		<path class="st108" d="M717.1,991.1c-11.2,2.6-21.5,7.7-32.2,11.8c-34.2,13.1-68.3,26.4-102.3,39.7c-12.2,4.7-24.2,9.7-36.3,14.6
			c-1.2-1.2-0.9-2.3,0.2-3.4c27.9-10.8,55.7-21.7,83.6-32.5c27.1-10.5,54.2-21.1,81.3-31.6c1.9-0.7,3.7-2,5.9-1.5
			C717.2,989.1,717.2,990.1,717.1,991.1z"/>
		<path class="st109" d="M287.5,883c-5-6.4-12.1-10.4-18.3-15.3c-20-15.9-40.2-31.5-60.4-47.3c-8.9-6.9-17.8-13.8-26.6-20.8
			c-1.1-0.9-2.3-1-3.6-1.1c0.7-0.9,1.5-1.9,2.2-2.8c18.1,14.1,36.3,28.2,54.4,42.3c16.7,13,33.4,26.1,50.2,39.1
			c1.5,1.2,3.1,2.3,4.1,4C289.8,882.8,289.2,883.5,287.5,883z"/>
		<path class="st97" d="M222.5,929.6c-2.4,3.5-0.3,7,0.2,10.3c3.3,24.8,6.9,49.6,10.5,74.3c3.1,21.7,6.4,43.5,9.5,65.2
			c1.1,7.8,2,15.6,3,23.4c-1.3-0.1-2.3-0.7-2.9-1.9c0.4-9.9-2.2-19.5-3.3-29.2c-1.6-12.9-3.5-25.8-5.4-38.6
			c-2.1-14.6-4.1-29.2-6.2-43.9c-1.8-12.6-3.6-25.1-5.5-37.6c-0.9-5.9-1.8-11.7-2.6-17.6c-0.3-1.9-1-3.8,0.8-5.4
			C221.3,929,221.9,929.3,222.5,929.6z"/>
		<path class="st100" d="M263.3,1113.5c3.2-0.8,2-3.5,1.8-5.2c-2-14.6-4.2-29.2-6.4-43.8c-1.8-12.2-3.5-24.4-5.2-36.7
			c-2.2-15.4-4.4-30.8-6.5-46.2c-1.9-13.8-3.8-27.6-5.7-41.4c0-0.2,0.4-0.5,0.6-0.7c3.3,6,2.7,12.8,3.8,19.2
			c2.9,17.9,5.2,35.9,7.7,53.8c2.4,17,4.6,34,7,51c2.1,14.8,4.4,29.5,6.6,44.3c0.4,2.5,0.1,5.2,0.2,7.7
			C265.6,1115.4,264.3,1114.6,263.3,1113.5z"/>
		<path class="st108" d="M717.3,988.2c-34.4,13.4-68.7,26.9-103.1,40.2c-22.4,8.7-44.8,17.2-67.2,25.8c-0.5-0.7-0.4-1.4,0.2-1.9
			c34.6-13.4,69.1-26.8,103.7-40.2c22.4-8.7,44.8-17.3,67.2-25.9C718.2,987,718.2,987.8,717.3,988.2z"/>
		<path class="st110" d="M174.7,803.4c7.6,4.6,14.2,10.6,21.2,15.9c15.8,12,31.2,24.4,46.8,36.6c12.6,9.8,25.1,19.6,37.7,29.4
			c0.9,0.7,1.5,1.7,2.2,2.6c0.4,1.7-0.3,2.3-1.9,1.9c-1.9-5.1-7-6.9-10.8-9.9c-30.2-23.9-60.7-47.5-91.2-71.1
			c-1.8-1.4-3.4-3-5.7-3.4C173.6,804.8,174.2,804.1,174.7,803.4z"/>
		<path class="st36" d="M544.1,1069.7c9.1-2.3,17.5-6.3,26.2-9.7c32.6-12.6,65.2-25.3,97.8-37.9c14-5.4,27.9-10.9,41.9-16.3
			c1.1-0.4,2.2-1.7,3.3,0c0,1.1,0,2.2-0.9,3c-1.4-2-3-1.1-4.7-0.4c-44.6,17.4-89.1,34.8-133.7,52.2c-8.6,3.3-17.1,6.7-25.7,9.9
			c-1.6,0.6-3.3,1.6-5,0.2C543,1069.9,543.3,1069.6,544.1,1069.7z"/>
		<path class="st111" d="M697.8,777c-1.4,2-3,1.1-4.7,0.5c-5.8-2.1-11.7-4.1-17.6-6.1c-1.7-0.6-3.3-1.1-5.1-0.9
			c-10.9-5.1-22.5-8-33.8-12c-30.6-10.9-61.6-20.6-92.3-31.2c-3.1-1.1-6.2-1.8-9.3-2.7c-1-0.7-1.5-1.5-0.6-2.6
			c5.9,0.4,11.2,3,16.7,4.8c28.9,9.7,57.9,19.2,86.6,29.6c17.8,6.4,36.1,11.1,53.7,17.8c1.6,0.6,3.4,0.9,5.1,1.3
			C697,775.8,697.4,776.4,697.8,777z"/>
		<path class="st112" d="M510.1,676.2c-6.1-1-9.7-6-14.3-9.3c-9.2-6.7-18.1-13.8-26.9-20.9c-1.4-1.2-4-2.1-3.3-4.9
			c5.4,2.5,11.6,3.2,16.4,7c0.6,1.6,2.1,2.3,3.4,3.3C494.9,658.4,503.3,666.5,510.1,676.2z"/>
		<path class="st104" d="M536.4,1096c19.8-7.7,39.7-15.3,59.5-23c31.3-12.1,62.5-24.2,93.8-36.4c2.7-1.1,5.3-2.4,8.1-3.3
			c1.5-0.5,3-2.2,4.8-0.5c-0.3,0.3-0.5,0.7-0.8,1c-13.9,4.3-27.1,10.1-40.6,15.3c-32.7,12.6-65.4,25.4-98.2,38.1
			c-9.1,3.6-18.3,7.1-27.4,10.7C534.9,1096.9,535.5,1096.4,536.4,1096z"/>
		<path class="st3" d="M721.9,891.9c0.1-0.4,0.1-0.7,0.2-1.1c1.3,2.8,0.7,5.9,0.8,8.8C721.1,897.2,722.4,894.4,721.9,891.9z"/>
		<path class="st31" d="M442.2,635.3c-2-0.2-4.1,0.7-5.9-0.8C438.3,634.5,440.4,634,442.2,635.3z"/>
		<path class="st113" d="M582.3,892.1c2.3-0.1,3.5-0.5,4.8,0.4C585.6,893.1,584.3,893.2,582.3,892.1z"/>
		<path class="st113" d="M639.2,896.9c-2.1,1.2-3.4,0.7-5.5,0.7C635.8,896.4,637.1,896.9,639.2,896.9z"/>
		<path class="st113" d="M669.7,900.2c-1.5,0.6-2.8,0.7-4.3-0.1C666.9,899.5,668.2,899.4,669.7,900.2z"/>
		<path class="st113" d="M700.6,903.4c-1.2,0-2.4,0-3.9,0C698,902.1,699.2,902.8,700.6,903.4z"/>
		<path class="st83" d="M562.3,890.5c1.4-0.8,2.3-0.5,3.6-0.3C564.7,891.2,563.7,891.1,562.3,890.5z"/>
		<path class="st114" d="M576.4,891.5c-1,0.6-2,0.6-3.3,0C574.3,890.8,575.3,890.7,576.4,891.5z"/>
		<path class="st83" d="M596.8,893.4c-1,0.7-2,0.6-3.3,0C594.7,892.7,595.7,892.7,596.8,893.4z"/>
		<path class="st114" d="M607.1,894.8c-0.9-0.1-2.4-0.1-2.5-0.3c-0.2-1.2,0.9-0.5,1.4-0.6c0.4-0.1,0.8,0.2,1.2,0.3
			C607.3,894.4,607.2,894.6,607.1,894.8z"/>
		<path class="st114" d="M616.9,895.8c-0.9-0.1-2.4-0.1-2.5-0.3c-0.2-1.2,0.9-0.5,1.4-0.6c0.4-0.1,0.8,0.2,1.2,0.3
			C617,895.4,616.9,895.6,616.9,895.8z"/>
		<path class="st83" d="M624.5,896.4c1.4-0.8,2.3-0.5,3.6-0.3C626.9,897,625.9,896.9,624.5,896.4z"/>
		<path class="st114" d="M648.1,898.1c-1.1,0.8-2,0.7-3,0.2C646.2,897.4,647.2,897.9,648.1,898.1z"/>
		<path class="st83" d="M659,899.2c-1,0.7-2,0.6-3.3,0C656.9,898.5,657.9,898.5,659,899.2z"/>
		<path class="st114" d="M679.5,901.1c-1.4,0.8-2.3,0.5-3.6,0.3C677.2,900.4,678.2,900.6,679.5,901.1z"/>
		<path class="st83" d="M690.3,902.1c-1.5,0.6-2.5,0.7-3.5,0C687.8,901.4,688.8,901.5,690.3,902.1z"/>
		<path class="st114" d="M717.7,905.3c1.2-1.1,2.2-0.5,4.1-0.7C720,905.8,719,905.5,717.7,905.3z"/>
		<path class="st83" d="M707.6,903.6c0.9,0.1,2.4,0.1,2.5,0.3c0.2,1.2-0.9,0.5-1.4,0.6c-0.4,0.1-0.8-0.2-1.2-0.3
			C707.4,904,707.5,903.8,707.6,903.6z"/>
		<path class="st115" d="M535.5,1060.8c1.8,0.3,3.5,0.8,4.8,2c1,1.6,0.3,3.1-0.3,4.6c-10.9,26.7-22.2,53.3-33.1,80.1
			c-0.4,1-1,2-1.7,2.9c-2,3-4.6,5.2-7.6,7.1c-0.7-5.5,2.7-9.7,4.6-14.3c9.6-23.9,19.6-47.7,29.4-71.5
			C533.1,1068.1,535.3,1064.8,535.5,1060.8z"/>
		<path class="st116" d="M505.3,1150.4c2.3-9.8,6.9-18.6,10.6-27.8c8-20,16.3-39.8,24.4-59.8c1.5,1.3,3.1,1.5,4.7,0.1
			c0.3,1.4-0.3,2.7-0.8,3.9c0,1-0.1,1.9-0.1,2.9c-0.3,0.3-0.6,0.7-0.8,1c0,0.6-0.1,1.3-0.1,1.9c-2.5,2.1-2.9,5.4-4,8.2
			c-7.6,18.7-15.8,37.2-23.1,56.1C513,1141.9,509.6,1146.5,505.3,1150.4z"/>
		<path class="st117" d="M516,1136.9c-0.5-5.8,2.8-10.5,4.8-15.4c6-14.9,12.3-29.6,18.5-44.5c0.8-1.9,1.1-4.2,3.8-4.4
			c0,0.6,0,1.3-0.1,1.9c-1,0.8-0.8,1.9-0.9,3c-0.8,0.4-0.9,1.1-0.9,2c0,0.6-0.1,1.2-0.1,1.9c-0.1,1.8-0.7,3.5-1.8,4.9
			c-0.1,0.6-0.1,1.3-0.2,1.9c-0.6,1.3-1.1,2.6-1.7,3.9c-0.3,1.3-0.7,2.6-1,3.9c-0.3,0.6-0.6,1.3-0.9,2c-0.4,1.3-0.7,2.6-1.1,3.9
			c-1.2,1.4-1.6,3.1-1.9,4.9c-0.8,1.5-1.9,3-2,4.9c-0.9,1.9-1.9,3.9-2.8,5.8c-1,1.9-2,3.9-2.9,5.8c-1,1.9-2.1,3.9-3.1,5.8
			C519.8,1131.7,517.9,1134.3,516,1136.9z"/>
		<path class="st118" d="M556.9,828.7c-0.3-2.9-0.6-5.8-0.9-8.7c0.3,0.3,0.5,0.6,0.8,0.9c-0.5,3.2,2.2,3.2,4,3.8
			c22.6,7.7,45.3,15.3,67.9,23c28.6,9.7,57.1,19.5,85.7,29.2c2.1,0.7,4.2,1.6,6.6,1.5c0.6,4.3-0.8,5.4-5.1,3.9
			c-38.4-13.1-77-26-115.4-39.2C586,838.2,571.7,832.9,556.9,828.7z"/>
		<path class="st119" d="M539.4,1086.3c0.4-1.7,0.6-3.5,1.8-4.9c3.1,1.7,5.5-0.6,8-1.6c37.3-14.4,74.5-29,111.7-43.6
			c13.6-5.3,27.1-10.7,40.8-15.8c1.9-0.7,4.3-3.1,6.6-0.3c-21.1,8.1-42.1,16.3-63.2,24.4c-30.8,11.9-61.7,23.9-92.5,35.9
			C548.1,1082.2,543.4,1083.5,539.4,1086.3z"/>
		<path class="st120" d="M535.5,724.8c-0.1-0.3-0.3-0.6-0.4-0.9c6.8,0.2,12.7,3.3,18.9,5.4c18.6,6.2,37.2,12.5,55.8,18.9
			c19.5,6.7,39,13.4,58.5,20.1c1.1,0.4,2.1,0.7,2.2,2.2c-11.3-3.7-22.7-7.4-34-11.2c-17-5.7-33.9-11.5-50.9-17.2
			c-15.4-5.2-30.9-10.2-46.3-15.3C538.2,725.7,536.1,726.7,535.5,724.8z"/>
		<path class="st121" d="M535.5,724.8c1.2,0.6,2.5,1.3,3.7,1.9c-1,0-2,0-2.9,0C535.7,726.2,535.5,725.6,535.5,724.8z"/>
	</g>
</g>
<g>
	<g>
		<path d="M1273,857.1c-10.6,0-20.7,0-31.4,0c0-1.5,0-3,0-4.5c0-28.8,0.1-57.5-0.2-86.3c-0.1-6.9-1.2-13.8-2.9-20.5
			c-3.1-12.1-10.3-21.1-23.2-23.7c-13.7-2.8-26.2-0.2-36,10.5c-9.6,10.5-12.8,23.6-12.9,37.4c-0.2,18.9,0,37.8,0,56.6
			c0,10,0,20,0,30.4c-10.4,0-20.6,0-31.5,0c0-1.4,0-2.9,0-4.3c0-29.6,0.1-59.1-0.1-88.6c0-5.2-0.4-10.6-1.4-15.7
			c-4.4-23.5-26.2-34.3-47.8-23.6c-13.9,7-20.5,19.4-23.3,33.9c-1.1,5.5-1.4,11.2-1.5,16.8c-0.2,25.6-0.1,51.1-0.1,76.7
			c0,1.5,0,3.1,0,4.8c-10.4,0-20.5,0-31.5,0c0-52.5,0-104.9,0-157.6c9,0,18.5,0,28.7,0c0.5,8.4,1,16.8,1.5,26.4
			c11.6-20.5,28.5-30.8,50.9-31c22.8-0.2,39.4,10,49.3,31.1c0.7-1,1.3-1.6,1.7-2.3c14.1-22.1,34.8-30.9,60.3-28.4
			c32.3,3.1,47.3,26.1,50.4,52.8c0.5,4.4,0.6,9,0.6,13.5c0.1,30.2,0,60.4,0,90.6C1273,853.6,1273,855.1,1273,857.1z"/>
		<path d="M1424.5,759c2.8-19.4-8.8-35-28.3-38c-19.8-3.1-37.4,2.2-52.8,14.9c-0.9,0.7-1.7,1.5-3,2.5c-5.5-6.6-10.9-13-16.8-20.1
			c3.8-2.9,7.2-6,11.1-8.3c24.6-15.1,51.1-19.1,78.9-11.8c24.2,6.3,39.7,26.2,40.8,52c0.7,16.7,0.2,33.4,0.4,50.1
			c0.2,18.8,0.6,37.7,0.9,57.1c-3,0-6.9,0-10.8,0c-3.7,0-7.5-0.4-11.2,0.1c-4.5,0.6-5.8-1.5-6.2-5.4c-0.5-5.7-1.3-11.3-2.9-17.7
			c-0.2,0.6-0.4,1.3-0.7,1.8c-14.6,20.1-35.1,26.6-58.9,24.9c-10.8-0.8-20.8-4-30.2-9.5c-26.6-15.7-28.6-60.4,0.5-77
			c12.7-7.2,26.3-11,40.6-12.5c14.9-1.5,30-1.9,45-2.8C1422.3,759.1,1423.5,759.1,1424.5,759z M1424.7,781.2
			c-13.4,0.8-26.2,1.2-39,2.5c-9.6,0.9-19,3.3-27.4,8.4c-8.4,5.2-12.6,12.7-11.6,22.7c1,9.7,6.6,16.2,15.7,19.1
			c16.8,5.3,33,4.1,47.1-7.3C1423.6,815.2,1425.6,799.1,1424.7,781.2z"/>
		<path d="M806.8,828.1c35.6,0,70.5,0,105.5,0c0,9.8,0,19.2,0,28.9c-46,0-92,0-138.2,0c0-78.5,0-156.9,0-235.7c10.7,0,21.4,0,32.6,0
			C806.8,690,806.8,758.8,806.8,828.1z"/>
		<path d="M974.6,857.2c-10.3,0-20.4,0-30.8,0c0-52.5,0-104.8,0-157.6c10.1,0,20.3,0,30.8,0C974.6,752,974.6,804.5,974.6,857.2z"/>
		<path d="M980.1,642.1c-0.1,11.2-9.6,20.1-21.2,20c-11.4-0.2-20.7-9.3-20.5-20.3c0.1-11.3,9.6-20.3,21.1-20.2
			C971.1,621.8,980.2,630.8,980.1,642.1z"/>
	</g>
</g>
<g>
	<g>
		<path d="M1154.8,1064.6c0,31.5,0,62.9,0,94.6c-5.3,0-10.2,0-15.3,0c0-67.8,0-135.5,0-203.3c5,0,9.9,0,15.3,0c0,8.8,0,17.5,0,27.2
			c1.1-1.3,1.6-1.7,1.9-2.2c10.3-16.9,25.7-26.2,45.2-28.2c27.1-2.8,54,8.4,67.9,34.5c15.2,28.5,9.8,66.9-12.5,88.6
			c-25.7,25-71.8,24.1-94.7-1.8c-2.6-2.9-4.8-6.3-7.1-9.5C1155.2,1064.5,1155,1064.5,1154.8,1064.6z M1261.6,1020.8
			c-0.3-2.6-0.6-7.4-1.6-12c-4.4-19.9-15.2-34.9-35.3-41c-20.2-6.1-38.8-2.4-54.3,12.5c-22.8,21.9-22.8,62.7-0.3,84.9
			c20.9,20.7,56.9,20.3,76.5-0.9C1257.3,1052.6,1261.3,1038.4,1261.6,1020.8z"/>
		<path d="M950.5,910.1c-3.9,3.6-7.8,7.2-11.8,10.9c-5.6-6.7-12.2-12-19.7-16.2c-35.2-19.6-94.9-11.7-117.8,39.8
			c-16.7,37.5-13.4,74.1,12.9,106.7c16,20,38.2,28.6,63.6,29.6c26.2,0.9,47.8-8.3,64.4-28.7c0.3-0.3,0.6-0.7,1-1.2
			c2,1.5,3.8,2.9,5.6,4.4c1.8,1.4,3.6,2.9,5.6,4.5c-6.5,8.7-14.1,15.9-23,21.7c-17.6,11.4-37.1,15-57.7,13.9
			c-26.2-1.4-49.3-10.3-68.2-28.7c-17.4-17-27-38.1-30.1-62c-3.4-26.4,0.3-51.7,14.3-74.7c17.9-29.5,44.7-45.3,78.8-48.9
			c19.5-2.1,38.4,0.4,56.3,8.8C934.8,894.5,943.5,901.1,950.5,910.1z"/>
		<path d="M1072.6,1008.9c-0.8-7-0.9-13.5-2.4-19.6c-3.3-13.9-14-22.1-29.2-23.7c-18-1.8-33.8,3.3-47.5,15.4
			c-2.8-3.4-5.6-6.7-8.7-10.4c2.5-2,4.8-4.1,7.3-5.8c19.2-12.3,40-15.8,61.9-10c21,5.5,32.6,22,32.7,45c0.1,16.6-0.2,33.3,0.1,49.9
			c0.2,13.3,0.9,26.6,1.4,40.1c-3.8,0-8.2,0-13.4,0c-0.8-7.8-1.6-15.8-2.5-24.6c-0.8,1.2-1.4,2-1.9,2.9
			c-18.1,30.4-55,29.6-74.5,19.2c-25.9-13.8-25.7-52.9-1.7-66.6c10.9-6.2,22.6-9.4,34.8-10.3c12.6-1,25.3-1.1,38-1.5
			C1068.6,1008.8,1070,1008.9,1072.6,1008.9z M1071.7,1021.4c-0.8-0.1-1.2-0.3-1.6-0.3c-13.2,0.6-26.4,0.8-39.6,2
			c-9.5,0.9-18.8,3.5-26.9,9.1c-16.1,11.1-14.6,35.1,2.7,44.2c21.6,11.4,49.8,2,60.3-19.9C1072,1045.4,1072.3,1033.6,1071.7,1021.4z
			"/>
		<path d="M1567.2,1008.9c4-20.3-6.8-38.6-25.3-42.4c-18.6-3.8-35.5,0.5-50.3,12.5c-0.7,0.6-1.3,1.2-2.3,2.1
			c-2.8-3.4-5.6-6.7-8.6-10.3c1.6-1.4,2.9-2.7,4.4-3.8c20.5-14.6,43.1-18.5,67.1-11.4c18.9,5.6,30,21.5,30.3,42
			c0.3,20.2-0.1,40.4,0.2,60.6c0.1,10.5,1,21,1.5,31.9c-3.7,0-7.8,0.1-11.8-0.1c-0.6,0-1.7-1.3-1.8-2.1c-0.8-6.3-1.4-12.6-2-18.9
			c-0.1-1.1-0.1-2.1-0.2-4c-1.1,1.6-1.8,2.6-2.4,3.5c-18.1,30-55.4,29.2-74.9,18.4c-24.8-13.7-24.9-52.1-1.3-65.9
			c11-6.5,23-9.6,35.5-10.6c12.7-1,25.5-1.1,38.3-1.5C1564.7,1008.8,1566,1008.9,1567.2,1008.9z M1567.5,1021.5
			c-0.7-0.1-1.2-0.4-1.7-0.3c-13.2,0.6-26.4,0.8-39.6,2c-9.6,0.9-19,3.5-27.2,9.3c-15.4,10.9-14.2,34.3,2.3,43.6
			c19,10.7,46.2,4.1,58-14.1C1567.4,1049.5,1568.2,1035.7,1567.5,1021.5z"/>
		<path d="M1449.7,968.9c-12.7,0-25.2,0-38.2,0c0,1.5,0,2.7,0,3.8c0,27.3,0,54.6,0,81.9c0,2.6,0.2,5.3,0.7,7.9
			c1.8,10.3,7.9,16.1,18.4,16.1c6.1,0,12.2-1.5,18.7-2.3c0.2,3.2,0.6,7.1,0.7,11c0,0.6-1,1.6-1.8,1.9c-9.7,3.1-19.6,4.3-29.6,1.9
			c-12.9-3-20.9-12.7-22.4-26.6c-0.3-3-0.4-6-0.4-9c0-27.4,0-54.8,0-82.3c0-1.3,0-2.6,0-4.3c-9.4,0-18.6,0-28,0c0-4.5,0-8.7,0-13.3
			c9.1,0,18.3,0,27.7,0c0-12.9,0-25.5,0-38.2c5.4,0,10.5,0,15.9,0c0,12.6,0,25.1,0,38.1c12.9,0,25.4,0,38.2,0
			C1449.7,960.2,1449.7,964.4,1449.7,968.9z"/>
		<path d="M1635.4,872.2c5,0,10,0,15.2,0c0,72.6,0,145.1,0,217.7c-5.1,0-10,0-15.2,0C1635.4,1017.3,1635.4,944.9,1635.4,872.2z"/>
		<path d="M1337.5,1090.1c-4.7,0-8.9,0-13.1,0c-0.6,0-1.3-0.1-2.2-0.1c0-44.7,0-89.2,0-134c5,0,10,0,15.3,0
			C1337.5,1000.6,1337.5,1045.2,1337.5,1090.1z"/>
		<path d="M1341.5,902.1c0.1,6.5-5.2,11.9-11.7,12c-6.2,0.1-11.6-5.3-11.6-11.7c-0.1-6.5,5.1-11.8,11.4-11.9
			C1336,890.3,1341.5,895.7,1341.5,902.1z"/>
	</g>
</g>
</svg>
