<?xml version="1.0" encoding="utf-8"?>
<!-- Generator: Adobe Illustrator 24.1.0, SVG Export Plug-In . SVG Version: 6.00 Build 0)  -->
<svg version="1.1" id="Layer_1" xmlns="http://www.w3.org/2000/svg" xmlns:xlink="http://www.w3.org/1999/xlink" x="0px" y="0px"
	 viewBox="0 0 1800 1200" style="enable-background:new 0 0 1800 1200;" xml:space="preserve">
<style type="text/css">
	.st0{fill:#FEFEFE;}
	.st1{fill:#B9DEE2;}
	.st2{fill:#B8DDE1;}
	.st3{fill:#75BEC7;}
	.st4{fill:#00848F;}
	.st5{fill:#0097A6;}
	.st6{fill:#B4DCE0;}
	.st7{fill:#71BDC6;}
	.st8{fill:#50BFC5;}
	.st9{fill:#6EBBC4;}
	.st10{fill:#70BCC5;}
	.st11{fill:#A7D5DA;}
	.st12{fill:#B3DBDF;}
	.st13{fill:#1EB6BE;}
	.st14{fill:#A2D3D8;}
	.st15{fill:#A6D5DB;}
	.st16{fill:#AED9DD;}
	.st17{fill:#ABD8DD;}
	.st18{fill:#82C5CD;}
	.st19{fill:#4AA9B3;}
	.st20{fill:#B0DADE;}
	.st21{fill:#88C7CF;}
	.st22{fill:#54AEB7;}
	.st23{fill:#A8D7DC;}
	.st24{fill:#ACD8DD;}
	.st25{fill:#7EC2CB;}
	.st26{fill:#9DD1D7;}
	.st27{fill:#8ECAD1;}
	.st28{fill:#B0DADF;}
	.st29{fill:#4FABB5;}
	.st30{fill:#6BBAC3;}
	.st31{fill:#83C5CC;}
	.st32{fill:#66B7C0;}
	.st33{fill:#A7D6DB;}
	.st34{fill:#58B0BA;}
	.st35{fill:#118C97;}
	.st36{fill:#44A6B0;}
	.st37{fill:#5CB2BC;}
	.st38{fill:#50ACB5;}
	.st39{fill:#7FC2CA;}
	.st40{fill:#92CCD2;}
	.st41{fill:#0A8994;}
	.st42{fill:#5DB2BC;}
	.st43{fill:#329DA7;}
	.st44{fill:#379FAA;}
	.st45{fill:#79C0C9;}
	.st46{fill:#96CDD4;}
	.st47{fill:#00B0BA;}
	.st48{fill:#A1D3D9;}
	.st49{fill:#62B5BE;}
	.st50{fill:#97CED5;}
	.st51{fill:#168F9A;}
	.st52{fill:#9FD4D8;}
	.st53{fill:#A3D4D9;}
	.st54{fill:#138D99;}
	.st55{fill:#49A8B2;}
	.st56{fill:#058692;}
	.st57{fill:#9AD0D6;}
	.st58{fill:#1B919C;}
	.st59{fill:#88C7CE;}
	.st60{fill:#B1DADE;}
	.st61{fill:#62C2C9;}
	.st62{fill:#1A919C;}
	.st63{fill:#AED8DD;}
	.st64{fill:#90CBD2;}
	.st65{fill:#8AC8CF;}
	.st66{fill:#95CDD4;}
	.st67{fill:#70C7CB;}
	.st68{fill:#0D8A96;}
	.st69{fill:#8AC8D0;}
	.st70{fill:#63B5BF;}
	.st71{fill:#99CFD5;}
	.st72{fill:#2D9AA5;}
	.st73{fill:#068792;}
	.st74{fill:#1F939E;}
	.st75{fill:#8CC9D0;}
	.st76{fill:#58B0B9;}
	.st77{fill:#00A2AF;}
	.st78{fill:#2E9BA5;}
	.st79{fill:#95D0D6;}
	.st80{fill:#60B4BD;}
	.st81{fill:#3CA2AC;}
	.st82{fill:#ABD7DC;}
	.st83{fill:#85C6CE;}
	.st84{fill:#40A4AE;}
	.st85{fill:#2496A1;}
	.st86{fill:#2797A2;}
	.st87{fill:#00ABB6;}
	.st88{fill:#2A99A4;}
	.st89{fill:#8DCED3;}
	.st90{fill:#68B8C1;}
	.st91{fill:#00A8B2;}
	.st92{fill:#009DAC;}
	.st93{fill:#9AD2D7;}
	.st94{fill:#339DA8;}
	.st95{fill:#7BC0C9;}
	.st96{fill:#83CCD1;}
	.st97{fill:#93CCD3;}
	.st98{fill:#3EA3AD;}
	.st99{fill:#7ECACF;}
	.st100{fill:#A0D3D8;}
	.st101{fill:#9ACFD5;}
	.st102{fill:#3BA1AC;}
	.st103{fill:#45A6B0;}
	.st104{fill:#2998A3;}
	.st105{fill:#61B5BE;}
	.st106{fill:#A4D6DA;}
	.st107{fill:#38A0AA;}
	.st108{fill:#55AEB8;}
	.st109{fill:#88CED2;}
	.st110{fill:#79C8CD;}
	.st111{fill:#20949F;}
	.st112{fill:#77BFC7;}
	.st113{fill:#83C5CD;}
	.st114{fill:#84C6CE;}
	.st115{fill:#80C4CC;}
	.st116{fill:#7CC2CA;}
	.st117{fill:#78C0C9;}
	.st118{fill:#6AB9C2;}
	.st119{fill:#359EA9;}
	.st120{fill:#2395A0;}
	.st121{fill:#2495A0;}
</style>
<g>
	<g>
		<path class="st0" d="M722.66,789.14c0,102.21-0.02,204.41,0.1,306.62c0,3.55-0.7,4.24-4.24,4.24
			c-204.76-0.11-409.51-0.11-614.27,0c-3.55,0-4.24-0.69-4.24-4.24c0.11-204.76,0.11-409.51,0-614.27c0-3.55,0.69-4.24,4.24-4.24
			c204.76,0.11,409.51,0.11,614.27,0c3.55,0,4.25,0.69,4.24,4.24C722.63,584.04,722.66,686.59,722.66,789.14z"/>
		<path class="st1" d="M379.75,1075.96c-20.68-3.09-40.31-9.82-59.6-17.56c-21.24-8.52-41.64-18.8-61.62-29.92
			c-2.83-13.85-4.41-27.9-6.33-41.89c-5.28-38.58-10.97-77.1-16.41-115.65c-1.33-9.38-2.71-18.76-4-28.15
			c-0.24-1.71-0.55-3.41,0.06-5.1c2.11-2.79,4.44-0.85,6.46-0.04c18.55,7.44,37.05,14.99,55.5,22.65
			c34.52,14.32,68.97,28.83,103.49,43.18c13.52,5.62,27.1,11.1,40.56,16.87c1.67,0.71,3.76,1.01,4.36,3.23
			c-6.41,13.74-11.91,27.86-17.73,41.85c-13.96,33.56-27.68,67.22-41.75,100.73C381.41,1069.31,379.79,1072.4,379.75,1075.96z"/>
		<path class="st2" d="M167.29,634.72c8.99-10.26,19.57-18.87,29.82-27.75c16.36-14.17,32.95-28.09,50.21-41.16
			c13.71-10.38,27.5-20.64,42.38-29.32c7.9,5.21,14.94,11.56,22.4,17.34c28.04,21.72,56.02,43.53,83.9,65.46
			c6.08,4.78,12.41,9.24,18.19,14.41c-0.03,2.35-2.02,3.05-3.54,4.02c-41.79,26.78-81.42,56.51-119.65,88.13
			c-1.6,1.32-3.12,2.76-5.42,2.59c-9.67-7.42-19.07-15.18-28.7-22.66c-12.62-9.81-25.35-19.49-37.82-29.5
			c-16.36-13.13-33.47-25.3-49.48-38.87C168.67,636.63,167.58,636.01,167.29,634.72z"/>
		<path class="st3" d="M711.09,781.89c1.62,18.59,0.88,37.17-0.01,55.76c-0.06,1.16-0.52,2.3-0.79,3.45
			c-1.27-3.06-2.71-3.96-6.4-2.52c-48.8,19.05-97.62,38.03-146.43,57.03c-7.23,2.81-14.44,5.66-21.69,8.41
			c-2.29,0.87-4.97,2.28-6.79-1.03c-1.32-4.5,0.14-8.92,0.52-13.34c2.04-23.66,3.19-47.36,4.28-71.09
			c1.27-27.73,0.26-55.44,0.79-83.15c0.09-4.8-1.85-9.53-0.44-14.36c0.48-0.9,1.07-2.14,2.22-1.05c4.59,4.4,10.75,5.4,16.36,7.27
			c44.16,14.77,88.11,30.18,132.25,45C693.74,775.24,702.75,777.69,711.09,781.89z"/>
		<path class="st4" d="M454.45,512.66c8.35,2.12,16.03,6.02,23.93,9.29c47.98,19.85,96.22,39.08,143.77,59.94
			c12.21,5.35,23.14,12.83,32.14,22.86c-1.48,3.76-4.26,1.84-6.36,1.16c-10.34-3.33-20.68-6.72-30.94-10.28
			c-28.19-9.78-56.42-19.46-84.74-28.89c-13.42-4.47-26.65-9.51-40.2-13.61c-4.4-1.87-5.58-6.52-8.41-9.76
			c-7.66-9.92-16.26-18.89-26.37-26.37C455.86,515.95,453.85,515.1,454.45,512.66z"/>
		<path class="st4" d="M653.21,966.07c-11.27,9.68-24.27,16.62-37.51,23.05c-48.58,23.59-97.23,47.02-145.86,70.5
			c-0.62,0.3-1.27,0.53-1.9,0.79c-1.7-2.87,1.15-3.83,2.3-5.51c3.14-2.13,5.89-4.69,8.44-7.49c4.07-4.61,7.81-9.48,11.37-14.49
			c2.48-2.76,3.35-6.81,6.89-8.73c49.91-19.26,99.7-38.84,149.62-58.07C648.59,965.34,650.99,962.88,653.21,966.07z"/>
		<path class="st5" d="M105.3,755.98c-2.72-6.27-4.66-12.7-3.99-19.66c2.34-1.47,3.93,0.24,5.46,1.46
			c13.99,11.12,28.03,22.17,42.26,32.99c15.59,11.85,30.63,24.43,46.27,36.23c2.51,1.9,5.74,3.38,6.25,7.13
			c-0.43,3.13-2.31,5.23-4.88,6.84c-1.86,0.58-3.6-0.01-5.33-0.59c-1.61-0.59-3.09-1.44-4.56-2.3c-1.77-1.08-3.79-1.52-5.7-2.25
			c-1.24-0.53-2.38-1.22-3.48-1.97c-0.72-0.47-1.46-0.92-2.23-1.32c-1.32-0.73-2.7-1.35-4.06-2.02c-1.36-0.73-2.76-1.38-4.15-2.05
			c-1.4-0.75-2.84-1.41-4.27-2.1c-3-1.78-5.92-3.71-9.15-5.07c-2.37-1.51-4.94-2.66-7.34-4.12c-1.96-1.63-4.09-3.02-6.26-4.34
			c-2.48-1.8-5.08-3.41-7.57-5.2c-6.5-4.49-12.26-9.82-17.62-15.6C110.62,767.36,107.27,762.08,105.3,755.98z"/>
		<path class="st6" d="M379.75,1075.96c-2.11-1.46-1.2-3.27-0.49-4.97c12.98-31.21,26-62.4,38.98-93.6
			c6.85-16.47,13.66-32.97,20.45-49.47c0.7-1.71,0.79-3.82,3.25-4.11c4.21-0.99,7.37,0.65,9.88,3.92c0.16,3.13-1.83,5.5-2.93,8.17
			c-18.43,44.98-37.19,89.82-55.75,134.74c-0.96,2.33-1.38,5.08-4,6.41C386,1076.68,382.88,1076.32,379.75,1075.96z"/>
		<path class="st7" d="M711.09,781.89c-6.27-0.47-11.9-3.2-17.72-5.16c-30.09-10.16-60.14-20.45-90.19-30.72
			c-21.44-7.33-42.82-14.83-64.35-21.88c-2.81-0.92-2.12-3.13-3.49-4.39c-1.9-1.7-1.62-3.72-0.83-5.8c2.54-2.61,5.2-0.83,7.66,0
			c19.26,6.53,38.53,13.06,57.78,19.63c29.04,9.91,58.04,19.93,87.15,29.61c6.22,2.07,12.29,4.53,18.52,6.56
			c1.84,0.6,3.47,1.49,4.86,2.84c0.72,2.7-0.28,5.53,0.6,8.23C711.08,781.16,711.09,781.52,711.09,781.89z"/>
		<path class="st8" d="M113.46,697.92c1.42-3.6,3.61-6.72,6.16-9.6c10.21,6.72,19.51,14.66,29.13,22.16
			c26.75,20.86,53.55,41.65,80.19,62.65c1.58,1.25,3.58,2.18,4.1,4.44c-1.84,3.96-3.91,7.7-8.71,8.71
			c-13.42-11.33-27.59-21.71-41.36-32.59c-21.75-17.18-43.74-34.06-65.51-51.23C115.85,701.19,113.94,700.18,113.46,697.92z"/>
		<path class="st3" d="M105.3,755.98c6.73,12.71,16.86,22.36,28.04,31.06c0.11,11.1,2.57,21.91,4.04,32.83
			c3.92,29.25,8.55,58.4,12.26,87.68c0.29,2.29,1.85,5.66-2.75,5.88c-3.65-14.45-7.13-28.95-11-43.35
			c-9.94-37.05-20.05-74.05-30.08-111.07C105.55,758.02,105.47,756.99,105.3,755.98z"/>
		<path class="st9" d="M710.12,772.54c-35.96-12.28-71.92-24.58-107.88-36.84c-21.49-7.33-43-14.6-64.51-21.87
			c-0.79-0.27-1.7-0.22-2.55-0.32c-2.36-2.34-2.76-5.07-1.57-8.1c2.89-2.39,5.63-0.39,8.26,0.48
			c35.39,11.72,70.56,24.06,105.91,35.91c18,6.03,35.83,12.56,53.92,18.34c2.68,0.86,5.39,2.05,6.96-1.66
			c0.21-0.17,0.43-0.33,0.64-0.49c1.55,4.38,0.76,8.93,1,13.4c0.28,0.3,0.35,0.57,0.2,0.81
			C710.35,772.43,710.23,772.54,710.12,772.54z"/>
		<path class="st10" d="M530.02,904.12c10.58-2.47,20.29-7.31,30.36-11.16c35.1-13.41,70.09-27.11,105.11-40.72
			c13.27-5.16,26.54-10.35,39.78-15.58c1.45-0.57,2.84-1.2,4.73-1.13c0.1,1.84,0.19,3.7,0.29,5.56c-0.04,0.64-0.08,1.28-0.12,1.91
			c-1.23,1.58-3.01,2.2-4.79,2.89c-48.04,18.71-96.12,37.33-144.17,56.04c-8.84,3.44-17.59,7.1-26.54,10.25
			c-2.06,0.72-4.16,2.03-6.26,0.02C527.23,909.17,527.21,906.36,530.02,904.12z"/>
		<path class="st11" d="M314.41,522.74c2.82-2.26,5.99-3.86,9.44-4.91c30.1,24.09,60.7,47.56,91.07,71.31
			c9.09,7.1,18.08,14.33,27.28,21.28c1.64,1.24,3.35,2.51,3.35,4.91c-1.59,3.05-4.2,4.49-7.53,4.78
			c-7.24-2.81-12.54-8.44-18.46-13.07c-33.01-25.8-66.12-51.47-99.05-77.38C318.16,527.8,314.51,526.74,314.41,522.74z"/>
		<path class="st12" d="M167.29,634.72c8.16,6.25,16.34,12.48,24.47,18.75c18.19,14.04,36.39,28.06,54.52,42.17
			c11.5,8.95,22.94,17.99,34.32,27.09c1.85,1.48,3.29,3.5,4.91,5.26c-0.88,3.2-2.37,5.78-6.16,6.02
			c-7.22-4.09-13.31-9.71-19.74-14.84c-14.27-11.37-29.11-22.01-43.21-33.6c-17.15-14.09-35.38-26.81-52.48-40.96
			c-1.32-1.09-2.87-1.94-3.65-3.58C161.85,638.08,165.1,636.98,167.29,634.72z"/>
		<path class="st13" d="M113.46,697.92c31.03,24.25,62.04,48.52,93.09,72.75c4.99,3.9,10.1,7.65,15.18,11.43
			c1.43,1.06,2.66,2.19,2.78,4.11c-0.9,3.54-2.32,6.62-6.47,7.28c-11.91-10.18-24.48-19.54-36.83-29.17
			c-23.89-18.64-47.69-37.4-71.73-55.84c-0.41-0.31-0.72-0.74-1.02-1.16C109.37,703.78,111.47,700.88,113.46,697.92z"/>
		<path class="st14" d="M445.06,615.21c-4.68-5.86-11.19-9.54-16.94-14.1c-23.39-18.56-46.97-36.88-70.5-55.25
			c-9.87-7.71-19.81-15.34-29.73-22.98c-1.77-1.36-3.78-2.5-4.03-5.05c3.03-1.55,5.9-3.47,9.32-4.17
			c6.78,7.22,15.02,12.68,22.75,18.72c31.97,24.96,63.96,49.88,95.9,74.87c1.08,0.84,2.3,1.56,2.84,2.94
			C452.66,614.15,449.48,615.86,445.06,615.21z"/>
		<path class="st15" d="M418.22,1077.17c-3.72,1.81-7.65,0.69-11.49,0.86c-1.8-2.25-0.29-4.31,0.52-6.29
			c11.12-27.33,22.59-54.51,33.82-81.8c7.03-17.07,14.03-34.16,21.2-51.17c0.94-2.22,1.7-4.6,4.4-5.39c3.12,0.02,6.06,0.45,7.8,3.54
			c-1.64,7.8-5.38,14.84-8.4,22.11c-15.37,37.05-30.7,74.12-46.03,111.19C419.11,1072.45,418.18,1074.68,418.22,1077.17z"/>
		<path class="st6" d="M232.68,836.86c1.55,11.35,3.06,22.7,4.65,34.04c1.86,13.2,3.84,26.39,5.7,39.6
			c2.2,15.58,4.29,31.17,6.49,46.75c1.94,13.71,3.98,27.4,5.94,41.11c1.24,8.63,2.38,17.27,3.68,25.89
			c0.23,1.55,0.92,3.01-0.62,4.23c-3-0.9-5.81-2.17-8.24-4.18c-2.88-27.61-7.6-54.96-11.33-82.45
			c-4.56-33.64-9.87-67.17-14.18-100.85c-0.28-2.2-0.86-4.48,1.03-6.35C228.82,833.13,231.14,833.79,232.68,836.86z"/>
		<path class="st16" d="M160.27,641.04c4.25,1.3,7.06,4.71,10.35,7.34c13.76,11.01,28.26,21.1,41.87,32.26
			c21.97,18.01,45.03,34.61,66.98,52.63c-1.36,3.62-3.25,6.71-7.49,7.43c-12.28-11.13-25.85-20.66-38.84-30.9
			c-25.32-19.98-50.84-39.7-76.23-59.59c-1.08-0.84-2.25-1.62-2.83-2.95C155.69,644.74,157.79,642.7,160.27,641.04z"/>
		<path class="st17" d="M244.13,1021.14c-2.46-1.35-4.92-2.69-7.38-4.04c-2.79-13.88-4.4-27.94-6.32-41.95
			c-5.26-38.46-10.96-76.86-16.35-115.3c-1.08-7.69-2.18-15.37-3.29-23.06c-0.39-2.72-0.75-5.5,0.71-8.09
			c3.89-1.87,6.56-0.2,8.7,3.02c7.04,50.06,14.18,100.1,21.25,150.16c1.54,10.94,3.19,21.86,4.63,32.81
			C246.38,1016.99,247.62,1019.86,244.13,1021.14z"/>
		<path class="st18" d="M146.95,796.23c2.23,1.59,5.18,1.95,7.08,4.11c1.53,1.98,2.04,4.31,2.39,6.73
			c7.91,55.21,15.7,110.43,23.47,165.65c0.35,2.52,1.01,5.15-1.14,7.31c-3.78-3.23-7.35-6.65-10.37-10.62
			c-0.14-10.53-2.34-20.82-3.8-31.19c-6.3-44.53-12.68-89.04-18.96-133.57C145.24,801.99,142.58,798.37,146.95,796.23z"/>
		<path class="st19" d="M701.06,702.08c1.83,2.51,0.35,5.74,1.79,8.34c-1.97,1.62-3.97,0.6-5.88-0.04
			c-44.99-15.08-89.89-30.44-134.77-45.84c-10.93-3.75-21.8-7.71-32.96-10.77c-1-0.27-2.01-0.52-2.81-1.25
			c-1.64-2.58-2.47-5.27-1.1-8.25c2.8-2.39,5.61-0.74,8.26,0.18c18.37,6.4,36.87,12.45,55.26,18.79c27.84,9.6,55.71,19.07,83.6,28.5
			C682.07,694.97,691.71,698.12,701.06,702.08z"/>
		<path class="st20" d="M389.13,1077.05c16.6-40.12,33.18-80.24,49.82-120.34c4.01-9.67,8.21-19.26,12.33-28.89
			c3.68-1.47,6.33,0.11,8.58,2.89c-9.57,23.26-19.28,46.47-28.9,69.71c-9.88,23.9-19.79,47.79-29.63,71.7
			c-0.79,1.93-0.97,4.02-1.9,5.88C395.92,1078.54,392.54,1077.62,389.13,1077.05z"/>
		<path class="st21" d="M178.75,980.03c0.08-9.81-2.33-19.33-3.51-28.99c-1.68-13.73-3.78-27.41-5.74-41.11
			c-2.27-15.89-4.6-31.78-6.88-47.67c-1.87-13.02-3.72-26.05-5.53-39.08c-1.06-7.61-2.04-15.23-3.05-22.85
			c3.4,1.3,6.58,2.99,9.45,5.24c7.85,57.92,16.44,115.73,24.54,173.62c0.34,2.43,1.83,5.54-2.06,6.84
			C182.97,984.74,180.81,982.44,178.75,980.03z"/>
		<path class="st12" d="M413.81,633.75c-7.67-3.67-13.59-9.75-20.23-14.81c-16.91-12.88-33.57-26.09-50.33-39.18
			c-16.35-12.77-32.71-25.53-49.01-38.37c-1.73-1.36-3.04-3.26-4.54-4.9c2.41-1.41,4.81-2.81,7.22-4.22
			c7.01,3.8,12.85,9.23,19.06,14.09c32.85,25.72,65.84,51.26,98.65,77.03c2.29,1.8,4.77,3.45,5.88,6.36
			C419.36,632.87,416.93,633.9,413.81,633.75z"/>
		<path class="st22" d="M704.07,717.65c1.33,1.89,0.94,4.06,1.03,6.16c-0.06,2.89-2.23,2.05-3.74,1.94
			c-1.89-0.13-3.67-0.95-5.46-1.56c-50.3-17.16-100.56-34.44-150.95-51.37c-4.09-1.37-8-3.24-12.19-4.33
			c-2.4-0.62-3.92-2.05-4.65-4.39c-0.5-1.86-1.5-3.69-0.3-5.64c3-0.91,5.8,0.12,8.54,1.08c28.29,9.84,56.71,19.28,85.02,29.03
			c26.36,9.08,52.86,17.76,79.14,27.08C701.83,716.11,703.04,716.7,704.07,717.65z"/>
		<path class="st23" d="M154.07,647.25c7.92,4.21,14.33,10.48,21.36,15.87c16.61,12.73,32.95,25.81,49.45,38.68
			c14.74,11.5,29.57,22.88,44.32,34.36c1.33,1.03,2.77,2.15,2.83,4.12c-1.12,3.01-2.86,5.29-6.36,5.58
			c-37.09-29.2-74.4-58.13-111.59-87.22c-1.99-1.55-4.41-2.77-5.49-5.31C150.42,651.31,152.24,649.28,154.07,647.25z"/>
		<path class="st24" d="M399.43,1078c-0.83-1.4-1.03-2.7-0.34-4.37c11.22-26.78,22.36-53.59,33.5-80.4
			c7.97-19.2,15.92-38.41,23.85-57.62c0.72-1.75,1.15-3.65,3.08-4.56c3.05-0.44,5.89-0.35,7.29,3.09c-4.1,3.81-5.01,9.25-7.02,14.08
			c-17.51,42.07-34.89,84.2-52.28,126.32c-0.45,1.08-0.54,2.31-0.8,3.47C404.29,1078.02,401.86,1078.01,399.43,1078z"/>
		<path class="st25" d="M146.95,796.23c-1.64,5.44,0.52,10.67,1.16,15.91c1.97,16.29,4.53,32.52,6.91,48.76
			c2.31,15.73,4.76,31.45,7,47.19c2.25,15.75,4.31,31.53,6.47,47.29c0.51,3.72,1,7.45,1.7,11.14c0.33,1.72,0.02,2.68-1.8,2.88
			c-3.35-4.12-6.51-8.36-8.23-13.48c-5.71-38.13-10.95-76.33-16.48-114.49c-2.1-14.48-4-28.99-5.95-43.5
			c-0.32-2.42-1.12-5.38,2.89-5.77C143.07,793,145.13,794.42,146.95,796.23z"/>
		<path class="st26" d="M454.54,610.02c-6.87-3.02-11.88-8.59-17.68-13.05c-27.74-21.31-55.32-42.83-82.93-64.31
			c-6.36-4.95-12.58-10.09-18.96-15.01c-1.44-1.11-1.87-2.35-1.79-3.99c2.35-1.18,4.55-2.72,7.26-3.04
			c9.39,6.43,18.09,13.76,27.06,20.74c28.96,22.55,57.86,45.19,86.85,67.71c2.79,2.17,6.22,3.9,6.74,8.03
			C459.59,609.62,457.63,611.09,454.54,610.02z"/>
		<path class="st27" d="M363.22,503.26c4.07-1.19,8.06-2.71,12.36-2.92c0.7,2.68,2.69,4.31,4.75,5.91
			c34.58,26.81,69.05,53.75,103.49,80.74c2.56,2,5.28,3.86,7.06,6.7c-1.53,2.85-4.51,3.04-7.13,3.87c-3.29,0.4-5.48-1.74-7.76-3.51
			c-24.2-18.78-48.32-37.66-72.47-56.51c-11.53-9-23.09-17.96-34.62-26.96C366.45,508.66,363.18,507.19,363.22,503.26z"/>
		<path class="st28" d="M244.13,1021.14c2.75-3.84,0.2-7.78-0.28-11.41c-3.39-25.4-7.43-50.71-11.03-76.09
			c-3.32-23.35-6.29-46.75-9.53-70.1c-1.48-10.66-3.89-21.2-4.04-32.03c3.22-0.83,5.89-0.4,7.25,3.1
			c-1.86,4.07-0.05,8.13,0.44,12.06c2,15.96,4.48,31.86,6.78,47.78c2.28,15.75,4.55,31.51,6.84,47.26
			c1.84,12.7,3.76,25.4,5.54,38.11c1.9,13.56,3.6,27.15,5.6,40.7c0.27,1.82,0.33,2.98-1.41,3.78
			C247.98,1023.74,245.84,1022.87,244.13,1021.14z"/>
		<path class="st29" d="M704.07,717.65c-8.8-1.12-16.67-5.22-24.97-7.91c-25.36-8.22-50.57-16.93-75.73-25.69
			c-22.25-7.75-44.88-14.45-66.83-23.07c-2.68-1.05-5.57-1.59-8.36-2.36c-2.08-1.77-3.01-3.74-1.09-6.21
			c2.65-0.31,5.11,0.51,7.56,1.35c40.24,13.67,80.48,27.33,120.72,41.01c13.85,4.71,27.68,9.46,41.53,14.14
			c1.94,0.65,3.97,1.02,5.96,1.52C703.73,712.74,704.23,715.14,704.07,717.65z"/>
		<path class="st30" d="M528.98,912.41c10.38-2.51,19.99-7.17,29.9-10.97c33.99-13,67.76-26.57,101.73-39.62
			c16.49-6.34,32.73-13.36,49.56-18.82c-0.04,2.84,0.49,5.74-0.88,8.44c-11.33,3.12-22.04,7.96-32.94,12.21
			c-47.21,18.39-94.47,36.67-141.66,55.13c-2.29,0.9-4.63,2.66-7.27,0.72C526.25,916.76,526.47,914.34,528.98,912.41z"/>
		<path class="st31" d="M392.14,498.29c3.14-0.02,6.27-0.05,9.41-0.07c32.56,25.71,65.45,51,98.01,76.71
			c1.66,1.31,3.51,2.13,5.57,2.56c1.06,0.76,1.58,1.9,2.16,3.01c0.82,1.84,2,3.58,1.77,5.75c-0.09,0.53-0.3,1.01-0.6,1.44
			c-2.07,1.89-4.41,2.85-7.25,2.09c-18.33-14.81-37.1-29.08-55.65-43.62c-17.2-13.48-34.49-26.86-51.67-40.36
			c-1.36-1.07-2.65-2.2-3.75-3.54C387.84,499.45,389.15,498.44,392.14,498.29z"/>
		<path class="st32" d="M527.98,919.66c17.93-6.91,35.87-13.79,53.8-20.73c32.98-12.76,65.95-25.54,98.92-38.32
			c7.36-2.86,14.66-5.89,22.07-8.59c2-0.73,4.14-3.01,6.53-0.57c-0.18,2.81,0.36,5.7-1.04,8.35c-3.66-1.74-6.75,0.45-9.84,1.66
			c-21.65,8.49-43.36,16.81-65.02,25.29c-33.04,12.93-66.14,25.74-99.19,38.64c-2.49,0.97-5.03,2.64-7.75,0.45
			C525.37,923.39,525.7,921.28,527.98,919.66z"/>
		<path class="st33" d="M212,828.41c-0.05,12.92,3.07,25.47,4.62,38.2c1.63,13.41,3.8,26.75,5.71,40.12
			c2.22,15.58,4.4,31.16,6.6,46.74c1.94,13.71,3.89,27.42,5.83,41.14c0.86,6.09,1.67,12.2,2.64,18.27c0.25,1.56,0.9,3.01-0.65,4.22
			c-2.72-0.86-5.37-1.86-7.33-4.07c-7.26-58.67-16.57-117.06-24.56-175.63c-0.53-3.87-1.73-7.8,0.18-11.66
			C208.42,823.84,210.62,825.06,212,828.41z"/>
		<path class="st34" d="M529.12,663.79c1.09,1.14,1.36,2.61,3.44,3.31c30.97,10.32,61.86,20.87,92.75,31.42
			c24.39,8.33,48.74,16.77,73.15,25.04c2.04,0.69,4.35,2.75,6.64,0.24c1.39,2.23,0.95,4.75,1.09,7.17c-0.84,3.7-3.46,1.97-5.16,1.35
			c-15.23-5.57-30.78-10.19-46.05-15.64c-21.28-7.59-42.75-14.62-64.13-21.91c-18.12-6.17-36.17-12.55-54.36-18.54
			c-2.97-0.98-5.96-1.95-7.38-5.16C528.35,668.65,526.85,666.21,529.12,663.79z"/>
		<path class="st35" d="M669,622.29c2.6,2.22,3.48,5.57,5.39,8.24c-1.95,2.03-4.19,1.13-6.27,0.46c-29.66-9.68-59.07-20.08-88.65-30
			c-25.16-8.43-50.1-17.54-75.46-25.37c-3.09-2.37-5.19-5.18-4.24-9.38c2.21-1.47,4.35-0.38,6.42,0.32
			c52.74,17.73,105.31,35.98,158.05,53.7C665.88,620.81,667.42,621.59,669,622.29z"/>
		<path class="st36" d="M701.06,702.08c-4.31,0.34-8.02-1.74-11.89-3.05c-30.1-10.2-60.18-20.48-90.25-30.76
			c-21.94-7.5-43.87-15.06-65.81-22.57c-2.43-0.83-4.82-1.93-7.5-1.5c-3.12-1.78-2.7-4.57-2.11-7.4c2.58-1.79,5.01-0.28,7.36,0.52
			c43.05,14.58,86.1,29.16,129.06,43.99c10.58,3.65,21.24,7.07,31.84,10.65c2.34,0.79,4.66,1.17,7.1,0.79
			C700.3,695.68,700.89,698.83,701.06,702.08z"/>
		<path class="st37" d="M530.22,671.04c1.21,1.8,2.97,2.62,5.01,3.31c37.27,12.62,74.53,25.28,111.77,38
			c18.05,6.16,36.04,12.49,54.09,18.63c1.56,0.53,3.42,2.32,5.09-0.01c1.35,2.7,1.1,5.56,0.83,8.41c-2.52,1-4.74-0.3-6.96-1.07
			c-52.29-17.99-104.76-35.48-156.96-53.72c-4.19-1.46-8.75-1.89-12.6-4.36C529.58,677.2,527.97,674.18,530.22,671.04z"/>
		<path class="st38" d="M705.03,878.23c-0.1,2.95-0.67,5.78-1.99,8.44c-8.81,1.29-16.6,5.62-24.78,8.69
			c-17.27,6.48-34.44,13.26-51.63,19.97c-20.56,8.03-41.15,15.98-61.69,24.07c-12.68,4.99-25.43,9.79-38.1,14.8
			c-1.8,0.71-3.65,1.16-5.41-0.18c-1.18-1.99-0.46-3.78,0.59-5.53c5.94-4.67,13.24-6.48,20.08-9.15
			c31.94-12.46,63.91-24.83,95.84-37.34c19.41-7.6,38.88-15.06,58.3-22.65C698.97,878.28,701.81,876.18,705.03,878.23z"/>
		<path class="st39" d="M499.8,566.47c1.05,2.93,2.26,5.79,4.17,8.29c0.89,0.85,2.03,1.63,0.9,3.07c-3.13,1.97-4.79-0.94-6.57-2.31
			c-18.68-14.44-37.24-29.03-55.85-43.56c-12.68-9.89-25.41-19.72-38.09-29.63c-1.32-1.03-2.76-2.14-2.82-4.12
			c1.4,0,2.8,0,4.19,0.01c2.01,0.95,4.3-0.27,6.28,0.82c2.4,0.17,4.94-0.54,7.13,1.05c9.28,8.27,19.41,15.47,29.16,23.13
			c13.42,10.55,26.87,21.05,40.32,31.58c2.32,1.82,4.76,3.42,7.5,4.55C498.45,561.16,499.86,563.44,499.8,566.47z"/>
		<path class="st40" d="M363.22,503.26c5.19,6.81,12.63,10.99,19.17,16.18c21.58,17.14,43.37,34,65.1,50.95
			c10.66,8.31,21.4,16.54,32.05,24.86c1.19,0.93,2.39,1.27,3.8,1.21c-1.79,3.8-5.49,4.18-8.94,5.02c-5.23-2.11-8.87-6.43-13.16-9.79
			c-33.02-25.83-66.14-51.52-99.16-77.35c-1.9-1.49-3.78-3.01-5.61-4.58c-1.24-1.06-2.91-2.19-1.54-4.28
			C357.69,504.72,360.25,503.24,363.22,503.26z"/>
		<path class="st41" d="M499.8,566.47c-1.34-2.08-2.68-4.17-4.02-6.25c-0.8-0.7-2-1.31-0.65-2.56c2.51-1.02,4.75,0.22,6.98,0.99
			c52.81,18.12,105.72,35.99,158.56,54.03c0.32,0.11,0.67,0.08,1.02,0.04c3.42,2.44,4.35,6.78,7.3,9.57
			c-2.69,0.44-5.07-0.68-7.5-1.51c-41.02-13.91-82.03-27.82-123.04-41.75c-10.9-3.7-21.77-7.5-32.68-11.18
			C503.85,567.2,501.96,566.18,499.8,566.47z"/>
		<path class="st42" d="M708.01,862.69c0.25,2.17-0.49,4.18-1.03,6.22c-5.54,3.63-11.89,5.48-17.97,7.84
			c-52.29,20.19-104.45,40.71-156.75,60.85c-2.48,0.96-5,2.67-7.82,0.74c-1.26-2.33-0.6-4.4,0.87-6.36
			c6.73-3.99,14.31-5.94,21.52-8.75c22.18-8.64,44.41-17.17,66.56-25.87c28.11-11.05,56.31-21.85,84.4-32.94
			C700.97,863.16,704.16,860.58,708.01,862.69z"/>
		<path class="st43" d="M691.91,668.87c1.2,1.82,1.78,3.84,1.93,6c-0.88,4.02-3.7,2.01-5.53,1.45c-9.07-2.79-18.13-5.66-27.02-8.96
			c-17.96-6.67-36.24-12.4-54.36-18.61c-27.26-9.34-54.47-18.83-81.86-27.78c-2.44-0.8-5.05-1.31-6.93-3.31
			c-1.39-2.43-3.08-4.8-1.74-7.84c4.09-0.16,7.68,1.73,11.39,2.97c51.72,17.33,103.21,35.32,154.93,52.67
			C685.81,666.49,689.1,667.04,691.91,668.87z"/>
		<path class="st44" d="M518.82,617.18c13.02,4.44,26.04,8.89,39.06,13.32c32.57,11.08,65.15,22.15,97.72,33.24
			c11.07,3.77,22.11,7.64,33.2,11.35c1.58,0.53,3.47,2.27,5.03-0.22c1.56,2.65,2.23,5.51,2.02,8.58c-2.03,1.54-4,0.36-5.87-0.29
			c-52.76-18.2-105.74-35.78-158.45-54.14c-3.73-1.3-7.65-2.1-11.1-4.18C518.89,622.5,516.84,620.26,518.82,617.18z"/>
		<path class="st45" d="M140.62,792.17c-4.64,3.02-1.11,7.16-0.75,10.29c2.22,19.34,5.13,38.61,7.92,57.88
			c2.97,20.46,6.07,40.89,9.09,61.34c1.47,9.97,2.89,19.96,4.25,29.95c0.2,1.47,0.52,3.14-0.98,4.3
			c-5.16-8.86-7.37-18.76-10.01-28.5c-1.25-4.62-2.18-9.33-3.25-14c2.58-0.54,1.93-2.49,1.7-4.12c-3.03-21.69-6.06-43.38-9.17-65.06
			c-2.56-17.78-5.21-35.55-7.88-53.32c-0.27-1.82-0.78-3.5,1.8-3.89C135.92,788.53,138.59,789.9,140.62,792.17z"/>
		<path class="st46" d="M354.93,505.47c2.58,5.62,8.21,8.11,12.64,11.62c31.05,24.59,62.33,48.91,93.66,73.14
			c4.35,3.36,8.55,6.88,12.78,10.37c-1.46,3.67-4.55,3.94-7.85,3.76c-28.16-22.76-57.02-44.63-85.49-67
			c-10.31-8.1-20.7-16.09-30.9-24.31c-1.73-1.39-4.52-2.94-1.1-5.52C350.76,506.84,352.85,506.15,354.93,505.47z"/>
		<path class="st47" d="M108.47,707.32c5.85,1.68,9.7,6.35,14.28,9.84c16.8,12.78,33.33,25.91,49.98,38.88
			c14.48,11.29,28.99,22.54,43.49,33.81c1.13,0.88,1.96,1.94,1.99,3.46c0.25,3.01-1.73,4.06-4.14,4.74
			c-3.27-0.52-5.34-2.96-7.77-4.84c-31.54-24.44-63.03-48.93-94.34-73.65c-2.15-1.7-4.85-2.68-6.52-4.99
			C105.91,711.92,107.02,709.55,108.47,707.32z"/>
		<path class="st48" d="M418.22,1077.17c-3.31-0.56-1.4-2.41-0.84-3.76c7.29-17.76,14.62-35.52,21.95-53.26
			c11.26-27.25,22.54-54.51,33.83-81.75c0.18-0.44,0.64-0.77,0.97-1.16c3.31-1.06,5.86-0.23,7.47,2.98
			c-8.11,16.96-14.69,34.59-21.94,51.92c-10.59,25.3-21.06,50.64-31.55,75.97c-1.06,2.57-2.1,5.12-1.65,7.99
			C423.89,1077.89,420.97,1076.85,418.22,1077.17z"/>
		<path class="st49" d="M708.01,862.69c-11.49,2.54-21.98,7.87-32.89,11.98c-24.29,9.16-48.39,18.83-72.58,28.26
			c-24.51,9.55-49.03,19.07-73.55,28.57c-0.94,0.36-2,0.4-3.01,0.58c-1.85-2.43-0.88-4.4,1.02-6.22c8.31-1.1,15.57-5.27,23.21-8.19
			c38.53-14.72,76.93-29.79,115.37-44.75c12.97-5.05,25.97-10.04,38.88-15.24c2.59-1.04,3.89-1.09,3.79,2.1
			C708.17,860.76,708.09,861.73,708.01,862.69z"/>
		<path class="st50" d="M180.94,814.93c2.35-0.1,4.37,0.75,6.18,2.18c4.02,27.45,7.8,54.92,11.76,82.38
			c4.43,30.7,8.86,61.4,13.06,92.12c0.49,3.57,3.1,7.72-1.04,11c-2.08-0.46-3.66-1.73-5.17-3.13c-2.82-4.78-2.55-10.28-3.3-15.47
			c-4.49-31.26-9.09-62.5-13.42-93.77c-3.11-22.44-6.36-44.86-9.41-67.31C179.25,820.35,177.59,817.09,180.94,814.93z"/>
		<path class="st51" d="M504.87,577.83c-0.3-1.02-0.6-2.05-0.9-3.07c8.52,0.8,16.15,4.6,24.13,7.19
			c14.89,4.83,29.66,10.04,44.47,15.09c31.43,10.71,62.86,21.42,94.29,32.11c2.43,0.83,4.84,1.9,7.53,1.38
			c1.6,1.93,2.88,4.05,3.67,6.44c-1.47,3.58-4.22,1.95-6.4,1.32c-4.63-1.34-8.93-3.62-13.54-5.05
			c-26.47-8.2-52.53-17.66-78.77-26.55c-23.13-7.84-46.46-15.19-69.32-23.84c-1.3-0.49-2.52-1.09-3.63-1.93
			C505.88,579.89,505.38,578.86,504.87,577.83z"/>
		<path class="st52" d="M142.56,659.65c0.97-1.75,2.36-3.11,4.02-4.2c2.21-1.3,3.52,0.4,4.97,1.53
			c30.83,24.07,61.67,48.13,92.52,72.18c5.57,4.34,11.32,8.46,16.63,13.12c1.67,1.47,3.62,2.77,3.52,5.4
			c-0.62,2.28-2.13,3.51-4.45,3.8c-5.72-1.59-9.53-6.09-13.93-9.55c-32.81-25.74-65.81-51.24-98.63-76.97
			C145.34,663.49,143.15,662.26,142.56,659.65z"/>
		<path class="st53" d="M205.75,825.48c-0.87,8.64,1.5,16.97,2.53,25.42c1.66,13.57,3.81,27.07,5.77,40.6
			c2.28,15.73,4.59,31.45,6.86,47.18c1.88,13.03,3.7,26.06,5.57,39.09c1.26,8.79,2.64,17.57,3.79,26.38
			c0.39,2.96,1.38,6.1-0.85,8.87c-1.54-0.32-2.93-0.92-4.01-2.1c-2.51-6.14-2.34-12.77-3.29-19.17
			c-3.5-23.46-6.78-46.95-10.16-70.42c-2.99-20.76-5.71-41.56-8.71-62.31c-1.67-11.57-2.93-23.2-5.22-34.66
			c-0.12-0.58-0.09-1.16,0.08-1.73C201.82,820.46,203.72,823.14,205.75,825.48z"/>
		<path class="st54" d="M677.03,942.3c-1.82,3.34-4.11,6.31-7.04,8.76c-10.63,2.41-20.43,7.17-30.51,11.09
			c-30.82,12-61.7,23.82-92.45,35.99c-12.33,4.88-24.77,9.47-37.07,14.45c-2.2,0.89-4.43,2.15-6.87,0.58
			c-0.87-3.09,0.53-5.33,2.73-7.27c44.69-17.13,89.22-34.7,133.85-51.98c10.6-4.1,21.06-8.56,31.8-12.28
			C673.28,941.01,675.57,938.95,677.03,942.3z"/>
		<path class="st55" d="M521.87,953.85c7.84-1.37,14.93-4.98,22.28-7.74c18.33-6.88,36.53-14.14,54.76-21.29
			c32.95-12.91,65.87-25.89,98.87-38.67c1.42-0.55,3.94-3.5,5.27,0.51c-0.01,1.44,0.03,2.89-1.07,4.04
			c-20.77,8.72-41.9,16.5-62.87,24.71c-28.33,11.11-56.73,22.07-85.09,33.11c-8.81,3.43-17.57,6.99-26.45,10.25
			c-2.06,0.76-4.21,1.66-6.52,0.77c-1.56-1.42-0.61-2.99-0.26-4.52C521.01,954.51,521.38,954.12,521.87,953.85z"/>
		<path class="st56" d="M661.69,612.72c-1.47,2.29-3.22,0.49-4.55,0.04c-45.76-15.4-91.49-30.84-137.19-46.43
			c-8.28-2.82-16.38-6.14-24.91-8.2c-2.72-1.17-4.41-2.92-3.54-6.15c9.16,1.7,17.7,5.4,26.5,8.27c13.7,4.48,27.3,9.26,40.94,13.93
			c22.08,7.57,44.15,15.19,66.24,22.75c7.95,2.72,15.95,5.31,23.93,7.95c1.74,0.57,3.51,1.8,5.19-0.14
			C657.29,606.91,659.68,609.64,661.69,612.72z"/>
		<path class="st57" d="M210.9,1002.61c1.75-6.2-0.73-12.14-1.44-18.12c-1.93-16.13-4.48-32.18-6.82-48.26
			c-2.29-15.74-4.66-31.47-6.93-47.21c-2.22-15.41-4.35-30.83-6.52-46.25c-0.96-6.77-1.96-13.54-2.88-20.31
			c-0.25-1.82-0.87-3.78,0.81-5.34c1.37,0.74,2.74,1.48,4.11,2.22c2.94,8.38,3.2,17.24,4.44,25.9
			c7.2,50.34,14.62,100.65,21.45,151.04c0.43,3.18,1.39,6.5-1.01,9.41C213.87,1005.5,212.5,1003.87,210.9,1002.61z"/>
		<path class="st58" d="M506.39,580.92c6.31,0.42,11.82,3.44,17.66,5.41c28.16,9.51,56.43,18.7,84.41,28.72
			c20.71,7.41,41.98,13.16,62.33,21.6c2.21,0.92,4.75,2.5,7.26,0.33c1.49,2.18,3.26,4.24,3.02,7.14c-1.96,1.65-3.97,0.59-5.86-0.05
			c-41.95-14.23-83.91-28.44-125.8-42.87c-12.06-4.15-24.18-8.15-36.29-12.15c-1.74-0.58-3.84-0.66-4.58-2.87
			C507.82,584.43,507.11,582.67,506.39,580.92z"/>
		<path class="st59" d="M392.14,498.29c-1.77,0.9-3.32,1.65-0.75,3.66c5.93,4.65,11.63,9.58,17.56,14.21
			c23.06,18.01,46.18,35.95,69.27,53.92c6.75,5.26,13.46,10.58,20.28,15.75c1.3,0.99,2.51,1.78,2.52,3.57
			c-0.72,2.63-2.94,2.53-4.99,2.75c-6.7-3.61-12.12-8.95-18.06-13.57c-30.58-23.75-61.09-47.58-91.6-71.42
			c-1.76-1.38-3.69-2.57-4.96-4.47c-0.78-1.17-1.58-2.45,0.39-3.35C385.25,499.01,388.6,497.66,392.14,498.29z"/>
		<path class="st60" d="M420.26,629.65c-33.88-26.47-67.85-52.82-101.55-79.51c-7.35-5.82-15.45-10.8-21.79-17.88
			c1.41-1.56,3.33-2.25,5.22-2.99c7.38,4.76,14.01,10.53,20.92,15.91c32.9,25.63,65.78,51.29,98.62,77.01
			c1.61,1.26,3.47,2.32,4.02,4.54C424.61,629.06,423.21,630.79,420.26,629.65z"/>
		<path class="st61" d="M232.66,777.43c-16.54-12.82-33.09-25.62-49.61-38.47c-16.65-12.96-33.36-25.84-49.82-39.03
			c-4.64-3.72-10.27-6.36-13.61-11.62c0.81-1.26,1.63-2.51,2.44-3.77c2.02-1.42,3.2,0.33,4.46,1.31
			c35.37,27.56,70.74,55.13,106.07,82.75c2.03,1.59,4.25,3.11,3.98,6.21C235.81,776.5,235.16,778.35,232.66,777.43z"/>
		<path class="st62" d="M677.03,942.3c-4.24-1.57-7.53,1.42-10.93,2.74c-49.78,19.27-99.45,38.85-149.21,58.18
			c-3.46,1.34-6.83,3.31-10.71,3.47c-1.47-2.52,0.28-4.14,1.64-5.88c7.48-3.95,15.57-6.44,23.41-9.49
			c43.04-16.74,86.1-33.42,129.11-50.22c5.78-2.26,11.52-4.62,17.39-6.61c1.7-0.58,4.53-2.02,3.65,2.18
			C680.24,938.78,679.27,941.02,677.03,942.3z"/>
		<path class="st63" d="M425.42,626.53c-31.01-24.24-62.01-48.51-93.05-72.71c-8.23-6.42-16.66-12.59-24.89-19.01
			c-2-1.56-3.58-3.68-5.35-5.54c1.72-1.03,3.43-2.06,5.15-3.1c39.76,31.26,79.78,62.19,119.53,93.46c1.46,1.15,3.12,2.18,4,3.96
			C429.81,626.04,428.36,627.66,425.42,626.53z"/>
		<path class="st64" d="M452.3,1067.82c-2.4,1.04-4.79,2.09-7.19,3.13c-3.65-1.52-1.31-3.99-0.6-5.74
			c3.36-8.31,6.84-16.58,10.29-24.86c12.22-29.28,24.27-58.63,36.43-87.94c1.15-2.77,1.7-6.17,5.54-6.82
			c2.23,0.19,4.48,0.34,5.57,2.79c-11.66,28.87-23.83,57.54-35.68,86.34c-3.73,9.07-7.51,18.13-11.22,27.21
			C454.6,1064.01,453.87,1066.13,452.3,1067.82z"/>
		<path class="st65" d="M381.8,499.34c-1.28,3.06,1.59,4,3.07,5.16c27.29,21.31,54.71,42.46,82.04,63.73
			c9.74,7.58,19.3,15.38,28.94,23.09c-0.88,2.85-2.8,3.06-5.2,2.06c-6.81-3.66-12.23-9.21-18.33-13.82
			c-16.93-12.81-33.53-26.05-50.26-39.11c-14.71-11.48-29.49-22.88-44.06-34.54c-1.35-1.08-5.4-2.13-2.43-5.56
			C377.65,500,379.73,499.67,381.8,499.34z"/>
		<path class="st66" d="M496.9,946.57c-2.67,0.27-3.01,2.68-3.75,4.45c-15.23,36.84-30.4,73.72-45.54,110.6
			c-1.22,2.98-3.94,5.62-2.5,9.33c-1.81,1.42-4.11,1.41-6.16,2.12c-4.29-1.5-1.93-4.52-1.12-6.6c2.71-7.06,5.58-14.06,8.48-21.05
			c13.51-32.57,27.03-65.13,40.55-97.69c0.66-1.58,1.11-3.28,2.53-4.43C492.45,943.09,495.43,943.09,496.9,946.57z"/>
		<path class="st67" d="M235.76,774.5c-2.78-5.93-8.7-8.47-13.43-12.22c-21.37-16.92-42.89-33.64-64.35-50.43
			c-11.48-8.98-22.95-17.96-34.44-26.91c-0.37-0.29-0.98-0.26-1.48-0.39c1.02-1.39,2.05-2.77,3.07-4.16
			c2.64-1.45,4.24,0.68,5.86,1.94c23.89,18.64,47.85,37.18,71.68,55.89c11.38,8.93,22.82,17.77,34.22,26.67
			c1.91,1.49,4.05,2.77,3.83,5.68C239.78,772.77,238.96,775.15,235.76,774.5z"/>
		<path class="st68" d="M503.2,1012.9c1.74,0.07,3.34-0.33,4.99-0.98c23.07-9.18,46.15-18.33,69.27-27.39
			c24.84-9.73,49.71-19.36,74.58-29c4.44-1.72,8.93-3.29,13.43-4.85c1.5-0.52,3.19-1.88,4.52,0.37c-1.36,1.96-3.01,3.62-4.97,4.98
			c-13.43,7.21-27.96,11.76-42.06,17.3c-36.79,14.46-73.66,28.7-110.52,42.98c-3.9,1.51-7.61,4.24-12.24,3.19
			C498.92,1016.27,500.5,1014.34,503.2,1012.9z"/>
		<path class="st69" d="M452.3,1067.82c2.14-9.46,6.79-17.97,10.39-26.86c11.95-29.49,24.21-58.85,36.37-88.25
			c0.65-1.58,1.16-3.3,2.97-4.05c2.45-1.27,4.23-0.44,5.56,1.78c-1.9,9.35-6.56,17.67-10.09,26.4
			c-11.53,28.53-23.82,56.74-35.1,85.37c-0.19,0.48-0.48,0.91-0.78,1.33C458.68,1065.32,455.6,1066.81,452.3,1067.82z"/>
		<path class="st70" d="M708.1,745.63c-0.04,1.71-0.08,3.43-0.12,5.14c-2.14,0.89-4.07-0.11-5.99-0.76
			C646.45,731.43,591.2,712,535.61,693.55c-0.98-0.33-1.95-0.69-2.81-1.29c-1.42-1.27-1.98-2.76-1.19-4.59
			c2.44-2.71,5.08-1.13,7.62-0.29c40.4,13.32,80.51,27.51,120.86,40.96c14.54,4.85,28.89,10.27,43.51,14.87
			C705.27,743.74,706.86,744.33,708.1,745.63z"/>
		<path class="st71" d="M489.58,943.5c-5.02,14.81-11.68,28.97-17.61,43.42c-10.82,26.38-21.84,52.67-32.63,79.06
			c-0.87,2.12-3.02,4.6-0.4,7.09c-2.23,1.46-4.7,2.05-7.34,2c-3.62-1.34-1.61-3.9-0.96-5.75c2.75-7.8,6.15-15.34,9.34-22.96
			c13.49-32.24,26.71-64.59,40.16-96.85c1.18-2.84,2.12-5.83,4.13-8.28C486.46,941,488.82,940.38,489.58,943.5z"/>
		<path class="st72" d="M691.91,668.87c-2.69,0.51-5.08-0.6-7.51-1.42c-23.46-7.92-46.92-15.82-70.36-23.8
			c-29.46-10.02-58.91-20.07-88.34-30.2c-3.03-1.04-6.52-1.02-8.98-3.52c-1.3-0.88-2.08-1.91-1.04-3.48
			c4.08-1.88,7.84,0.04,11.44,1.37c26.68,9.8,53.77,18.42,80.64,27.69c24.42,8.42,48.82,16.92,73.39,24.9
			c2.77,0.9,5.49,2.08,8.47,2.17C690.37,664.67,691.14,666.77,691.91,668.87z"/>
		<path class="st73" d="M500.08,1019.12c10.66-2.79,20.62-7.51,30.85-11.44c36.56-14.02,73.03-28.3,109.53-42.48
			c8.14-3.16,16.07-6.93,24.56-9.16c-3.48,3.88-7.13,7.56-11.81,10.03c-7.15,0.27-13.19,4.06-19.59,6.51
			c-36.53,13.96-72.95,28.23-109.41,42.4c-9.11,3.54-18.03,7.55-27.43,10.33C495.66,1022.06,497.56,1020.43,500.08,1019.12z"/>
		<path class="st74" d="M681.38,936.66c-0.58-3.53-2.51-1.18-3.72-0.71c-15.25,5.85-30.48,11.79-45.71,17.69
			c-33.2,12.87-66.39,25.73-99.59,38.59c-8.02,3.11-16.05,6.18-24.07,9.27c-1.48-2.44-0.14-4.24,1.35-6.01
			c7.56-3.75,15.59-6.4,23.44-9.4c16.09-6.14,32.11-12.45,48.18-18.64c26.05-10.03,52.13-19.99,78.03-30.41
			c6.87-2.76,13.82-5.32,20.68-8.1c1.9-0.77,4.46-2.55,5.49,1.26C684.56,932.65,683.19,934.79,681.38,936.66z"/>
		<path class="st26" d="M484.41,941.41c-2.02,8.39-6.19,15.94-9.42,23.85c-14.16,34.62-28.62,69.12-42.84,103.72
			c-0.73,1.78-2.81,3.87-0.54,6.09c-1.49,1.5-3.4,0.89-5.16,1.03c-4.21-1.1-1.37-3.84-0.81-5.28c4.91-12.45,10.11-24.79,15.24-37.16
			c9.66-23.3,19.34-46.6,29.01-69.9c2.89-6.97,5.78-13.95,8.68-20.92c0.55-1.32,1.25-2.48,2.9-2.55
			C482.86,939.56,484.13,939.17,484.41,941.41z"/>
		<path class="st75" d="M185.96,986.04c1.54-1.12,1.3-2.79,1.08-4.26c-2.63-17.91-5.42-35.8-7.99-53.72
			c-2.26-15.73-4.22-31.5-6.47-47.24c-2.59-18.09-5.48-36.14-7.97-54.25c-0.77-5.59-1.27-11.21-2.27-16.77
			c-0.26-1.47-0.43-3.15,1.15-4.22c1.58,0.3,2.99,0.93,4.13,2.09c3.34,19.19,5.63,38.53,8.49,57.78
			c4.91,33.06,9.26,66.2,14.14,99.27c0.96,6.47,2.01,12.95,2.51,19.47c0.16,2.04,0.89,4.75-2.66,4.95
			C188.55,988.33,186.92,987.62,185.96,986.04z"/>
		<path class="st76" d="M524.94,938.31c8.65-1.79,16.53-5.73,24.69-8.87c35.14-13.53,70.21-27.22,105.3-40.89
			c15.38-5.99,30.71-12.1,46.1-18.09c1.9-0.74,3.96-1.04,5.95-1.55c-0.29,1.38-0.59,2.76-0.88,4.14c-2.42,2.69-5.83,3.61-9.01,4.84
			c-55.41,21.39-110.74,42.96-166.07,64.54c-2.38,0.93-4.75,2.17-7.44,1.12C522.64,941.44,523.22,939.72,524.94,938.31z"/>
		<path class="st77" d="M101.38,731.1c-0.28-2.17,0.5-4.17,1-6.21c2.48-2.91,4.35-0.34,6.04,0.91c9.15,6.78,17.98,13.99,26.98,20.97
			c22.77,17.67,45.41,35.51,68.18,53.18c2.02,1.56,4.43,2.83,4.87,5.74c-0.69,2.57-1.88,4.7-4.68,5.47
			c-18.55-15.61-38.1-29.96-57.08-45.02C131.72,754.27,116.65,742.55,101.38,731.1z"/>
		<path class="st78" d="M693.55,914.16c-1.38,2.04-0.87,4.92-2.93,6.66c-10.87,2.26-20.73,7.32-30.98,11.26
			c-46.57,17.92-93,36.22-139.53,54.24c-2.29,0.89-4.74,2.7-6.97-0.21c-0.44-2.14,0.21-3.84,2.03-5.07
			c40.05-15.48,80.05-31.11,120.07-46.69c17.52-6.82,35.03-13.65,52.6-20.36C689.57,913.31,691.75,911.2,693.55,914.16z"/>
		<path class="st32" d="M533.13,691.77c13.53,3.35,26.54,8.35,39.72,12.76c32.11,10.74,64.12,21.79,96.16,32.75
			c13.01,4.45,25.98,8.99,38.97,13.49c0.91,1.25,1.5,2.59,1.1,4.18c-2.8,1.97-5.35,0.14-7.83-0.71
			c-41.71-14.41-83.52-28.49-125.29-42.71c-13.86-4.72-27.53-10.02-41.68-13.87c-0.8-0.41-1.4-1.01-1.81-1.81
			C531.96,694.37,531.87,692.96,533.13,691.77z"/>
		<path class="st79" d="M136.22,666.84c1.12-1.34,2.24-2.67,3.36-4c2.63-0.5,4.11,1.53,5.78,2.83
			c30.37,23.53,60.6,47.22,90.89,70.85c5.3,4.13,10.57,8.3,15.92,12.36c2.05,1.56,4.27,3.07,4.09,6.14
			c-0.53,1.93-1.62,3.24-3.74,3.43c-11.99-8.12-22.97-17.56-34.41-26.4c-26.05-20.11-51.86-40.55-77.89-60.7
			C138.62,670.1,136.69,669.11,136.22,666.84z"/>
		<path class="st80" d="M531.19,680.37c4.67-0.42,8.72,1.77,12.91,3.19c29.31,9.92,58.59,19.92,87.85,29.95
			c25.03,8.58,50.04,17.25,75.06,25.87c0.08,1.03,0.15,2.07,0.23,3.1c-2.72,2.4-5.29,0.32-7.7-0.49
			c-33.66-11.34-67.27-22.83-100.89-34.31c-22.25-7.6-44.53-15.08-66.75-22.76C530.79,683.54,529.69,682.16,531.19,680.37z"/>
		<path class="st81" d="M520.85,624.43c13.18,3.37,25.76,8.55,38.64,12.83c37.22,12.39,74.32,25.13,111.42,37.86
			c8.29,2.84,16.47,5.99,24.93,8.33c1.64,0.94,1.32,2.74,1.82,4.18c-2.62,2.17-5.26,0.84-7.81-0.07
			c-40.84-14.55-82.09-27.93-123.03-42.2c-13.8-4.81-27.73-9.26-41.5-14.16c-1.47-0.52-2.96-0.93-4.05-2.15
			C520.41,627.58,519.31,626.13,520.85,624.43z"/>
		<path class="st26" d="M216.11,1005.68c-0.14-13.23-3.09-26.14-4.65-39.21c-1.61-13.4-3.79-26.73-5.69-40.1
			c-2.21-15.57-4.38-31.14-6.6-46.71c-1.93-13.53-3.98-27.05-5.8-40.6c-0.88-6.56-2.77-13.02-2.14-19.74
			c1.78,0.37,3.55,0.74,5.33,1.11c0.31,0.55,0.43,1.13,0.38,1.76c-0.02,9.51,2.09,18.79,3.42,28.13
			c3.01,21.28,5.83,42.59,8.96,63.85c3.38,22.96,6.56,45.96,9.89,68.93c0.99,6.81,2.19,13.59,2.74,20.46
			c0.14,1.75,1.06,3.85-1.86,4.27C218.54,1007.51,217.15,1006.92,216.11,1005.68z"/>
		<path class="st64" d="M171.75,809.74c1.6,0.25,3,0.91,4.15,2.07c2.42,19.07,5.37,38.06,8.05,57.09
			c2.87,20.39,5.89,40.77,8.69,61.17c2.56,18.7,5.2,37.39,7.9,56.07c0.46,3.17,1.36,6.48-1.05,9.37c-2.12-0.48-3.6-1.95-5.13-3.33
			c-7.93-58.78-16.53-117.47-24.81-176.2C169.22,813.72,167.99,810.74,171.75,809.74z"/>
		<path class="st82" d="M314.41,522.74c8.08,7.68,17.25,14.01,25.99,20.87c21.43,16.83,42.88,33.63,64.38,50.36
			c10.95,8.52,22.04,16.88,33.06,25.3c0.07,2.18-1.82,2.14-3.11,2.78c-3.2,0.8-5.17-1.47-7.32-3.08
			c-20.41-15.34-39.94-31.79-60.19-47.35c-18.05-13.87-36.03-27.83-53.82-42.04c-1.51-1.21-3.76-2.07-3.12-4.75
			C311.42,523.65,312.86,523.08,314.41,522.74z"/>
		<path class="st83" d="M461.62,1063.55c-0.69-3.66,1.2-6.74,2.48-9.85c14.06-34.1,28.23-68.16,42.38-102.22
			c0.12-0.29,0.46-0.49,0.69-0.74c2.29-1.29,3.67-0.07,4.85,1.73c0.8,2.5-0.2,4.75-1.12,6.96c-13.29,31.69-26.08,63.59-39.54,95.21
			c-0.13,0.31-0.19,0.66-0.29,0.99c-0.8,1.76-3.62,2.18-3.15,4.78C465.83,1061.46,463.73,1062.5,461.62,1063.55z"/>
		<path class="st84" d="M698.86,692.73c-0.58,2.98-2.52,2.17-4.37,1.54c-29.15-9.9-58.28-19.83-87.43-29.72
			c-27.2-9.22-54.4-18.41-81.61-27.6c-0.47-0.16-1.03-0.07-1.54-0.09c-1.34-0.87-1.91-2-1.23-3.56c2.13-2.31,4.46-1.01,6.69-0.28
			c21.45,6.99,42.74,14.44,64.1,21.68c33.76,11.43,67.44,23.1,101.24,34.41c1.16,0.39,2.26,0.8,3.21,1.58
			C698.89,691.06,698.93,691.87,698.86,692.73z"/>
		<path class="st85" d="M685.46,930.2c-0.95-1.43-2.29-1.42-3.66-0.87c-14.32,5.72-28.57,11.65-42.97,17.17
			c-16.52,6.34-33.06,12.67-49.54,19.09c-16.26,6.33-32.6,12.52-48.74,19.18c-9.97,4.11-20.14,7.72-30.22,11.55
			c-1.32-1.75-0.28-3.14,0.69-4.54c8.99-5.25,18.99-8.11,28.6-11.86c25.54-9.97,51.07-19.98,76.64-29.86
			c22.2-8.58,44.34-17.32,66.57-25.83c1.85-0.71,3.79-1.97,5.83-0.37C687.59,925.98,686.53,928.09,685.46,930.2z"/>
		<path class="st74" d="M508.54,586.18c28.68,9.63,57.38,19.21,86.03,28.91c26.87,9.1,53.69,18.35,80.55,27.5
			c1.93,0.66,3.97,1.03,5.96,1.53c0.69,1.38,1.37,2.76,2.06,4.14c-2.18,1.76-4.3,0.43-6.35-0.23
			c-47.93-15.41-95.43-32.13-143.16-48.15c-7.68-2.58-15.29-5.37-23.02-7.79c-1.82-1.13-2.93-2.61-2.41-4.89
			C508.31,586.86,508.42,586.52,508.54,586.18z"/>
		<path class="st27" d="M171.75,809.74c-1.58,1.09-1.35,2.76-1.14,4.24c2.64,17.95,5.43,35.87,8,53.83
			c2.6,18.13,4.93,36.31,7.5,54.45c2.61,18.47,5.62,36.89,7.9,55.4c0.58,4.71,3.27,9.64,0.34,14.52c-1.6-0.76-3.24-1.47-4.26-3.04
			c1.63-0.64,1.56-1.75,1.34-3.32c-1.95-13.87-3.72-27.76-5.63-41.64c-1.93-14.04-3.93-28.06-5.95-42.09
			c-2.27-15.72-4.6-31.42-6.89-47.13c-2.17-14.87-4.32-29.74-6.47-44.61c-0.16-1.09,0.13-2.05,1.12-2.68
			C169.2,807.94,170.6,808.58,171.75,809.74z"/>
		<path class="st86" d="M686.41,654.46c1.28,1.88,2.38,3.81,1.91,6.23c-1.88,1.38-3.65,0.27-5.38-0.33
			c-28.08-9.64-56.21-19.12-84.29-28.75c-26.77-9.19-53.63-18.14-80.38-27.4c-1.47-0.51-2.96-0.96-4.3-1.78
			c-1.28-0.98-1.62-2.24-1.11-3.75c1.68-2.5,3.97-1.64,6.04-0.89c18.5,6.62,37.27,12.45,55.78,19.06
			c7.31,2.61,14.69,4.97,22.03,7.49c25.43,8.73,50.96,17.2,76.33,26.11C677.43,652,681.85,653.48,686.41,654.46z"/>
		<path class="st87" d="M105.43,714.56c6.95,2.19,11.7,7.66,17.24,11.86c16.78,12.73,33.24,25.88,49.84,38.84
			c13.5,10.54,27.02,21.06,40.53,31.57c0.4,0.31,0.91,0.48,1.36,0.72c0.61,2.72-0.94,3.86-3.25,4.46
			c-6.66-2.39-11.31-7.75-16.65-11.93c-21.54-16.83-43.25-33.44-64.68-50.41c-7.41-5.87-14.91-11.62-22.34-17.46
			c-1.33-1.04-2.94-1.87-3.54-3.64C104.44,717.24,104.93,715.9,105.43,714.56z"/>
		<path class="st88" d="M514.01,601.79c14.22,3.46,27.72,9.1,41.55,13.75c41.22,13.86,82.37,27.91,123.55,41.9
			c3.08,1.05,6.14,2.16,9.22,3.24c0.43,0.63,0.86,1.26,1.28,1.88c-1.57,2.09-3.36,0.96-5.12,0.36
			c-21.01-7.13-42.07-14.12-62.98-21.56c-21.87-7.79-44.04-14.73-66.05-22.11c-11.41-3.82-22.79-7.74-34.15-11.72
			c-1.86-0.65-3.7-0.71-5.59-0.73C513.67,605.64,513.14,603.95,514.01,601.79z"/>
		<path class="st89" d="M136.22,666.84c32.37,25.26,64.75,50.5,97.11,75.77c6.45,5.03,13.53,9.29,19.05,15.48
			c0.33,2.4-1.08,3.22-3.13,3.44c-14.12-10.18-27.58-21.22-41.29-31.93c-23.77-18.58-47.73-36.92-71.31-55.74
			c-1.32-1.05-2.97-1.85-3.28-3.8C133.92,668.64,134.98,667.66,136.22,666.84z"/>
		<path class="st90" d="M534.16,696.94c4.67-0.45,8.72,1.73,12.91,3.15c30.43,10.3,60.84,20.67,91.24,31.07
			c21.62,7.39,43.2,14.88,64.82,22.28c1.93,0.66,3.97,1.01,5.95,1.51c0.07,1.01,0.13,2.03,0.2,3.04c0,0-0.18,0.13-0.18,0.13
			c-2.94,2.1-5.67,0.29-8.34-0.59c-41.58-13.75-82.88-28.29-124.41-42.17c-12.75-4.26-25.41-8.8-38.15-13.1
			C535.92,701.5,532.05,701.3,534.16,696.94z"/>
		<path class="st91" d="M103.94,718.58c8.04,4.65,14.85,10.96,22.24,16.49c9.45,7.07,18.5,14.67,27.8,21.95
			c13.2,10.34,26.46,20.59,39.68,30.91c5.79,4.52,11.53,9.12,17.29,13.68c0.09,2.22-0.21,4.13-3.17,3.85
			c-8.31-7.95-17.85-14.34-26.84-21.44c-20.01-15.81-40.11-31.5-60.18-47.23c-4.72-3.7-9.44-7.38-14.19-11.02
			c-1.22-0.94-2.51-1.92-4.19-0.88C102.58,722.7,102.88,720.55,103.94,718.58z"/>
		<path class="st92" d="M101.38,731.1c4.73-0.01,7.28,3.88,10.45,6.3c20.67,15.7,40.86,32.02,61.54,47.73
			c9.64,7.32,19.1,14.92,28.54,22.52c0.96,0.77,1.73,1.69,1.72,3.02c0.73,2.57-0.83,3.32-2.91,3.66c-0.83-3.12-3.66-4.46-5.86-6.18
			c-20.9-16.35-41.93-32.53-62.86-48.85c-8.91-6.95-17.65-14.12-26.54-21.1c-1.16-0.91-2.77-1.27-4.16-1.89
			C101.33,734.58,101.36,732.84,101.38,731.1z"/>
		<path class="st93" d="M255.52,755.09c-0.17-2.57-2.13-3.79-3.89-5.16c-22.98-17.92-45.95-35.85-68.95-53.74
			c-14.34-11.15-28.74-22.24-43.11-33.35c0.59-1.43,1.62-2.46,2.98-3.18c28.67,22.32,57.38,44.6,86,66.98
			c10.39,8.13,20.47,16.66,31.28,24.25C259.66,753.56,258.31,755.06,255.52,755.09z"/>
		<path class="st94" d="M693.55,914.16c-6.69,0.12-12.29,3.78-18.22,6.06C623.1,940.33,571,960.79,518.85,981.11
			c-1.09,0.42-2.33,0.45-3.49,0.66c-0.56-0.72-0.56-1.51-0.27-2.33c1.23-2.39,3.66-3.07,5.87-3.93
			c34.03-13.32,68.11-26.5,102.16-39.74c21.84-8.49,43.61-17.19,65.54-25.46c2.07-0.78,4.06-2,6.43-1.48
			c0.22,0.16,0.43,0.32,0.65,0.48C695.41,911.11,695.07,912.9,693.55,914.16z"/>
		<path class="st95" d="M491.51,551.97c1.18,2.05,2.36,4.1,3.53,6.15c0.25,0.7,0.49,1.4,0.74,2.1c-7.02-2.05-11.73-7.59-17.26-11.77
			c-16.92-12.8-33.61-25.91-50.16-39.18c-3.33-2.67-8.04-4.23-9.21-9.17c6.01,1.45,12.4,1.58,17.83,5.09
			c3.37,4.39,8.15,7.13,12.42,10.44c11.63,9.02,22.86,18.56,34.96,26.98C486.75,545.74,489.13,548.86,491.51,551.97z"/>
		<path class="st96" d="M129.16,675.22c0.62-0.72,1.24-1.44,1.86-2.16c2.73-1.68,4.59,0.22,6.43,1.69
			c19.42,15.45,39.18,30.48,58.69,45.83c15.17,11.93,30.44,23.75,45.66,35.62c2.43,1.9,5.96,3.17,6.14,7.14
			c-0.55,1.93-1.59,3.29-3.81,3.29c-4.11-4.21-9.14-7.28-13.69-10.94c-18.77-15.13-38.17-29.47-57.01-44.5
			c-13.19-10.52-26.65-20.68-39.91-31.11C131.8,678.72,129.64,677.72,129.16,675.22z"/>
		<path class="st97" d="M180.94,814.93c-1.31,5.84,0.7,11.47,1.41,17.12c2.01,16.09,4.53,32.12,6.84,48.18
			c2.31,16.06,4.61,32.12,6.89,48.18c1.85,13.02,3.82,26.03,5.49,39.07c1.36,10.67,3.59,21.23,4.17,32
			c-1.47,0.02-2.46-0.74-3.14-1.98c-3.18-4.17-2.09-9.31-2.84-13.94c-2.29-14.17-4.44-28.38-6.17-42.61
			c-2.25-18.51-5.09-36.93-7.67-55.38c-2.53-18.11-4.93-36.25-7.92-54.29c-0.78-4.71-1.08-9.51-2.04-14.22
			c-0.37-1.82-0.06-3.45,1.91-4.28C178.89,813.49,179.92,814.21,180.94,814.93z"/>
		<path class="st82" d="M310.29,524.84c5.84,6.57,13.35,11.17,20.08,16.67c12.05,9.86,24.69,18.99,36.97,28.58
			c17.41,13.6,34.7,27.34,52.05,41.01c3.63,2.86,7.36,5.61,10.93,8.54c1.26,1.03,2.45,1.87,4.13,1.69
			c-0.05,2.92-1.72,2.91-3.82,2.11c-6.53-3.15-11.55-8.4-17.23-12.71c-15.4-11.69-30.42-23.89-45.66-35.79
			c-19.42-15.17-38.91-30.25-58.36-45.37c-1.11-0.86-2.07-1.84-2.09-3.38C308.29,525.73,309.29,525.28,310.29,524.84z"/>
		<path class="st98" d="M697.92,690.69c-9.48-1.2-18.1-5.25-27.06-8.17c-14.88-4.84-29.65-10.02-44.46-15.06
			c-32.55-11.09-65.1-22.2-97.67-33.24c-1.83-0.62-3.75-2.09-5.82-0.46c-1.65-1.47-2.55-3.08-1.02-5.18
			c22.27,7.61,44.54,15.24,66.81,22.84c32.37,11.04,64.75,22.05,97.12,33.1c3.88,1.32,7.49,3.63,11.85,3.11
			C697.75,688.65,697.83,689.67,697.92,690.69z"/>
		<path class="st99" d="M129.16,675.22c11.2,8.63,22.42,17.23,33.59,25.9c14.26,11.08,28.28,22.48,42.76,33.27
			c12.4,9.24,23.67,19.94,36.8,28.22c1.2,0.76,1.63,2.18,1.74,3.61c0.65,1.8-0.53,2.25-1.9,2.56
			c-14.57-10.88-28.78-22.23-43.12-33.41c-23.28-18.15-46.59-36.27-69.82-54.48c-0.95-0.74-2.01-1.36-2.32-2.65
			C127.65,677.23,128.41,676.23,129.16,675.22z"/>
		<path class="st100" d="M220.08,1007.84c2.3-3.08,0.24-6.31-0.13-9.26c-2.4-18.98-5.24-37.91-8.01-56.84
			c-2.65-18.09-5.48-36.15-8.05-54.24c-2.26-15.9-4.27-31.84-6.43-47.76c-0.48-3.55-1.19-7.08-1.67-10.63
			c-0.36-2.65-1.31-5.41,0.73-7.85c0.85,0.01,1.56,0.29,1.99,1.08c0,0.33,0,0.66,0,0.99c2.64,16.76,4.83,33.59,7.28,50.38
			c2.36,16.13,4.53,32.28,6.85,48.42c2.24,15.61,4.46,31.22,6.64,46.84c1.52,10.86,2.95,21.74,4.76,32.56
			c0.32,1.9,0.51,3.77,0.17,5.64c-0.28,1.52-1.07,2.6-2.87,1.57C220.92,1008.43,220.5,1008.13,220.08,1007.84z"/>
		<path class="st101" d="M460.62,607.01c-4.72-6.82-12.02-10.69-18.3-15.67c-23.13-18.33-46.54-36.32-69.81-54.47
			c-10.29-8.02-20.5-16.14-30.77-24.17c-0.74-0.58-1.21-1.17-1.3-2.08c1.24-0.82,2.58-1.31,4.08-1.34
			c38.67,30.58,77.82,60.55,116.49,91.13c1.61,1.28,3.46,2.34,4.04,4.53C464.27,607.14,462.6,607.4,460.62,607.01z"/>
		<path class="st98" d="M699.27,899.07c-0.26,1.49-0.1,3.11-1.28,4.33c-6.66,0.66-12.47,3.9-18.53,6.26
			c-51.76,20.15-103.56,40.2-155.31,60.38c-1.88,0.73-3.82,1.83-5.88,0.39c-0.76-1.43-0.5-2.67,0.7-3.74
			c21.33-8.74,42.92-16.83,64.39-25.25c31.88-12.5,63.84-24.82,95.73-37.3c4.65-1.82,9.35-3.49,13.99-5.35
			C695.11,897.98,697.3,897,699.27,899.07z"/>
		<path class="st102" d="M518.57,970.41c16.19-6.2,32.4-12.34,48.57-18.59c33-12.75,65.98-25.56,98.96-38.35
			c8.81-3.42,17.6-6.87,26.38-10.33c1.9-0.75,3.78-2.08,5.51,0.27c0.06,0.29-0.03,0.53-0.26,0.73c-3.63,3.5-8.51,4.46-12.96,6.18
			c-36.49,14.12-72.92,28.38-109.39,42.54c-17.03,6.62-34.04,13.27-51.1,19.81c-2.27,0.87-4.59,1.69-6.89,0.01
			C517.02,971.52,516.77,970.43,518.57,970.41z"/>
		<path class="st84" d="M699.27,899.07c-6.65-0.21-12.16,3.47-17.98,5.71c-46.45,17.87-92.76,36.09-139.13,54.15
			c-7.5,2.92-14.86,6.27-22.67,8.34c-0.64-0.62-0.83-1.4-0.83-2.26c0.08-0.85,0.37-1.6,1.05-2.16c14.89-4.35,29.02-10.74,43.46-16.3
			c43.53-16.75,86.96-33.75,130.43-50.62c2.21-0.86,5.03-2.93,6.43,1.25C699.78,897.81,699.53,898.44,699.27,899.07z"/>
		<path class="st103" d="M520.75,959.03c9.01-1.53,17.1-5.75,25.55-8.88c15.81-5.86,31.48-12.11,47.17-18.29
			c15.84-6.23,31.6-12.67,47.47-18.84c15.41-6,30.86-11.9,46.39-17.58c4.8-1.76,9.02-5.5,14.65-4.74c0.05,1.19-0.04,2.34-0.95,3.25
			c-16.26,5.18-31.9,11.97-47.79,18.12c-42.57,16.48-85.1,33.08-127.65,49.6c-1.7,0.66-3.41,1.95-5.31,0.42
			C519.76,960.97,519.78,959.93,520.75,959.03z"/>
		<path class="st104" d="M513.56,985.97c1.94,1.55,3.51,0.08,5.23-0.59c42.57-16.63,85.14-33.24,127.71-49.85
			c12.48-4.87,24.95-9.8,37.49-14.5c2-0.75,4.35-2.78,6.62-0.21c-0.36,0.67-0.72,1.34-1.08,2.01c-9.71,2.44-18.75,6.72-28.04,10.31
			c-38.53,14.89-77.03,29.86-115.49,44.93c-10.26,4.02-20.53,8.07-30.86,11.91c-0.97,0.36-1.86,0.95-2.91,0.28
			C511.29,988.4,511.91,987.02,513.56,985.97z"/>
		<path class="st101" d="M464.91,604.82c-22.83-17.78-45.67-35.55-68.49-53.35c-16.47-12.86-32.88-25.8-49.38-38.62
			c-1.29-1-2.51-1.78-2.54-3.56c1.18-1.09,2.56-1.68,4.16-1.77c-1.22,1.86-0.49,2.85,1.2,4.15c22.35,17.29,44.62,34.68,66.89,52.07
			c15.79,12.34,31.54,24.73,47.33,37.06c1.04,0.81,1.65,1.71,1.69,3.01C466.03,604.61,465.65,604.87,464.91,604.82z"/>
		<path class="st105" d="M532.18,684.52c12.03,2.96,23.56,7.49,35.3,11.35c13.71,4.51,27.34,9.27,41.01,13.94
			c30.58,10.44,61.16,20.88,91.74,31.3c2.27,0.77,4.51,1.76,7.02,1.39c1.29,0.77,0.9,2,0.86,3.14c-9.11-1.91-17.72-5.42-26.5-8.38
			c-30.3-10.19-60.52-20.6-90.77-30.92c-18.05-6.16-36.12-12.28-54.13-18.56c-1.61-0.56-2.97-0.43-4.47-0.15
			C531.18,686.6,531.19,685.57,532.18,684.52z"/>
		<path class="st106" d="M263.75,747.48c-2.79-4.76-7.61-7.37-11.7-10.63c-16.58-13.21-33.4-26.11-50.16-39.09
			c-14.73-11.42-29.41-22.91-44.31-34.12c-3.65-2.74-6.37-6.78-11.01-8.18c0.67-0.7,1.34-1.41,2.02-2.11
			c8.46,5.27,15.85,11.96,23.7,18.02c29.57,22.82,59.01,45.8,88.4,68.84c1.91,1.49,4.47,2.67,5.15,5.46
			C265.98,747.23,265.51,748.09,263.75,747.48z"/>
		<path class="st85" d="M686.41,654.46c-1.68,1.95-3.46,0.73-5.2,0.14c-50.02-16.99-100.05-33.98-150.06-50.99
			c-4.23-1.44-8.4-3.07-12.61-4.56c-1.76-0.62-3.54-1.49-5.44-0.4c-1.52-0.53-1.38-1.47-0.62-2.56c0.99-0.66,2.08-0.75,3.22-0.62
			c13.35,4.04,26.43,8.93,39.75,13.07c15.45,4.79,30.89,9.61,46.1,15.1c17.01,6.14,34.36,11.27,51.3,17.59
			c0.82,0.31,1.67,0.38,2.53,0.43c6.44,0.61,12.22,3.4,18.22,5.46c3.56,1.22,6.98,2.98,10.88,2.91
			C685.63,651.29,686.18,652.8,686.41,654.46z"/>
		<path class="st107" d="M517.65,972.5c8.78-0.63,16.31-5.13,24.27-8.16c35.01-13.36,69.89-27.04,104.83-40.58
			c16.98-6.58,33.99-13.09,50.99-19.63c-0.26,1.89-0.76,3.68-2,5.19l-0.14-0.1c-5.15-0.93-9.22,2.28-13.53,3.95
			c-51.14,19.88-102.27,39.79-153.45,59.57c-2.57,0.99-5.11,2.05-7.7,2.97c-1.53,0.54-3.03,0.99-3.94-0.98
			C516.81,973.86,516.96,973.09,517.65,972.5z"/>
		<path class="st108" d="M705.03,878.23c-11.96,2.72-22.93,8.2-34.29,12.55c-36.42,13.97-72.75,28.16-109.08,42.35
			c-12.96,5.06-25.83,10.36-38.74,15.54c-1.33-1.29-0.99-2.49,0.17-3.66c29.71-11.49,59.39-23.08,89.09-34.61
			c28.9-11.22,57.76-22.52,86.68-33.69c2.03-0.79,3.95-2.13,6.32-1.57C705.13,876.17,705.08,877.2,705.03,878.23z"/>
		<path class="st109" d="M247.16,763.11c-5.32-6.86-12.9-11.05-19.55-16.32c-21.36-16.93-42.9-33.62-64.37-50.4
			c-9.46-7.39-18.94-14.74-28.36-22.17c-1.2-0.94-2.47-1.11-3.85-1.17c0.78-1,1.56-2,2.34-3c19.33,15.04,38.68,30.06,58,45.11
			c17.84,13.89,35.64,27.83,53.52,41.68c1.65,1.28,3.31,2.44,4.37,4.27C249.51,762.8,248.92,763.57,247.16,763.11z"/>
		<path class="st97" d="M177.87,812.78c-2.52,3.68-0.29,7.49,0.17,11.01c3.48,26.45,7.37,52.84,11.19,79.24
			c3.35,23.18,6.8,46.35,10.13,69.54c1.19,8.29,2.16,16.62,3.23,24.93c-1.4-0.1-2.42-0.79-3.11-1.99
			c0.46-10.55-2.31-20.74-3.56-31.1c-1.66-13.75-3.77-27.45-5.71-41.18c-2.2-15.59-4.39-31.17-6.62-46.76
			c-1.91-13.38-3.86-26.75-5.81-40.12c-0.91-6.26-1.89-12.51-2.8-18.77c-0.29-2-1.04-4.1,0.9-5.77
			C176.55,812.13,177.21,812.46,177.87,812.78z"/>
		<path class="st100" d="M221.33,1008.73c3.4-0.86,2.17-3.73,1.92-5.55c-2.12-15.57-4.51-31.1-6.77-46.65
			c-1.89-13.02-3.7-26.05-5.55-39.08c-2.33-16.4-4.67-32.8-6.97-49.21c-2.06-14.7-4.07-29.42-6.06-44.13
			c-0.03-0.23,0.39-0.52,0.6-0.78c3.55,6.36,2.89,13.61,4,20.43c3.1,19.06,5.59,38.22,8.26,57.35c2.53,18.12,4.89,36.27,7.47,54.38
			c2.24,15.74,4.74,31.44,7,47.17c0.39,2.71,0.13,5.5,0.17,8.26C223.75,1010.74,222.41,1009.97,221.33,1008.73z"/>
		<path class="st108" d="M705.18,875.14c-36.62,14.3-73.22,28.66-109.87,42.89c-23.83,9.26-47.73,18.35-71.61,27.51
			c-0.55-0.76-0.47-1.44,0.23-2.05c36.83-14.29,73.65-28.61,110.49-42.87c23.87-9.24,47.77-18.39,71.66-27.57
			C706.17,873.91,706.14,874.73,705.18,875.14z"/>
		<path class="st110" d="M126.9,678.24c8.1,4.91,15.12,11.28,22.62,16.99c16.79,12.8,33.3,25.96,49.93,38.96
			c13.39,10.46,26.8,20.9,40.17,31.38c0.93,0.73,1.58,1.8,2.36,2.72c0.38,1.77-0.29,2.47-2.07,2.07c-2.01-5.46-7.5-7.34-11.5-10.51
			c-32.23-25.48-64.75-50.59-97.19-75.8c-1.88-1.46-3.63-3.15-6.09-3.66C125.72,679.67,126.31,678.96,126.9,678.24z"/>
		<path class="st36" d="M520.59,962.11c9.68-2.46,18.69-6.74,27.95-10.32c34.77-13.43,69.52-26.94,104.27-40.44
			c14.89-5.78,29.76-11.62,44.65-17.42c1.17-0.45,2.39-1.81,3.56,0.03c-0.02,1.17-0.05,2.33-0.98,3.22
			c-1.5-2.12-3.23-1.16-5.04-0.46c-47.51,18.58-95.02,37.14-142.54,55.68c-9.12,3.56-18.25,7.09-27.42,10.52
			c-1.68,0.63-3.51,1.73-5.36,0.25C519.39,962.31,519.71,961.97,520.59,962.11z"/>
		<path class="st111" d="M684.48,650.03c-1.45,2.11-3.21,1.16-4.99,0.54c-6.23-2.19-12.48-4.32-18.71-6.53
			c-1.78-0.63-3.55-1.13-5.46-0.96c-11.59-5.42-24-8.55-36-12.82c-32.6-11.59-65.64-21.91-98.34-33.23
			c-3.26-1.13-6.6-1.95-9.91-2.93c-1.06-0.73-1.6-1.6-0.69-2.82c6.29,0.42,11.92,3.19,17.76,5.15
			c30.81,10.37,61.72,20.47,92.29,31.5c18.93,6.83,38.43,11.81,57.23,18.98c1.74,0.66,3.65,0.91,5.48,1.34
			C683.58,648.85,684.03,649.44,684.48,650.03z"/>
		<path class="st112" d="M484.36,542.62c-6.53-1.03-10.33-6.37-15.2-9.91c-9.8-7.11-19.26-14.7-28.69-22.31
			c-1.52-1.23-4.28-2.19-3.49-5.21c5.74,2.68,12.34,3.37,17.47,7.46c0.68,1.72,2.28,2.45,3.65,3.48
			C468.18,523.64,477.14,532.27,484.36,542.62z"/>
		<path class="st104" d="M512.45,990.1c21.14-8.17,42.28-16.34,63.42-24.52c33.31-12.9,66.62-25.82,99.93-38.75
			c2.88-1.12,5.66-2.56,8.6-3.47c1.59-0.49,3.23-2.39,5.13-0.54c-0.29,0.35-0.58,0.7-0.87,1.05c-14.77,4.57-28.9,10.81-43.29,16.36
			c-34.9,13.46-69.76,27.04-104.63,40.58c-9.75,3.79-19.5,7.58-29.25,11.37C510.83,991.03,511.5,990.5,512.45,990.1z"/>
		<path class="st3" d="M710.12,772.54c0.06-0.38,0.11-0.76,0.17-1.15c1.43,3.03,0.72,6.25,0.8,9.39
			C709.31,778.21,710.7,775.26,710.12,772.54z"/>
		<path class="st31" d="M412.03,499.05c-2.1-0.2-4.36,0.79-6.29-0.82C407.87,498.23,410.07,497.67,412.03,499.05z"/>
		<path class="st0" d="M510.38,591.29c-0.08,0.82-0.24,1.66,0.66,2.19c0.38,0.13,0.7,0.35,0.93,0.68c0.39,0.73,0.48,1.51,0.4,2.31
			c0.24,0.72,0.48,1.45,0.73,2.17c0.3,1.05,0.61,2.1,0.91,3.15c0.57,1.68,1.13,3.35,1.7,5.03c0.33,1.04,0.67,2.07,1,3.11
			c0.7,2.42,1.41,4.83,2.11,7.25c0.68,2.42,1.36,4.83,2.04,7.25c0.35,1.38,0.69,2.76,1.04,4.15c0.34,1.73,0.68,3.45,1.02,5.18
			c0.33,1.04,0.67,2.07,1,3.11c0.57,2.44,1.14,4.88,1.7,7.32c0.49,2.74,0.98,5.48,1.48,8.21c0.36,2.07,0.73,4.14,1.09,6.21
			c0.31,1.73,0.63,3.45,0.94,5.18c0.36,2.42,0.73,4.83,1.09,7.25c0.33,3.11,0.65,6.22,0.98,9.32c-0.5,1.58,0.85,2.72,0.98,4.15
			c0.02,1.04,0.03,2.07,0.05,3.11c-0.39,1.53-0.08,2.91,0.9,4.14c0.08,1.4,0.15,2.79,0.23,4.19c-0.75,3.2,3.26,5.91,0.94,9.27
			c-0.42,2.84,0.42,5.55,0.88,8.29c0.06,2.07,0.11,4.14,0.17,6.21c1.72,29.06,1.41,58.14,0.63,87.2c-0.81,30.39-2.08,60.78-5.75,91
			c-0.25,2.04-0.15,4.12-0.21,6.18c-0.88,2.7-1.26,5.45-1.03,8.29c-0.73,2.36-1.3,4.75-1,7.25c-0.62,2.03-1.28,4.05-0.99,6.22
			c-0.34,2.07-0.68,4.14-1.02,6.22c-0.5,2.05-1.36,4.03-1.03,6.22c-0.33,1.73-0.67,3.45-1,5.18c-0.08,0.68-0.15,1.37-0.23,2.05
			c-0.86,0.89-0.91,1.99-0.78,3.13c-0.35,1.73-0.7,3.45-1.05,5.18c-0.16,0.3-0.23,0.62-0.22,0.97c-1.35,2.58-3.29,2.12-5.36,1.06
			c-1.56-1.2-3.79-1.43-4.86-3.34c-1.25-0.99-2.64-1.66-4.25-1.79c-1.48-1.27-3.3-1.73-5.15-2.08c-1.47-1.29-3.28-1.74-5.13-2.09
			c-2.08-1.87-5.01-1.73-7.32-3.07c-1.36-1.61-3.68-0.82-5.18-2.09c-0.71-1.08-1.84-1.06-2.94-1.11c-2.12-1.81-4.74-2.41-7.34-3.06
			c-2.06-1.9-4.72-2.41-7.3-3.09c-2.07-1.88-5-1.73-7.29-3.09c-2.6-1.46-5.19-2.93-8.25-3.24c-2.78-2.13-6.13-2.93-9.35-4.02
			c-16.31-6.88-32.6-13.8-48.93-20.64c-33.02-13.84-66.03-27.7-99.1-41.41c-20.35-8.44-40.81-16.6-61.22-24.89
			c-1.96-1.01-3.84-2.26-6.17-2.26c-2.06-1.86-4.72-2.34-7.25-3.1c-2.07-1.84-4.71-2.35-7.25-3.1c-1.84-1.5-3.88-2.55-6.25-2.92
			c-2.7-0.4-4.38-3.15-7.25-3.15c-0.75-0.2-1.64-0.14-1.99-1.08c0.09-0.27,0.1-0.54,0.04-0.82c1.39-2.04,2.78-4.07,4.18-6.11
			c1.3-0.96,2.29-2.16,2.91-3.66c1.38-1.73,2.76-3.47,4.14-5.2c1.06-1.28,2.11-2.57,3.17-3.85c1.56-1,2.56-2.49,3.46-4.06
			c1.26-1.41,2.53-2.83,3.79-4.24c2.53-1.99,4.38-4.58,6.31-7.1c3.47-2.23,5.29-5.98,8.15-8.77c1.53-0.46,2.34-1.67,3.1-2.93
			c1.78-0.98,3.1-2.43,4.15-4.14c1.02-0.36,1.65-1.11,2.07-2.07c1.02-0.36,1.66-1.1,2.07-2.07c1.42-0.66,2.4-1.74,3.11-3.11
			c0.7-0.66,1.39-1.32,2.09-1.99c1.42-0.63,2.39-1.71,3.13-3.04c1.05-1,2.1-2,3.15-3c1.44-1.4,2.88-2.81,4.32-4.21
			c1.72-0.66,2.71-2.15,3.91-3.4c1.05-0.21,1.67-0.9,2.1-1.82c2.06-1.79,4.13-3.58,6.19-5.37c3.21-1.57,4.73-4.92,7.42-7.03
			c3.31-0.27,3.57-4.05,6.05-5.27c7.84-4.73,14.28-11.25,21.39-16.9c22.23-17.64,44.89-34.7,68.09-51.02
			c12.78-8.99,25.86-17.56,38.81-26.32c2.09-1.45,4.73-2.05,6.46-4.09c2.11-0.39,3.62-1.77,5.16-3.12c2.14-0.36,3.64-1.78,5.2-3.1
			c1.51-0.29,2.93-0.72,3.83-2.11c1.13-0.68,2.26-1.36,3.39-2.04c2.83-0.6,5.06-2.28,7.22-4.07c3.44-1.23,6.8-2.58,9.48-5.19
			c2.27-0.53,4.3-1.52,6.08-3.01c1.43-0.73,2.86-1.46,4.29-2.19c0.29-0.33,0.58-0.67,0.87-1c3.12-0.11,5.67-1.68,8.23-3.21
			c3.31-0.93,6.38-2.4,9.33-4.14c2.61-0.62,5.06-1.62,7.32-3.08c1.87-0.35,3.7-0.78,5.2-2.06c1.85-0.29,3.63-0.78,5.16-1.91
			c2.39-0.73,4.78-1.46,7.17-2.19C508.92,588.56,509.65,589.93,510.38,591.29z"/>
		<path class="st113" d="M561.34,772.73c2.42-0.08,3.76-0.56,5.07,0.42C564.86,773.78,563.44,773.89,561.34,772.73z"/>
		<path class="st113" d="M621.99,777.9c-2.21,1.23-3.61,0.77-5.81,0.73C618.36,777.39,619.75,777.87,621.99,777.9z"/>
		<path class="st113" d="M654.49,781.43c-1.6,0.63-2.99,0.75-4.56-0.11C651.54,780.68,652.92,780.56,654.49,781.43z"/>
		<path class="st113" d="M687.4,784.8c-1.29,0-2.58,0-4.2,0C684.61,783.38,685.96,784.12,687.4,784.8z"/>
		<path class="st83" d="M540.03,771.08c1.47-0.89,2.5-0.51,3.87-0.29C542.55,771.78,541.49,771.65,540.03,771.08z"/>
		<path class="st114" d="M555.01,772.1c-1.1,0.66-2.15,0.64-3.52-0.01C552.81,771.35,553.86,771.27,555.01,772.1z"/>
		<path class="st83" d="M576.77,774.13c-1.08,0.73-2.13,0.64-3.55,0.04C574.57,773.41,575.62,773.36,576.77,774.13z"/>
		<path class="st114" d="M587.81,775.64c-0.92-0.09-2.61-0.07-2.64-0.27c-0.16-1.28,0.97-0.57,1.54-0.68
			c0.41-0.08,0.88,0.18,1.33,0.29C587.96,775.2,587.89,775.42,587.81,775.64z"/>
		<path class="st114" d="M598.17,776.68c-0.92-0.09-2.61-0.07-2.64-0.27c-0.16-1.28,0.97-0.57,1.54-0.68
			c0.41-0.08,0.88,0.18,1.33,0.28C598.32,776.23,598.25,776.46,598.17,776.68z"/>
		<path class="st83" d="M606.34,777.3c1.45-0.9,2.48-0.51,3.86-0.29C608.85,778,607.79,777.86,606.34,777.3z"/>
		<path class="st114" d="M631.42,779.18c-1.14,0.8-2.12,0.72-3.25,0.21C629.41,778.39,630.46,778.98,631.42,779.18z"/>
		<path class="st83" d="M643.06,780.35c-1.08,0.73-2.13,0.64-3.55,0.04C640.87,779.62,641.91,779.57,643.06,780.35z"/>
		<path class="st114" d="M664.94,782.33c-1.45,0.9-2.48,0.51-3.85,0.29C662.44,781.64,663.5,781.77,664.94,782.33z"/>
		<path class="st83" d="M676.48,783.42c-1.59,0.67-2.64,0.77-3.72,0.03C673.83,782.67,674.89,782.81,676.48,783.42z"/>
		<path class="st114" d="M705.69,786.78c1.29-1.16,2.36-0.55,4.36-0.79C708.11,787.39,707.04,786.99,705.69,786.78z"/>
		<path class="st83" d="M694.87,785.03c0.92,0.09,2.61,0.07,2.64,0.27c0.16,1.28-0.97,0.57-1.54,0.68
			c-0.41,0.08-0.88-0.18-1.33-0.28C694.71,785.47,694.79,785.25,694.87,785.03z"/>
		<path class="st115" d="M511.43,952.53c1.88,0.32,3.68,0.85,5.16,2.14c1.05,1.72,0.3,3.34-0.35,4.92
			c-11.64,28.49-23.63,56.84-35.26,85.33c-0.45,1.1-1.06,2.16-1.77,3.14c-2.1,3.18-4.94,5.56-8.12,7.57
			c-0.7-5.82,2.91-10.34,4.89-15.26c10.27-25.49,20.87-50.85,31.37-76.24C508.92,960.33,511.24,956.81,511.43,952.53z"/>
		<path class="st116" d="M479.21,1048.06c2.4-10.42,7.36-19.86,11.32-29.68c8.58-21.28,17.36-42.47,26.06-63.7
			c1.65,1.41,3.32,1.64,5.05,0.15c0.35,1.54-0.35,2.86-0.9,4.21c-0.05,1.03-0.1,2.05-0.15,3.08c-0.3,0.35-0.6,0.71-0.9,1.06
			c-0.04,0.69-0.09,1.38-0.13,2.06c-2.66,2.29-3.09,5.73-4.3,8.71c-8.12,19.96-16.85,39.67-24.59,59.79
			C487.51,1039.04,483.79,1043.89,479.21,1048.06z"/>
		<path class="st117" d="M490.67,1033.73c-0.53-6.17,3-11.15,5.12-16.46c6.36-15.88,13.11-31.6,19.68-47.38
			c0.85-2.03,1.21-4.43,4.09-4.65c-0.02,0.68-0.04,1.35-0.07,2.03c-1.11,0.81-0.86,2.03-0.92,3.15c-0.81,0.47-1,1.22-0.92,2.08
			c-0.05,0.66-0.1,1.32-0.15,1.99c-0.14,1.93-0.72,3.7-1.92,5.24c-0.07,0.69-0.14,1.37-0.22,2.06c-0.6,1.4-1.2,2.8-1.8,4.2
			c-0.37,1.38-0.74,2.76-1.11,4.13c-0.32,0.69-0.65,1.39-0.97,2.08c-0.39,1.38-0.77,2.76-1.16,4.14c-1.32,1.47-1.71,3.32-2.04,5.18
			c-0.88,1.65-2.01,3.21-2.11,5.18c-0.99,2.07-1.99,4.15-2.98,6.22c-1.04,2.07-2.08,4.14-3.12,6.21c-1.1,2.06-2.19,4.13-3.29,6.19
			C494.75,1028.11,492.71,1030.92,490.67,1033.73z"/>
		<path class="st118" d="M534.3,705.23c-0.31-3.09-0.63-6.18-0.94-9.27c0.27,0.33,0.54,0.66,0.81,0.99
			c-0.5,3.37,2.34,3.37,4.27,4.02c24.1,8.19,48.24,16.29,72.34,24.47c30.45,10.34,60.88,20.76,91.32,31.13
			c2.27,0.77,4.51,1.74,7,1.56c0.69,4.63-0.81,5.78-5.42,4.2c-40.96-13.99-82.02-27.7-122.96-41.76
			C565.3,715.28,550,709.64,534.3,705.23z"/>
		<path class="st119" d="M515.58,979.72c0.39-1.84,0.62-3.73,1.92-5.23c3.28,1.76,5.9-0.68,8.52-1.69
			c39.73-15.38,79.39-30.93,119.07-46.43c14.47-5.65,28.92-11.38,43.47-16.82c2.07-0.77,4.58-3.29,7.03-0.33
			c-22.45,8.68-44.9,17.35-67.34,26.05c-32.87,12.73-65.74,25.45-98.58,38.24C524.89,975.37,519.89,976.77,515.58,979.72z"/>
		<path class="st120" d="M511.5,594.43c-0.15-0.32-0.31-0.63-0.46-0.95c7.21,0.19,13.54,3.57,20.17,5.76
			c19.87,6.56,39.67,13.34,59.48,20.11c20.78,7.11,41.53,14.31,62.31,21.44c1.22,0.42,2.29,0.78,2.33,2.3
			c-12.07-3.96-24.16-7.87-36.2-11.91c-18.1-6.07-36.15-12.28-54.25-18.34c-16.44-5.51-32.92-10.91-49.39-16.36
			C514.35,595.42,512.11,596.51,511.5,594.43z"/>
		<path class="st121" d="M511.5,594.43c1.33,0.68,2.65,1.36,3.98,2.04c-1.04,0-2.08,0-3.11,0
			C511.67,595.96,511.42,595.27,511.5,594.43z"/>
	</g>
</g>
<g>
	<g>
		<path d="M1297.58,735.49c-11.26,0-22.03,0-33.43,0c0-1.65,0-3.23,0-4.8c-0.03-30.68,0.14-61.33-0.21-92.01
			c-0.1-7.31-1.3-14.76-3.12-21.86c-3.33-12.94-10.98-22.45-24.68-25.29c-14.62-3.02-27.97-0.17-38.33,11.22
			c-10.23,11.22-13.59,25.12-13.73,39.85c-0.17,20.11-0.03,40.26-0.03,60.37c0,10.67,0,21.35,0,32.36c-11.12,0-22,0-33.53,0
			c0-1.48,0-3.05,0-4.63c0-31.51,0.07-62.98-0.07-94.48c-0.03-5.59-0.41-11.26-1.44-16.75c-4.67-25.09-27.97-36.55-50.93-25.12
			c-14.86,7.41-21.86,20.63-24.85,36.17c-1.13,5.87-1.54,11.98-1.58,17.95c-0.17,27.25-0.07,54.5-0.07,81.75c0,1.61,0,3.26,0,5.15
			c-11.09,0-21.86,0-33.6,0c0-55.94,0-111.81,0-167.96c9.54,0,19.77,0,30.58,0c0.51,8.99,1.03,17.91,1.65,28.11
			c12.36-21.86,30.34-32.81,54.29-33.02c24.26-0.24,41.97,10.64,52.54,33.15c0.76-1.03,1.34-1.72,1.82-2.44
			c15.07-23.58,37.07-32.91,64.28-30.3c34.46,3.29,50.45,27.8,53.74,56.25c0.55,4.74,0.69,9.58,0.69,14.35
			c0.07,32.19,0.03,64.35,0.03,96.54C1297.58,731.72,1297.58,733.36,1297.58,735.49z"/>
		<path d="M1459.06,630.89c3.02-20.66-9.37-37.27-30.13-40.5c-21.14-3.26-39.88,2.3-56.32,15.86c-0.93,0.79-1.85,1.58-3.16,2.64
			c-5.87-7-11.63-13.9-17.88-21.38c4.05-3.09,7.72-6.35,11.84-8.89c26.22-16.06,54.47-20.32,84.12-12.56
			c25.77,6.73,42.32,27.97,43.48,55.43c0.76,17.78,0.21,35.59,0.41,53.37c0.24,20.08,0.65,40.15,1,60.88c-3.16,0-7.31,0-11.5,0
			c-3.98,0-8-0.41-11.91,0.1c-4.84,0.65-6.18-1.61-6.56-5.77c-0.55-6.04-1.37-12.08-3.05-18.88c-0.24,0.65-0.38,1.37-0.76,1.89
			c-15.58,21.42-37.37,28.38-62.74,26.56c-11.46-0.82-22.2-4.26-32.23-10.16c-28.31-16.71-30.44-64.35,0.55-82.06
			c13.49-7.69,28.07-11.74,43.28-13.28c15.92-1.61,31.99-2.06,47.98-3.02C1456.72,631.02,1457.92,630.95,1459.06,630.89z
			 M1459.26,654.6c-14.24,0.86-27.94,1.3-41.56,2.64c-10.26,1-20.28,3.47-29.24,8.96c-8.99,5.53-13.42,13.52-12.32,24.16
			c1.06,10.36,7.04,17.23,16.71,20.32c17.88,5.7,35.18,4.36,50.18-7.76C1458.06,690.77,1460.22,673.68,1459.26,654.6z"/>
		<path d="M800.63,704.54c37.99,0,75.13,0,112.5,0c0,10.4,0,20.45,0,30.85c-49.01,0-98.02,0-147.27,0c0-83.64,0-167.27,0-251.25
			c11.36,0,22.79,0,34.8,0C800.63,557.37,800.63,630.65,800.63,704.54z"/>
		<path d="M979.44,735.53c-10.98,0-21.72,0-32.81,0c0-55.94,0-111.74,0-167.93c10.78,0,21.62,0,32.81,0
			C979.44,623.47,979.44,679.41,979.44,735.53z"/>
		<path d="M985.38,506.31c-0.07,11.91-10.23,21.45-22.58,21.28c-12.15-0.21-22.03-9.95-21.9-21.59
			c0.14-12.01,10.19-21.62,22.45-21.48C975.73,484.65,985.41,494.23,985.38,506.31z"/>
	</g>
</g>
<g>
	<g>
		<path d="M1171.5,956.62c0,33.54,0,67.06,0,100.81c-5.61,0-10.86,0-16.31,0c0-72.28,0-144.38,0-216.69c5.37,0,10.53,0,16.28,0
			c0,9.34,0,18.66,0,29.01c1.19-1.39,1.69-1.84,2.02-2.37c11.03-18.03,27.35-27.91,48.17-30.07c28.92-3.03,57.6,8.93,72.4,36.72
			c16.19,30.4,10.44,71.27-13.29,94.41c-27.35,26.63-76.49,25.74-100.93-1.93c-2.79-3.14-5.1-6.73-7.62-10.08
			C1171.97,956.47,1171.73,956.53,1171.5,956.62z M1285.39,909.91c-0.36-2.73-0.59-7.86-1.66-12.78
			c-4.66-21.24-16.16-37.19-37.61-43.69c-21.53-6.53-41.4-2.61-57.9,13.29c-24.26,23.34-24.29,66.79-0.36,90.49
			c22.27,22.04,60.68,21.65,81.5-0.98C1280.79,943.84,1285.03,928.74,1285.39,909.91z"/>
		<path d="M953.77,791.95c-4.18,3.86-8.27,7.65-12.55,11.6c-5.96-7.15-12.99-12.81-21.03-17.29
			c-37.55-20.94-101.14-12.46-125.61,42.47c-17.83,40.01-14.24,78.95,13.7,113.74c17.08,21.27,40.72,30.52,67.74,31.5
			c27.91,1.01,50.93-8.9,68.66-30.64c0.3-0.36,0.59-0.74,1.07-1.33c2.08,1.63,4.03,3.14,5.96,4.69c1.93,1.54,3.86,3.08,6.02,4.83
			c-6.91,9.22-14.98,16.94-24.47,23.08c-18.74,12.13-39.57,15.99-61.48,14.86c-27.88-1.45-52.5-10.94-72.64-30.64
			c-18.57-18.15-28.77-40.57-32.03-66.11c-3.62-28.15,0.36-55.11,15.22-79.67c19.04-31.47,47.6-48.26,83.94-52.08
			c20.76-2.19,40.93,0.44,60,9.37C937.01,775.34,946.32,782.31,953.77,791.95z"/>
		<path d="M1083.88,897.21c-0.86-7.44-0.95-14.38-2.52-20.94c-3.56-14.86-14.89-23.58-31.08-25.21
			c-19.22-1.93-36.04,3.47-50.66,16.4c-3-3.62-5.93-7.12-9.25-11.06c2.7-2.14,5.1-4.39,7.83-6.14
			c20.44-13.11,42.59-16.82,65.99-10.68c22.39,5.87,34.79,23.43,34.88,47.96c0.06,17.74-0.18,35.5,0.09,53.24
			c0.21,14.18,0.95,28.32,1.45,42.74c-4,0-8.78,0-14.27,0c-0.83-8.36-1.72-16.88-2.64-26.19c-0.86,1.31-1.45,2.17-2.02,3.08
			c-19.34,32.36-58.58,31.5-79.37,20.49c-27.64-14.68-27.35-56.38-1.78-71c11.57-6.61,24.11-9.97,37.13-11.03
			c13.44-1.1,26.96-1.16,40.46-1.63C1079.64,897.15,1081.15,897.21,1083.88,897.21z M1083.02,910.62c-0.8-0.15-1.25-0.3-1.69-0.27
			c-14.06,0.65-28.18,0.86-42.18,2.14c-10.14,0.92-20.05,3.71-28.65,9.67c-17.14,11.83-15.54,37.4,2.91,47.1
			c22.99,12.1,53.09,2.11,64.24-21.24C1083.29,936.12,1083.65,923.58,1083.02,910.62z"/>
		<path d="M1611.11,897.21c4.27-21.68-7.27-41.14-27.02-45.17c-19.84-4.06-37.82,0.5-53.59,13.32c-0.74,0.59-1.42,1.25-2.49,2.19
			c-3.03-3.62-5.99-7.18-9.19-11c1.69-1.45,3.05-2.91,4.66-4.03c21.89-15.54,45.94-19.69,71.54-12.1c20.11,5.96,32,22.9,32.3,44.79
			c0.3,21.53-0.06,43.07,0.24,64.6c0.15,11.21,1.04,22.39,1.63,34.02c-3.94,0-8.3,0.09-12.63-0.09c-0.68-0.03-1.81-1.36-1.9-2.19
			c-0.83-6.67-1.45-13.41-2.11-20.11c-0.12-1.13-0.12-2.25-0.24-4.3c-1.19,1.75-1.93,2.73-2.58,3.77
			c-19.34,32-59.08,31.11-79.84,19.6c-26.43-14.65-26.52-55.52-1.42-70.29c11.72-6.88,24.5-10.26,37.79-11.33
			c13.55-1.1,27.2-1.13,40.81-1.63C1608.41,897.15,1609.81,897.21,1611.11,897.21z M1611.47,910.68c-0.74-0.15-1.31-0.39-1.84-0.36
			c-14.06,0.65-28.18,0.83-42.18,2.14c-10.26,0.95-20.29,3.77-28.95,9.91c-16.4,11.6-15.1,36.51,2.4,46.42
			c20.2,11.45,49.23,4.39,61.87-15.04C1611.32,940.57,1612.21,925.86,1611.47,910.68z"/>
		<path d="M1485.89,854.59c-13.52,0-26.84,0-40.69,0c0,1.6,0,2.85,0,4.09c0,29.1-0.03,58.22,0.03,87.32c0,2.82,0.24,5.69,0.71,8.45
			c1.9,11.03,8.42,17.14,19.63,17.17c6.5,0.03,12.99-1.57,19.93-2.49c0.24,3.41,0.65,7.59,0.74,11.77c0.03,0.68-1.1,1.75-1.9,2.02
			c-10.32,3.32-20.85,4.54-31.53,2.02c-13.73-3.23-22.33-13.58-23.85-28.35c-0.33-3.17-0.47-6.38-0.47-9.55
			c-0.03-29.21-0.03-58.46-0.03-87.67c0-1.39,0-2.82,0-4.6c-10.05,0-19.84,0-29.87,0c0-4.8,0-9.22,0-14.15c9.73,0,19.49,0,29.51,0
			c0-13.79,0-27.14,0-40.75c5.75,0,11.24,0,16.99,0c0,13.47,0,26.78,0,40.6c13.7,0,27.11,0,40.75,0
			C1485.89,845.37,1485.89,849.82,1485.89,854.59z"/>
		<path d="M1683.81,751.55c5.34,0,10.62,0,16.19,0c0,77.35,0,154.64,0,232.06c-5.46,0-10.71,0-16.19,0
			C1683.81,906.2,1683.81,828.99,1683.81,751.55z"/>
		<path d="M1366.3,983.79c-4.98,0-9.46,0-13.94,0c-0.68,0-1.39-0.06-2.34-0.12c0-47.63,0-95.12,0-142.84c5.37,0,10.71,0,16.28,0
			C1366.3,888.43,1366.3,935.92,1366.3,983.79z"/>
		<path d="M1370.57,783.47c0.06,6.94-5.58,12.72-12.49,12.78c-6.61,0.06-12.34-5.69-12.4-12.49c-0.06-6.88,5.4-12.61,12.1-12.72
			C1364.7,770.89,1370.51,776.56,1370.57,783.47z"/>
	</g>
</g>
</svg>
