<?xml version="1.0" encoding="utf-8"?>
<!-- Generator: Adobe Illustrator 24.1.0, SVG Export Plug-In . SVG Version: 6.00 Build 0)  -->
<svg version="1.1" id="Layer_1" xmlns="http://www.w3.org/2000/svg" xmlns:xlink="http://www.w3.org/1999/xlink" x="0px" y="0px"
	 viewBox="0 0 260 260" style="enable-background:new 0 0 260 260;" xml:space="preserve">
<style type="text/css">
	.st0{fill:#F38B00;}
	.st1{fill:#F7A800;}
	.st2{fill:#FFC627;}
	.st3{fill:url(#SVGID_1_);}
	.st4{fill:url(#SVGID_2_);}
	.st5{fill:url(#SVGID_3_);}
	.st6{fill:url(#SVGID_4_);}
	.st7{fill:#2D2926;}
</style>
<path class="st0" d="M41.4,154.8l-27-11.9c-1.9-0.8-1.9-3.5-0.1-4.4l27-13.1c0.7-0.3,1.4-0.3,2.1,0l27,13.1c1.8,0.9,1.8,3.5-0.1,4.4
	l-27,11.9C42.7,155.1,42,155.1,41.4,154.8z"/>
<path class="st1" d="M41.4,144.7l-27-11.9c-1.9-0.8-1.9-3.5-0.1-4.4l27-13.1c0.7-0.3,1.4-0.3,2.1,0l27,13.1c1.8,0.9,1.8,3.5-0.1,4.4
	l-27,11.9C42.7,145,42,145,41.4,144.7z"/>
<path class="st2" d="M41.4,134.6l-27-11.9c-1.9-0.8-1.9-3.5-0.1-4.4l27-13.1c0.7-0.3,1.4-0.3,2.1,0l27,13.1c1.8,0.9,1.8,3.5-0.1,4.4
	l-27,11.9C42.7,134.9,42,134.9,41.4,134.6z"/>
<linearGradient id="SVGID_1_" gradientUnits="userSpaceOnUse" x1="31.2942" y1="628.837" x2="28.5904" y2="634.7759" gradientTransform="matrix(1 0 0 1 0 -499.46)">
	<stop  offset="4.810653e-04" style="stop-color:#E87400"/>
	<stop  offset="0.3524" style="stop-color:#F7A800"/>
</linearGradient>
<path class="st3" d="M42.4,134.8c-0.3,0-0.7-0.1-1-0.2l0,0l-20.9-9.2l-2.7,1.3l23.6,10.4c0.3,0.1,0.6,0.2,1,0.2
	C42.4,137.3,42.4,134.8,42.4,134.8z"/>
<linearGradient id="SVGID_2_" gradientUnits="userSpaceOnUse" x1="1321.5803" y1="628.7855" x2="1318.8763" y2="634.7244" gradientTransform="matrix(-1 0 0 1 1375.0626 -499.46)">
	<stop  offset="4.810653e-04" style="stop-color:#E87400"/>
	<stop  offset="0.3524" style="stop-color:#F7A800"/>
</linearGradient>
<path class="st4" d="M42.4,134.8c0.3,0,0.7-0.1,1-0.2l0,0l20.9-9.2l2.7,1.3l-23.6,10.4c-0.3,0.1-0.6,0.2-1,0.2V134.8z"/>
<linearGradient id="SVGID_3_" gradientUnits="userSpaceOnUse" x1="31.2922" y1="638.9415" x2="28.5883" y2="644.8804" gradientTransform="matrix(1 0 0 1 0 -499.46)">
	<stop  offset="0" style="stop-color:#DB6300"/>
	<stop  offset="0.3529" style="stop-color:#F38B00"/>
</linearGradient>
<path class="st5" d="M42.4,144.9c-0.3,0-0.7-0.1-1-0.2l0,0l-20.9-9.2l-2.7,1.3l23.6,10.4c0.3,0.1,0.6,0.2,1,0.2
	C42.4,147.4,42.4,144.9,42.4,144.9z"/>
<linearGradient id="SVGID_4_" gradientUnits="userSpaceOnUse" x1="1321.5782" y1="638.89" x2="1318.8743" y2="644.8289" gradientTransform="matrix(-1 0 0 1 1375.0626 -499.46)">
	<stop  offset="0" style="stop-color:#DB6300"/>
	<stop  offset="0.3529" style="stop-color:#F38B00"/>
</linearGradient>
<path class="st6" d="M42.4,144.9c0.3,0,0.7-0.1,1-0.2l0,0l20.9-9.2l2.7,1.3l-23.6,10.4c-0.3,0.1-0.6,0.2-1,0.2V144.9z"/>
<path class="st7" d="M225,151.8h-11.9l-9.6-14.1h-0.2v14.1h-9.7v-39.3h9.7v21.9h0.2l9.4-11.9h11.7l-11.3,13.2L225,151.8z M104.7,120
	c-0.9-1.1-2-2-3.4-2.6s-2.7-1-4-1c-0.7,0-1.3,0.1-2,0.2s-1.3,0.3-1.9,0.7c-0.5,0.3-1,0.8-1.4,1.3s-0.6,1.2-0.6,2
	c0,0.7,0.1,1.3,0.4,1.8s0.7,0.9,1.3,1.2c0.6,0.3,1.2,0.7,2,1c0.8,0.3,1.7,0.6,2.6,0.9c1.4,0.5,2.9,1,4.4,1.6s2.9,1.3,4.2,2.3
	c1.3,0.9,2.3,2.1,3.1,3.5c0.8,1.4,1.2,3.1,1.2,5.2c0,2.4-0.4,4.5-1.3,6.2s-2.1,3.2-3.6,4.3c-1.5,1.1-3.2,2-5.1,2.5s-3.9,0.8-5.9,0.8
	c-3,0-5.9-0.5-8.6-1.6c-2.8-1-5.1-2.5-6.9-4.4l6.6-6.7c1,1.3,2.4,2.3,4,3.1c1.7,0.8,3.3,1.3,5,1.3c0.7,0,1.5-0.1,2.2-0.2
	c0.7-0.2,1.3-0.4,1.9-0.8c0.5-0.4,1-0.8,1.3-1.4c0.3-0.6,0.5-1.3,0.5-2.1s-0.2-1.5-0.6-2s-1-1-1.7-1.5c-0.7-0.4-1.6-0.9-2.7-1.2
	c-1.1-0.4-2.3-0.8-3.7-1.2c-1.3-0.4-2.6-0.9-3.9-1.5c-1.3-0.6-2.4-1.3-3.4-2.3c-1-0.9-1.8-2-2.4-3.4s-0.9-2.9-0.9-4.8
	c0-2.3,0.5-4.3,1.4-5.9s2.2-3,3.7-4.1c1.5-1.1,3.3-1.8,5.2-2.3s3.9-0.7,5.8-0.7c2.4,0,4.8,0.4,7.2,1.3c2.5,0.9,4.6,2.1,6.4,3.8
	L104.7,120z M125,129v11.2c0,1.4,0.3,2.4,0.8,3.1s1.5,1,2.9,1c0.5,0,1,0,1.5-0.1c0.5-0.1,1-0.2,1.3-0.4l0.1,7.1
	c-0.7,0.2-1.5,0.4-2.5,0.6s-2,0.3-3.1,0.3c-2,0-3.6-0.2-4.9-0.7s-2.4-1.2-3.2-2.1c-0.8-0.9-1.4-2-1.7-3.3c-0.4-1.3-0.5-2.7-0.5-4.3
	V129h-3.8v-7.2h3.7v-9.3h9.5v9.3h6.9v0.3C131.9,125.9,128.8,129,125,129L125,129z M135.1,125.8c1.7-1.6,3.7-2.9,6-3.7
	c2.3-0.8,4.6-1.2,7-1.2c2.5,0,4.6,0.3,6.3,0.9c1.7,0.6,3.1,1.6,4.1,2.8c1.1,1.3,1.8,2.9,2.3,4.8c0.5,1.9,0.7,4.2,0.7,6.9v14.8h-5.6
	c-1.7,0-3.1-1.4-3.1-3.1l0,0h-0.2c-0.7,1.2-1.9,2.2-3.4,2.8c-1.5,0.7-3.1,1-4.9,1c-1.2,0-2.4-0.2-3.6-0.5c-1.3-0.3-2.4-0.8-3.4-1.5
	s-1.9-1.6-2.6-2.8c-0.7-1.2-1-2.6-1-4.4c0-2.1,0.6-3.8,1.7-5.1c1.2-1.3,2.6-2.3,4.5-3c1.8-0.7,3.9-1.2,6.1-1.4
	c2.2-0.2,4.4-0.4,6.5-0.4v-0.4c0-1.5-0.5-2.5-1.5-3.2c-1-0.7-2.3-1-3.8-1c-1.4,0-2.7,0.3-4,0.9s-2.4,1.3-3.3,2.1L135.1,125.8z
	 M152.8,138.4h-1.2c-1.1,0-2.1,0-3.2,0.1c-1.1,0.1-2,0.3-2.9,0.6c-0.8,0.3-1.5,0.7-2.1,1.2c-0.5,0.5-0.8,1.2-0.8,2.1
	c0,0.5,0.1,1,0.4,1.4c0.3,0.4,0.6,0.7,1,0.9s0.8,0.4,1.4,0.5c0.5,0.1,1,0.1,1.5,0.1c2,0,3.5-0.5,4.5-1.6c1-1.1,1.6-2.5,1.6-4.4v-0.9
	C153,138.4,152.8,138.4,152.8,138.4z M186.1,131.1c-0.5-0.7-1.3-1.3-2.2-1.7c-0.9-0.4-1.9-0.6-2.9-0.6s-1.9,0.2-2.8,0.6
	c-0.8,0.4-1.5,1-2.1,1.6c-0.6,0.7-1.1,1.5-1.4,2.4c-0.3,0.9-0.5,1.9-0.5,2.9s0.2,2,0.5,2.9c0.3,0.9,0.8,1.7,1.4,2.4
	c0.6,0.7,1.3,1.2,2.2,1.6c0.8,0.4,1.8,0.6,2.9,0.6c1,0,1.9-0.2,2.9-0.6c1-0.4,1.7-0.9,2.3-1.6l5.4,6.5c-1.2,1.2-2.8,2.1-4.7,2.8
	c-1.9,0.7-4,1-6.1,1c-2.3,0-4.5-0.4-6.5-1.1s-3.7-1.7-5.2-3.1c-1.5-1.4-2.6-3-3.5-4.9c-0.8-1.9-1.3-4.1-1.3-6.5s0.4-4.5,1.3-6.5
	c0.8-1.9,2-3.6,3.5-4.9c1.5-1.4,3.2-2.4,5.2-3.1s4.1-1.1,6.4-1.1c1.1,0,2.1,0.1,3.1,0.3c1,0.2,2,0.5,3,0.8c1,0.3,1.8,0.7,2.6,1.2
	s1.5,1,2.1,1.6L186.1,131.1z M246,121.8c-0.4,0-0.8-0.1-1.1-0.1c-1.8,0-3.4,0.5-4.8,1.4c-1.4,0.9-2.4,2.2-3.2,3.7h-0.1v-4.2h-9.3
	V145v6.9h2.8c3.8,0,6.9-3.1,6.9-6.9v-2.8V140v-3.2c0-0.6,0.1-1.3,0.4-2.1c0.2-0.8,0.6-1.5,1.1-2.2s1.2-1.2,2.1-1.7
	c0.9-0.5,2-0.7,3.3-0.7c0.4,0,0.8,0,1.2,0.1c0.4,0,0.8,0.1,1.3,0.2l0.4-8.5C246.6,121.9,246.3,121.8,246,121.8z"/>
</svg>
