<?xml version="1.0" encoding="utf-8"?>
<!-- Generator: Adobe Illustrator 24.1.0, SVG Export Plug-In . SVG Version: 6.00 Build 0)  -->
<svg version="1.1" id="Layer_1" xmlns="http://www.w3.org/2000/svg" xmlns:xlink="http://www.w3.org/1999/xlink" x="0px" y="0px"
	 viewBox="0 0 1800 1000" style="enable-background:new 0 0 1800 1000;" xml:space="preserve">
<style type="text/css">
	.st0{fill:#1F9C62;stroke:#1F9C62;}
	.st1{fill:#208444;}
	.st2{fill:#26C784;}
	.st3{fill:#1DBF53;}
	.st4{fill:#34E47F;}
	.st5{fill:#2AD084;}
	.st6{fill:#403E4B;}
	.st7{fill:#403D4B;}
</style>
<g>
	<polygon class="st0" points="441,913 113.5,723.9 113.5,345.7 441,156.6 768.5,345.7 768.5,723.9 	"/>
	<polygon class="st1" points="441,744.1 216.5,614.4 216.5,355.1 441,225.4 665.6,355.1 665.6,614.4 	"/>
	<path class="st2" d="M813.5,631.5"/>
	<path class="st2" d="M813.5,890.8"/>
	<polyline class="st2" points="441,346.1 441,225.4 665.6,355.1 665.6,614.4 441,744.1 441,605.4 	"/>
	<polygon class="st3" points="667.5,691.3 441.5,827.9 214.6,691.3 441.5,554.8 	"/>
	<polyline class="st4" points="441,651.2 441.4,554.8 601,651.2 441.4,747.7 441,651.2 	"/>
	<polyline class="st5" points="441,651.2 440.7,554.8 281.1,651.2 440.7,747.7 441,651.2 	"/>
</g>
<g>
	<g>
		<path class="st6" d="M1375.1,634.6c-2.2,0.3-2.9,1.8-4.1,2.9c-13.8,12.9-29.8,18.7-48.6,13.9c-13.1-3.3-22.5-11.6-27.6-23.8
			c-11.3-27.1-12-54.4,2.6-80.7c11.5-20.8,35.8-30.2,58.6-23.3c4.7,1.4,9,4,13,6.8c1.1,0.8,2.1,2.6,3.6,2c1.5-0.7,0.8-2.6,0.8-4
			c0.1-19,0.2-38-0.1-56.9c-0.1-4,1-5.2,5-5.1c7.2,0.3,14.5,0.2,21.7,0c2.9-0.1,4.1,0.6,4.1,3.8c-0.1,59.1-0.1,118.2,0,177.3
			c0,2.8-0.7,3.9-3.7,3.8c-4.8-0.2-9.6,0-14.3-0.1c-5.6-0.1-7.8-2-9-7.5C1376.3,640.7,1375.7,637.6,1375.1,634.6z M1373.3,585
			c0-8.4,0-16.8,0-25.2c0-1.5,0.2-3.1-1-4.5c-11.3-14.2-38.7-14.4-47.2,2.6c-9.2,18.6-8.8,37.7-2.2,56.8c2.4,7.1,8,11.7,15.5,13.1
			c11.6,2.2,21.6-1.2,30.2-9.4c3.5-3.4,5.1-6.8,4.8-11.8C1373,599.5,1373.3,592.3,1373.3,585z"/>
		<path class="st6" d="M1322.7,399.3c-1.5,2-1.1,4.4-1.6,6.6c-1.2,5-3.3,6.9-8.4,7c-5.4,0.1-10.7-0.1-16.1,0.1
			c-2.8,0.1-3.4-1-3.4-3.5c0.1-6.5,0.1-13,0.1-19.5c0-52.3,0-104.6-0.1-156.9c0-3.7,0.7-5.1,4.7-5c7.2,0.3,14.5,0.3,21.7,0
			c3.7-0.2,4.2,1.2,4.2,4.5c-0.1,21-0.1,42,0,63c0,1.3-0.8,3.2,0.8,3.9c1.3,0.5,2.2-1.1,3.1-2c13.9-12.4,29.8-16.8,47.9-12.2
			c11.2,2.9,20,9.9,25,20.1c13.6,28.3,14.4,57.1-1.5,84.8c-11.7,20.3-33.9,28.5-56.6,22.7c-5.8-1.5-10.8-4.9-15.1-9.1
			C1326,402.3,1324.4,400.8,1322.7,399.3z M1323.8,351.3c0,7,0.6,14-0.1,20.8c-0.8,7.9,3.4,12.1,9.4,15.4c2.3,1.2,4.8,2,7.3,2.7
			c13.6,3.8,27.3-1.5,32.9-14.1c7.9-18,7.7-36.6,1-55c-3-8.1-9.5-12.5-18.2-13.4c-11.4-1.3-20.6,2.9-28.4,11
			c-2.8,2.9-4.1,5.9-3.9,10C1324,336.3,1323.8,343.8,1323.8,351.3z"/>
		<path class="st6" d="M1300.9,777.3c4.6-3.3,8.1-6.5,12-9.2c20.9-14.4,58.7-11.8,70,25.6c6.8,22.2,6.9,44.5-2.7,66.2
			c-10.7,24.1-34.8,36-60.3,29.7c-7.1-1.7-12.7-6.1-17.6-11.5c-0.7-0.8-1.2-1.6-2.1-2.7c-1.7,2.2-1.6,4.2-1.9,6.1
			c-0.8,5.8-3.3,8-9.2,8.1c-5.2,0.1-10.4-0.1-15.7,0.1c-2.2,0.1-3.3-0.7-3-3c0.1-0.7,0-1.4,0-2.2c0-58.2,0.1-116.5-0.1-174.8
			c0-4.1,1.2-5.2,5.1-5c6.8,0.3,13.6,0.4,20.4,0c4.4-0.2,5.2,1.3,5.1,5.4c-0.2,20.3-0.1,40.6-0.1,60.8
			C1300.9,772.7,1300.9,774.4,1300.9,777.3z M1300.9,827.8c0,7.1,0.6,14.2-0.2,21.3c-0.8,7.5,3.1,11.5,8.8,14.9
			c2.5,1.5,5.3,2.2,8.1,3c13.4,3.7,27-1.4,32.5-14.1c8.2-18.7,8.2-38,0.2-56.9c-3-7.1-9.1-10.6-16.7-11.6c-11-1.5-20.1,2.3-28,9.8
			c-3.6,3.4-5.2,7.1-4.9,12.2C1301.2,813.5,1300.9,820.7,1300.9,827.8z"/>
		<path class="st6" d="M886.5,561.4c0.3-31.1,11.3-57.1,37.2-75.5c14.5-10.3,31.1-15.2,48.8-16c16.8-0.8,32.9,1.8,47.9,9.7
			c5.9,3.1,11.2,7.1,16.4,11.4c2,1.6,1.7,2.9,0.4,4.7c-3,3.9-5.7,8-8.7,12c-4,5.4-8.2,6.2-13.8,2.1c-7.4-5.4-15.4-9.4-24.4-10.7
			c-35.8-5.3-63.5,13.7-68.7,49.5c-1.9,12.9-1.2,25.7,2.8,38.2c8.1,25.4,29.8,39.9,56.4,37.9c12.5-0.9,23.7-4.5,33.3-12.9
			c5.1-4.4,7.9-3.9,12.6,1.1c2.9,3.1,5.6,6.3,8.6,9.2c2.3,2.1,2.4,3.6,0.2,6c-11.1,12.2-24.7,19.9-40.8,23.1
			c-17.7,3.5-35.2,3.1-52.3-2.9c-29.9-10.5-46.5-32.6-53.5-62.7C887,577.6,886.5,569.5,886.5,561.4z"/>
		<path class="st6" d="M886.5,799.4c0.4-31.1,11.5-57.1,37.5-75.4c14.3-10.1,30.6-14.9,48-15.8c16.8-0.9,32.9,1.6,48,9.5
			c6.1,3.2,11.5,7.2,16.8,11.5c1.9,1.5,2,2.8,0.6,4.7c-2.6,3.4-5.1,7-7.6,10.6c-5.3,7.3-8.9,8-16.2,2.7c-7.2-5.2-15.1-8.8-23.8-10
			c-35.7-4.8-62.8,14.2-68,49.6c-2.4,16.7-1.2,33,6.9,48.2c10,18.7,25.8,28,46.9,28.2c14.4,0.1,27.8-3.2,38.9-13.2
			c4.7-4.2,7.6-3.7,11.9,0.9c3.2,3.4,6.2,6.9,9.5,10.1c1.9,1.8,1.8,3.1,0,5.1c-11.1,12.4-24.8,20.3-41.1,23.5
			c-17.6,3.5-35.2,3.1-52.3-2.8c-30-10.4-46.6-32.5-53.6-62.6C887,815.9,886.5,807.7,886.5,799.4z"/>
		<path class="st6" d="M886.5,318.8c0.4-27.1,11.4-53,37.3-71.4c14.4-10.2,30.8-15,48.4-15.9c16.6-0.8,32.6,1.6,47.5,9.4
			c6.1,3.2,11.5,7.2,16.8,11.5c2.1,1.7,1.9,3.1,0.4,5.1c-3,3.9-5.7,8-8.7,12c-3.9,5.2-8.1,5.9-13.5,2.1c-5.5-3.9-11.2-7.2-17.7-9.1
			c-29.3-8.6-61.9,3.1-72.4,34.5c-5.9,17.8-5.9,35.6,0.2,53.3c8.6,24.7,29.8,38.1,55.9,36.1c12.5-0.9,23.7-4.6,33.3-13
			c4.9-4.3,7.7-3.8,12.3,1c2.9,3.1,5.6,6.3,8.6,9.2c2.4,2.2,2.6,3.7,0.2,6.3c-11.7,12.8-26.1,20.5-43.1,23.4
			c-20,3.4-39.6,2-58.2-6.7c-25.5-11.9-39.2-32.9-45.3-59.6C887,339.1,886.5,331,886.5,318.8z"/>
		<path class="st6" d="M1551.4,349.2c0.1,18.3-4.6,35.1-17.7,48.4c-14.4,14.6-32.6,18.5-52.3,16.8c-38.1-3.4-56.4-32.7-55.8-67
			c0.2-13.2,3.1-25.9,10.3-37.1c9.6-15.1,23.9-23.1,41.4-25.7c15.1-2.3,29.8-0.7,43.4,6.6c20.7,11.1,28.8,29.8,30.7,52.1
			C1551.5,345.1,1551.4,347.2,1551.4,349.2z M1520,348.8c-0.4-6.5-0.8-11.2-1.6-16c-2.6-15-11.1-23.7-24.9-25.5
			c-16.2-2.2-28,4.8-32.9,20.2c-4.7,14.7-4.5,29.6,0.3,44.4c4,12.4,13.4,19,27.3,19.4c13.6,0.4,23.1-5.7,27.9-17.7
			C1519.4,365,1519.9,356.1,1520,348.8z"/>
		<path class="st6" d="M1208.4,873.7c-6.7,6.6-13.4,11.7-21.6,14.6c-12.2,4.2-24.6,4.8-36.4-0.6c-14.6-6.6-21-19.2-23.4-34.3
			c-0.7-4.3-0.8-8.7-0.8-13c0-24.8,0.1-49.6-0.1-74.3c0-3.2,0.6-4.3,4-4.2c7.7,0.3,15.4,0.3,23,0c3.2-0.1,3.8,1.1,3.7,4
			c-0.1,24.5-0.1,49,0,73.5c0,3,0.2,6.1,0.5,9.1c1.2,12,9.2,19.2,21.2,18.9c10.6-0.2,19.1-5,26.7-11.9c1.7-1.6,1.2-3.4,1.2-5.2
			c0-27.8,0.1-55.7-0.1-83.5c0-3.8,0.8-5,4.7-4.8c7.5,0.3,15.1,0.2,22.6,0c2.4,0,3.6,0.3,3.6,3.2c-0.1,40.4-0.1,80.9,0,121.3
			c0,2.6-0.9,3.2-3.3,3.1c-4.6-0.2-9.3,0-13.9-0.1c-6.2-0.1-8.5-2-9.9-8C1209.6,879.2,1209.1,876.8,1208.4,873.7z"/>
		<path class="st7" d="M1225.5,591.5c-12.3,0-24.6,0.1-36.9-0.1c-3,0-3.6,0.8-3.3,3.7c1.3,18,10.5,30.1,26.4,33.4
			c9.6,2,19,0.8,27.9-3.5c3.8-1.8,7.4-3.9,11.2-5.7c4-1.8,7.6-1.4,10.4,2.3c2.2,2.9,4.4,5.8,6.8,8.5c1.6,1.8,1.1,2.8-0.4,4.2
			c-7,7.3-15.5,12.1-25,15c-14.1,4.2-28.4,5.2-42.8,1.5c-17.8-4.5-30.9-15-38.3-31.8c-8.7-19.6-9.8-39.8-2.2-60
			c10.1-27.1,36.6-39.9,64.1-36.8c34.2,3.9,49.4,31.8,47.1,62.6c-0.4,4.8-2.4,6.5-7.9,6.5C1250.1,591.5,1237.8,591.5,1225.5,591.5z
			 M1214.4,573c8.4,0,16.8,0,25.2,0c1.4,0,3.4,0.8,3.3-2c-0.3-9.5-3.3-17.7-11.6-23c-18.2-11.6-41-0.6-45.2,21.5
			c-0.6,3.2,0.3,3.6,3.1,3.5C1197.6,573,1206,573,1214.4,573z"/>
		<path class="st7" d="M1604.2,301c4.2-3.8,7.8-7.2,12-9.7c16.9-9.8,34.3-11.4,51.3-1.1c12.9,7.8,18,20.9,18.4,35.1
			c0.8,28.2,0.3,56.5,0.4,84.7c0,2.3-0.8,3-3,2.9c-8-0.1-15.9-0.2-23.9,0c-3.1,0.1-3.8-0.9-3.8-3.9c0.1-25.2,0.1-50.4,0.1-75.6
			c0-4.5-0.2-9-1.8-13.3c-3.2-8.8-10-13.2-20.3-13.1c-10.9,0.1-19.1,5.9-26.7,12.9c-1.4,1.3-0.8,3-0.8,4.5c0,28-0.1,55.9,0.1,83.9
			c0,3.5-0.6,4.8-4.4,4.6c-7.5-0.3-15.1-0.2-22.6,0c-2.7,0-3.8-0.5-3.8-3.5c0.1-40.3,0.1-80.5,0-120.8c0-2.8,0.9-3.5,3.5-3.3
			c4.3,0.2,8.7,0,13,0c7.2,0.1,9.3,1.8,10.7,8.7C1603.1,296.2,1603.6,298.1,1604.2,301z"/>
		<path class="st7" d="M1134.3,397.5c-4.5,3.4-8.4,7-13.1,9.7c-15.2,8.7-31.2,10.6-47.5,3.9c-20.5-8.4-25.1-37.7-8.6-52.6
			c10.4-9.4,23.3-13.1,36.6-15.8c8.5-1.7,17.2-2.6,25.9-2.6c3,0,3.9-0.9,3.8-4c-0.2-5.8,0-11.6-2.2-17.1
			c-2.6-6.7-7.6-10.4-14.7-11.3c-9.3-1.2-17.8,0.8-25.8,5.5c-2.7,1.6-5.5,3.2-8.4,4.4c-5.4,2.1-10.4,0.8-13.2-4.2
			c-6.8-12.2-8.9-8.7,3.2-17.3c15.7-11.1,33.6-14.8,52.4-12.3c22,2.8,37.1,20.1,38.2,42.8c1,19.7,0.2,39.4,0.4,59.1
			c0.1,8-0.1,15.9,0.1,23.9c0.1,2.7-0.8,3.6-3.5,3.4c-4-0.3-8.1-0.2-12.1-0.3c-5-0.2-8-2.7-9.2-7.6
			C1136,402.7,1135.2,400.3,1134.3,397.5z M1131.4,369.9c0-2.8-0.1-5.5,0-8.2c0.1-2.4-0.4-3.4-3.1-3.1c-5.3,0.7-10.7,0.9-15.9,1.7
			c-7.4,1.2-14.8,2.6-21.3,6.8c-5.3,3.5-7.5,9.1-6.1,15.5c1.3,6.1,4.9,9.3,11.6,10.6c4.3,0.9,8.7,0.6,12.9-0.2
			c8.3-1.5,15.1-5.8,20.6-11.9C1132.9,378,1130.8,373.7,1131.4,369.9z"/>
		<path class="st7" d="M1645.7,521.9c10.2,0.1,23.5,4.2,34.9,13.6c2,1.6,2.3,2.8,0.7,4.9c-1.8,2.4-3.2,5.2-4.9,7.7
			c-2.8,4.3-5.6,5.2-10.4,3.3c-2.3-0.9-4.4-2.1-6.7-3.1c-7.1-3.3-14.6-4.6-22.4-3.7c-7.5,0.8-13,4.9-14.5,10.6
			c-1.1,4.4,0,8,3.4,10.9c5,4.3,11.1,6.1,17.2,8c6.7,2.2,13.5,4.3,20,7.1c23.7,10.4,29,38.9,10.7,57.5c-9,9.2-20.3,13-32.7,14.2
			c-17.9,1.6-34.5-2.5-49.2-13.2c-2.1-1.5-2.6-2.6-1-4.8c1.9-2.6,3.3-5.5,5-8.1c3.5-5.4,8.2-6.6,13.8-3.5c5.7,3.2,11.2,6.7,17.8,7.8
			c6.5,1,13,1.2,19.2-1.5c5.6-2.4,8.7-6.6,9-12.7c0.3-5.7-3.2-9-7.7-11.5c-6.5-3.7-13.7-5.3-20.7-7.6c-8.9-3-17.9-6-24.8-12.9
			c-15.1-15-11.8-41.8,6.7-54.1C1617.8,524.7,1628.6,521.8,1645.7,521.9z"/>
		<path class="st6" d="M1511.9,587c0-11.9-0.1-23.8,0.1-35.7c0.1-3.7-1.2-4.8-4.7-4.5c-2.7,0.3-5.5,0.1-8.2-0.1
			c-3.7-0.2-5.7-2.2-6-6c-1-12.8-1-12.8,11.6-14.4c8.9-1.2,8.8-1.2,10.4-10.1c1.4-8.3,3-16.5,4.5-24.8c0.8-4.4,3.3-6.5,7.8-6.4
			c3.8,0.1,7.6,0.2,11.3,0c3-0.2,4,0.7,3.9,3.8c-0.2,10.4,0.2,20.9-0.2,31.3c-0.1,4.2,1.3,5.1,5.2,5c8.1-0.3,16.2,0.1,24.3-0.2
			c3.6-0.1,4.5,1.2,4.3,4.5c-0.2,4.6-0.2,9.3,0,13.9c0.1,2.9-1,3.8-3.8,3.7c-8.7-0.1-17.4,0.1-26.1-0.1c-3.1-0.1-3.9,1-3.9,4
			c0.1,21.2,0,42.3,0.1,63.5c0.1,12.9,7.3,17.4,19.2,11.9c6.1-2.8,6.5-2.7,10,2.9c2.1,3.4,4.3,6.9,6.4,10.3c0.8,1.2,1.5,2.1-0.2,3.6
			c-11.6,10-35.5,13.3-49,6.6c-11-5.5-16.1-14.9-16.7-26.6c-0.6-12-0.1-24-0.1-36.1C1512.1,587,1512,587,1511.9,587z"/>
		<path class="st7" d="M1063.5,796.8c0-29.1,0.1-58.2-0.1-87.4c0-3.2,0.6-4.5,4.2-4.4c7.4,0.3,14.8,0.3,22.2,0
			c3.8-0.2,4.4,1.2,4.4,4.6c-0.1,56.4-0.1,112.7-0.1,169.1c0,2.2-0.2,4.4,0,6.5c0.3,3.2-0.6,4.6-4.2,4.4c-7.2-0.3-14.5-0.3-21.7,0
			c-3.7,0.1-4.9-0.6-4.8-4.6C1063.6,855.6,1063.5,826.2,1063.5,796.8z"/>
		<path class="st6" d="M1220.5,308.4c4.7-7.2,9.3-13.3,15.6-17.9c10.1-7.5,20.9-9.2,32.8-5.1c2.9,1,4,2.7,3.3,5.9
			c-1.3,5.9-2.2,12-3.3,17.9c-0.9,4.8-2.8,6.2-7.6,5.2c-7.8-1.6-15.7-2.6-22.9,1.3c-9.9,5.4-16.5,13-16.4,25.3
			c0.3,22.6,0,45.2,0.2,67.8c0,3.3-0.7,4.5-4.2,4.4c-7.7-0.3-15.3-0.2-23,0c-2.4,0-3.6-0.4-3.6-3.2c0.1-40.4,0.1-80.8,0-121.2
			c0-2.4,0.7-3.3,3.2-3.2c5.2,0.2,10.4-0.1,15.6,0.2c5.7,0.3,7.3,1.8,8.2,7.5C1219.2,297.8,1219.7,302.5,1220.5,308.4z"/>
		<path class="st7" d="M1090.6,546.7c5.4-8.5,11-15.5,18.8-20.2c9.3-5.7,19.3-6.5,29.6-2.8c2.7,1,4.1,2.3,3.2,5.8
			c-1.5,5.9-2.1,12-3.1,18c-0.8,4.7-3,6.2-7.7,5.2c-4.8-1-9.7-1.6-14.7-1.1c-10.3,1-21.3,10-24.2,20c-0.4,1.3-0.3,2.9-0.3,4.3
			c0,23.8-0.1,47.5,0.1,71.3c0,3.4-0.8,4.4-4.3,4.3c-7.7-0.3-15.4-0.2-23,0c-2.7,0-3.4-0.7-3.4-3.4c0.1-40.3,0.1-80.6,0-120.9
			c0-2.7,0.8-3.5,3.4-3.4c5.5,0.3,11,0.2,16.5,0.3c4.3,0.1,6.2,2.7,6.8,6.5C1089.1,535.5,1089.7,540.5,1090.6,546.7z"/>
		<path class="st7" d="M1469.7,588c0,19.8-0.1,39.7,0.1,59.5c0,3-0.8,3.9-3.9,3.9c-7.7-0.2-15.3-0.2-23,0c-2.7,0-3.9-0.6-3.8-3.6
			c0.1-40.1,0.1-80.2,0-120.3c0-3,1.1-3.7,3.8-3.6c7.5,0.1,15.1,0.2,22.6,0c3.4-0.1,4.4,0.8,4.3,4.3
			C1469.6,548,1469.7,568,1469.7,588z"/>
		<path class="st6" d="M1474.2,486.7c0,10.5-8.7,19.1-19.4,19.3c-10.7,0.2-19.7-8.8-19.5-19.6c0.2-10.8,8.7-19.2,19.4-19.2
			C1465.6,467.2,1474.2,475.8,1474.2,486.7z"/>
	</g>
</g>
</svg>
