<?xml version="1.0" encoding="utf-8"?>
<!-- Generator: Adobe Illustrator 24.1.0, SVG Export Plug-In . SVG Version: 6.00 Build 0)  -->
<svg version="1.1" id="Layer_1" xmlns="http://www.w3.org/2000/svg" xmlns:xlink="http://www.w3.org/1999/xlink" x="0px" y="0px"
	 viewBox="0 0 1800 1000" style="enable-background:new 0 0 1800 1000;" xml:space="preserve">
<style type="text/css">
	.st0{fill:#030203;}
	.st1{fill:#B7BFC6;}
	.st2{fill:#462A7D;}
	.st3{fill:#FAD5B9;}
	.st4{fill:#ECEFF4;}
	.st5{fill:#623DBF;}
	.st6{fill:#633EC0;}
	.st7{fill:#331B53;}
	.st8{fill:#ED9767;}
	.st9{fill:#331C52;}
	.st10{fill:#45297B;}
	.st11{fill:#EE9B00;}
	.st12{fill:#6146A0;}
	.st13{fill:#5B2911;}
	.st14{fill:#F5BD00;}
	.st15{fill:#7D3E1B;}
	.st16{fill:#8867DE;}
	.st17{fill:#80401C;}
	.st18{fill:#EDF0F5;}
	.st19{fill:#AD98F4;}
	.st20{fill:#F7F7F7;}
	.st21{fill:#E8EBF0;}
	.st22{fill:#BC79F4;}
	.st23{fill:#AD5C26;}
	.st24{fill:#E4696B;}
	.st25{fill:#EF9496;}
	.st26{fill:#FAC100;}
	.st27{fill:#341406;}
	.st28{fill:#6A51A9;}
	.st29{fill:none;}
	.st30{fill:#253238;}
</style>
<g>
	<g>
		<path class="st0" d="M494.2,863.5c-44.9,4.3-89.2,2.8-134.4,0.4c1.1,1.9,2,3,2.5,4.3c1.8,4.6,4.3,9.2,4.9,14
			c1.1,10-5.1,16.5-15.2,17.1c-1.7,0.1-3.3,0.1-5,0.1c-24.6,0-49.2,0-73.8,0c-21,0-28.2-9.6-22.5-29.8c1.4-5.1,3.3-10.1,5.1-15.7
			c-8-1.3-16-2.2-23.7-3.8c-13.3-2.7-26.5-5.5-39.5-9.1c-5.8-1.6-11.4-4.9-16.3-8.5c-8.7-6.4-12.1-15.8-8.1-25.7
			c3.7-9.5,8.2-19.3,14.6-27.2c15-18.9,31-36.8,46.8-54.9c2-2.3,2.7-4,2.2-7.3c-1.3-7.8,1-15.3,4.8-22.1c2-3.6,4.6-6.9,6.2-9.4
			c-11.8-13.9-23.4-27.5-35.4-41.5c-6.6,4.5-15.1,5.6-23.9,2c-8.7-3.6-12.6-10.2-11.8-19.8c0.1-1.4-1.1-3.3-2.2-4.5
			c-10.2-11.7-14.9-24.9-11.4-40.3c2-8.9,7.2-15.7,15.9-19.5c1.3-0.6,2.9-2.3,3-3.6c1.2-14.8,5.7-28.4,12.4-41.5
			c0.3-0.6,0.5-1.2,0.6-1.3c-8.7-1.1-17.5-1.6-26-3.4c-5.2-1.1-10.1-4.1-15.1-6.5c-3.5-1.7-5.2-4.6-3.7-8.6
			c-6.3-2.7-12.9-4.9-18.8-8c-19.6-10.1-30.1-29.8-25.3-49.1c1.7-6.9,5.1-13.9,9.4-19.7c22.1-29.9,49.9-53.9,80.6-74.5
			c13.6-9.1,28-17,42-25.5c1.6-1,3.3-2.4,4-4c10.6-26.4,17.9-53.8,22.4-82c0-0.3-0.1-0.6-0.2-1.3c-7.1,4.2-14,8.6-21.2,12.4
			c-10.9,5.5-21.9,10.6-33,15.5c-3.4,1.5-7.5,1.7-11.2,1.8c-6.9,0.1-10.9-4.3-10.2-11.2c0.4-3.9,1.1-8,2.7-11.6
			c20.9-49.5,52.4-90.5,99.5-117.5c31.9-18.3,64.5-18.3,96.7,0.4c23.4,13.7,42.9,31.8,61,51.6c26.9,29.5,49.8,62,70.6,96
			c1.1,1.7,3.2,3.4,5.2,3.9c32.7,8.1,66.1,11.5,99.8,11.6c17.6,0,35,0.2,52.6,0.9c5.1,0.2,10.5,1.8,15.3,4c7.4,3.5,10.5,10.5,7.3,18
			c-2.8,6.6-6.6,13.2-11.2,18.7c-24.4,28.4-53.9,50.3-87.1,67.5c-2.2,1.1-4.4,2.3-6.6,3.5c2.6,2.7,5.5,5.3,7.9,8.2
			c12.9,15.6,10.8,39-5,51.5c-4.6,3.6-5.9,6.9-4.4,12.2c0.3,0.9,0.2,2,0.4,3.6c7.2-2.3,14.3-4.7,21.3-6.8c11.8-3.6,23.7-7,35.5-10.8
			c2.2-0.7,4.3-2.7,5.7-4.5c4.4-5.6,7.9-12.2,13.1-17c3.7-3.6,9.2-5.8,14.4-7.3c2.9-0.8,4.8-1.5,6.6-3.9
			c10.8-14.4,21.8-28.7,33-42.9c4.7-5.9,10.8-9.8,18.6-11c1.8-0.3,3.5-1,5.3-1.5c7.4-2.3,8.1-3.5,9.1-11.2
			c1.1-8.7,2.1-17.7,4.2-26.2c1.1-4.4,3.7-9.3,7.1-12.2c11.3-9.5,23.4-18.4,35.2-27.3c1.7-1.3,3.8-2.1,5.8-2.9
			c3.7-1.5,7.6-2.5,10.5,1.3c2.9,3.8,1,7.4-1.6,10.5c-4.8,5.5-9.6,11.1-15.1,16.2c-10.5,9.7-14.9,21.2-12.9,35.5
			c2.4,17.9-5.1,31.1-20.6,40.1c-1.2,0.7-2.3,1.5-3.5,1.9c-16.3,5.8-26.8,18.2-36.3,31.8c-2.8,4.1-5.9,8.1-8.8,12.2
			c11,10.3,14.3,29.5,5.2,48.6c-7.7,16.2-18.1,22.5-34.8,21.5c-1.9,10-3.4,20.3-6,30.2c-2.3,9-5.6,17.8-8.7,26.6
			c-5.8,16.2-17.2,26.9-32.6,34c-23.9,11-49,18.5-74.2,25.7c-0.6,0.2-1.2,0.4-1.9,0.6c0,0.6-0.2,1.2,0,1.6c6,13.4,3,25.4-5,36.8
			c-2.5,3.5-4.8,7.2-7.3,10.8c-3.6,5.2-3.6,8.5,0.6,13.1c20.2,21.6,31.3,48,38.7,76c3.9,15,6,30.4,9.1,45.7
			c1.1,5.2-1.4,8.5-5.2,10.8c-6.2,3.8-9.1,8.7-6.6,16.1c0.1,0.2,0,0.3,0,0.5c-0.2,7,2,11.8,9,15.7c11.5,6.2,20.3,16,23.5,29.3
			c2.6,10.8-3.4,18.6-14.7,18.7c-29.1,0.1-58.2,0.1-87.4,0c-11.4,0-19.5-7.9-20.7-19.7C495.3,874.4,494.8,869.1,494.2,863.5z
			 M307.5,336.4c-0.4,0.2-0.7,0.4-1.1,0.6c-3.5,2.8-7.4,5.2-10.5,8.3c-16.1,15.8-16.6,37.3-1.2,53.6c2.9,3.1,3.4,5.7,2,9.7
			c-8.7,23.9,3,50.2,26.4,59.7c1.7,0.7,5,0.5,6.1-0.7c12.5-12.8,24.7-25.7,37.6-39.3c-3.3-1.1-5.2-1.6-7-2.3
			c-17.5-6-26-25.9-18.2-42.6c5.8-12.5,16.3-18,29.7-18.6c15.4,1.8,25.7,9.6,29.5,25c0.8,3.1,0.7,6.5,1,9.9
			c25.1-7.8,46.3,1.1,66.4,15.1c6.3-7.5,14.2-11.7,23.6-12.5c0-2.2,0-4,0-5.9c-0.3-8.5,1.3-16.7,6.5-23.7c7-9.5,18.9-10.5,26.7-1.6
			c3.4,3.9,6.1,8.8,7.8,13.8c3.9,11.2,2.7,22.3-2.1,32.1c8.8,10.1,17.3,19.7,26,29.6c5.6-17.1,5-33.3-2.1-49.5c-1.1-2.6-1-6-0.7-8.9
			c0.7-6.6,1.8-13.2,2.9-20.7c-7.3,3.7-12.3,3-17.5-1.4c-8.3-7.1-18-11.5-29.2-11.7c-7.3,0-14.7,0.1-22,0.4
			c-7.5,0.3-12.1-4-11.6-11.5c0.1-2,0.7-3.9,1-5.9c2.7-7.8,6.9-14.7,15.2-20.2c-39.7-1.8-77.8-5.3-116.3-1.7
			c10.9,4.9,19.1,12.5,24.3,23c1.7,9.1-2.4,14.2-11.8,15c-4.9,0.4-9.8,1.4-14.8,2.2c-0.5,0-1-0.1-1.5,0.1c-19.5,4.6-36,13.8-47.2,31
			c-4.8,7.4-14.6,7.4-19.9,0.4c-5.1-6.8-8-14.4-8.1-23.1c-0.1-10,4.2-18.3,9.5-26.3c0.3-0.4,0.5-0.8,0.8-1.2
			c0.2-0.3,0.4-0.6,0.6-0.9C308.3,336.1,307.9,336.3,307.5,336.4z M537,696.3L537,696.3c0.3,0.6,0.7,1.3,1.1,1.9l0,0
			c0.6,1.5,1,3.1,1.7,4.6c1.6,3.3,2.4,6.6-1.7,8.5c-3.7,1.7-5.7-0.6-7.4-3.8c-3.4-6.5-7-12.9-10.8-19.2c-0.8-1.3-2.1-3-3.4-3.3
			c-7.7-1.6-15.6-2.7-23.7-4.1c0,2.5-0.1,4.2,0,5.8c0.9,16.7-3.9,31.3-15.5,43.6c-1.6,1.7-4.6,3-6.8,2.9c-7.1-0.3-14.4-1.1-21.4-2.2
			c-2.2-0.4-5.2-2.1-6-4c-0.6-1.5,1.3-4.4,2.8-6.2c6.3-7.3,13.1-14.3,19.2-21.8c3-3.7,4.8-8.4,7.7-13.7c-1.8,0.4-2.3,0.4-2.6,0.6
			c-21.1,11.2-39.7,25.3-54.5,44.1c-1.4,1.8-3.9,2.7-5.9,4c-4.3-1.2-8.6-2.4-13-3.6c-7.9-2.1-9-4.1-5.8-11.7
			c5.2-12.5,14.4-22,24.6-30.3c4.5-3.7,9.5-6.9,14.4-10.5c-0.1-0.3-0.1-0.6-0.2-0.9c-12.4,0.8-24.7,1.6-37.1,2.3
			c-13.9,1.6-27.7,2.7-41.5,5c-10.2,1.7-14.1,10.2-10,20c1.5,9.9-0.4,18.9-7.7,26.2c-11.5,8.4-24.7,11.5-38.6,11.8
			c-19.5,0.6-38.3-2.2-55.5-13.3c-22.6,24.5-46.6,47.7-61.5,79.2c1.8-0.4,2.3-0.3,2.6-0.6c12.2-7.5,25.9-11.2,39.9-14.3
			c13.9-3,27.8-2.7,41.8-1.9c1.6,0.3,3.3,0.7,4.9,0.9c30.4,3.9,59.9,12.2,88.7,22.3c27.2,9.5,54.2,19.9,81.6,29.1
			c17.4,5.9,35.4,9.4,54,8.1c32.8-2.1,61.4-14.9,87.2-34.5c2.5-1.9,5.1-3.7,7.4-5.8c1-1,2-2.7,1.9-4c-0.3-4.4-1.1-8.8-1.8-13.3
			c-2.9-12.5-5.1-25.2-8.8-37.5c-6.9-23-16.6-44.7-33.1-62.8c-3.1-3.4-6.4-6-11.5-5.7c1.2,1.9,2.4,3.8,3.6,5.6
			C536.2,695,536.5,695.6,537,696.3z M786.9,310.6c0.7-0.3,1.3-0.6,2-1c0.1-0.1,0.1-0.2,0.2-0.3c0,0.1-0.1,0.2-0.1,0.4
			C788.3,310,787.8,310.4,786.9,310.6c-0.3,0.4-0.6,0.7-1,1c-2.2,1.5-4.4,2.8-6.4,4.5c-7.4,6.1-15.5,12-16.4,22.9
			c-0.5,6.1-1.7,12.2-2.2,18.4c-0.9,11.5-4.1,16-15.2,19.8c-2,0.7-4.1,1.5-6.2,1.8c-6.7,1-11.8,4.8-15.8,9.8
			c-10.2,13-20.2,26.2-30,39.5c-1,1.3-1.1,3.2-1.6,4.8c1.8,0,3.6,0,5.4,0c5.5,1.2,8.9-1,12.3-5.7c12.2-17.5,24.6-34.8,45.9-43.2
			c14.1-5.5,20-17.1,18.4-32.6c-1.1-11-0.9-22.1,5.8-31.7c2-2.7,4-5.3,6-8C786.3,311.4,786.6,311,786.9,310.6z M212.4,344.7
			c-0.5,0.1-0.9,0.3-1.4,0.4c0.1,0.2,0.2,0.4,0.3,0.6c0.4-0.3,0.8-0.6,1.2-0.9c0.1-0.3,0.3-0.5,0.4-0.8
			C212.8,344.3,212.6,344.5,212.4,344.7z M610.3,374.9L610.3,374.9c0.7-0.6,1.4-1.2,2.1-1.9l-0.1,0.1c1.6-0.6,3.4-1,4.6-2
			c14.1-11,28.6-21.5,41.9-33.3c8.8-7.9,16.6-17.4,23.7-27c5.5-7.5,3.2-11.1-6.3-12.1c-0.5-0.1-1-0.1-1.5-0.1
			c-19.6-1-38.5,2.8-57.3,7.1c-6.7,1.4-13.4,2.7-20.1,4.1c-13.6,2.3-27.1,4.6-40.7,6.9c0,0.1,0,0.3,0.1,0.4c1.2,0.9,2.4,1.7,3.7,2.5
			c18.7,12.3,28.4,29.2,26.8,52c-0.3,4.5-0.6,8.9-0.9,13.5c-0.2,1-0.3,1.9-0.5,2.9c-0.1,0.2-0.2,0.4-0.2,0.6
			c0.2-0.1,0.4-0.1,0.6-0.2c7.3-4,14.7-7.9,22.1-12C608.9,376,609.6,375.4,610.3,374.9z M474.4,637.8c-4.4,2.9-8.8,5.8-13.9,9
			c9.4,2.6,11.5,1.1,14.3-8.7c0.1-0.5,0.2-1,0.3-1.5C474.9,637.1,474.6,637.5,474.4,637.8z M670.4,494.5c0.2,0.1,0.3,0.3,0.5,0.4
			C670.8,494.8,670.6,494.6,670.4,494.5c-1.2-5.7-2.4-11.5-3.8-18.2c-1.9,5.3-3.5,9.8-5.3,15C664.6,492.5,667.5,493.5,670.4,494.5z
			 M527.9,676.2C528.2,676.5,528.6,676.8,527.9,676.2C528.7,676.5,528.3,676.3,527.9,676.2c-11.8-8.5-20.9-9.9-28.9-4.4
			c2.1,0.3,4.2,0.6,6.3,0.9C512.8,673.9,520.4,675,527.9,676.2z M284.8,662.1c2.6,0,5.1,0,8.4,0c-1.4-5.9-2.6-10.8-4-16.5
			c-3.2,2-5.8,3.7-8.4,5.3c-3.2,2.1-6.3,4.3-9.7,6.6C275.2,662.8,279.6,663.7,284.8,662.1z M537,650.1c-5,3.6-10,7.3-15.5,11.2
			c6.3,3.1,12,5.8,18.4,8.9c3-4.7,6-9.4,8.9-14.2c4.7-6.9,8.7-14,5.6-20.2C548.9,640.5,543,645.3,537,650.1z M473.8,494.3
			L473.8,494.3c-9.8-15.7-35.1-17.5-47.3-2.4c5.1,2.9,10.1,5.7,15.1,8.5c12,4.9,23.5,3.6,35.1-2.2c-0.8-1.1-1.4-1.9-2-2.7
			C474.4,495.1,474.1,494.7,473.8,494.3z M645.6,496.5c-1.2,5.2-2.3,10.3-3.6,16.4c7.1-3.2,13.2-5.8,19.3-8.5
			c0.6-0.3,1.1-0.7,1.1-0.8c-3.9-2.6-7.9-5.3-12-8c2.8-14.4,7.7-27.9,16.6-39.8c3.5-4.7,7.7-8.6,14.2-9.6c1.4-0.2,3.4-3.6,3.1-5.1
			c-0.3-1.5-3-3.3-4.8-3.6c-1.7-0.3-4.1,0.8-5.4,2c-4.1,4-8.5,8-11.7,12.9C653.9,465.7,649.1,480.9,645.6,496.5z M489.6,335.8
			c-1.1,2.9-2.3,5.8-3.8,9.6c23.3-2.6,44.5-1.5,62.1,15c1.9-7.9,1.2-13.9-2.1-19.5c-4.8-11.7-20.5-20-34.9-18.5
			C501.7,323.3,493.8,326.5,489.6,335.8z M583.1,573.8c-5,12.7-9.9,25.3-15.3,38.8c13.2-4.1,26-8.2,38.1-12
			c-3.1-7.6-5.9-14.1-8.3-20.8c-1.2-3.2-1.5-6.7-2.3-10c1.3-16.3,2.3-32.5,4.2-48.7c1-8.7,3.7-17.4,5.7-26.3
			c-13.5,8.7-13.5,8.7-13.6,23.9c0,1.5,0.1,3-0.1,4.5C588.7,540.1,585.9,556.9,583.1,573.8z M400.4,148.9c0-0.3,0-0.6-0.1-0.9
			c-6.2-4.7-12-9.8-18.6-14c-13.7-8.6-28.2-15-44.9-15.4c-22.6-0.4-42,8.2-60,20.7c-27.6,19.2-48.8,44.5-65.9,73.1
			c-6.2,10.4-10.6,21.9-15.7,32.8c-0.6,2.1-1.1,4.3-2,7.8c5.1-1.3,9.2-1.9,13.1-3.4c18.9-7.6,36.1-18.2,52.9-29.3
			c1.2-0.8,2.3-2.5,2.4-3.9c0.6-6.4,0.8-13,1.1-19.5c0.6-3.7,2.1-6.6,6.4-5.9c3.7,0.6,4.6,3.7,4.3,6.8c-1.4,13.8-2.5,27.5-4.6,41.2
			c-1.9,12.5-4.8,24.8-7.2,37.2c-0.1,0.2-0.2,0.4-0.3,0.6c0.2-0.1,0.4-0.2,0.6-0.3c2.3-1,4.6-1.9,6.8-3.1
			c23.8-12.7,48.6-23,74.8-29.7c9.5-2.4,19.2-4.3,28.7-6.4c12.5-1,24.9-3.1,37.4-2.7c18.4,0.6,36.8,2.9,55.1,4.5
			c6.6,1.7,13.3,3.5,21.3,5.6c-5.5-7.7-10-14.4-14.8-20.8c-18.6-25.2-38.5-49.2-62.2-69.8C406.5,152.1,403.3,150.7,400.4,148.9
			L400.4,148.9z M678.6,473.3c0.5,5.2,0.1,10.8,1.8,15.5c3.3,9.3,11.7,11.5,19.7,5.7c9.7-7.1,14.4-17.2,14.6-29.2
			c0.8-6.5-0.4-12.7-4.7-17.8c-5.2-6.2-13-5.4-17.1,1.4c-1.1,1.8-2.5,3.8-4.3,4.7C680.3,457.8,679.5,465.4,678.6,473.3z
			 M548.1,858.2c-2.1,1.6-4.2,3.2-6.4,4.7c-2.3,2.1-4.7,4.1-6.9,6.3c-2.3,2.4-4.7,3.9-7.7,1.4s-2.5-5.3-0.2-7.8
			c2.6-3,5.5-5.7,8.3-8.5c0.3-0.3,0.7-0.6,1-1c-0.5,0.2-1,0.3-1.5,0.5c-8.9,2.5-18,4.8-26.9,7.5c-1.3,0.4-3,2.5-2.9,3.7
			c0.2,5.3,0.6,10.7,1.7,15.9c1.3,6,4.7,8.3,10.9,8.3c14.2,0,28.4,0,42.6-0.1c12.3,0,24.8-0.1,37.2-0.1c3.8-0.6,7.5-1.1,11.3-1.7
			c-0.9-3.9-1-8.3-2.9-11.7C593.6,854.7,568.7,847.4,548.1,858.2z M274.7,642c3.1-1.7,6-3.5,9.2-4.9c3.1-1.3,3.9-3.2,4-6.5
			c0-9.3,0.4-18.7,1-27.9c0.3-5.4,1.4-10.8,2.1-15.8c-9.3,2.7-18.2,5.2-27,7.8c-12.7,1.4-24.6-1.2-36.4-6.9c0.3,1.1,0.4,1.7,0.6,2.3
			c5.7,20,15.6,37.6,29.4,53c6.1,6.8,5.8,7,13.2,1.9C272,643.9,273.3,643,274.7,642z M305.4,855.9c-4.2,1.7-8.4,3.3-12.7,5
			c-3.9,2.8-8,5.2-11.5,8.4c-2.8,2.5-5.4,3.8-8.2,0.9c-2.4-2.6-1.8-5.8,0.9-7.9c6.2-4.7,12.7-9,19-13.6c9.2-3.4,18.6-6.3,28.7-5.3
			c0.9,0.1,2.4-0.7,2.7-1.4c1.6-4.4,2.9-9,4.6-14.6c-6.6-0.6-12.2-1-17.9-1.5c-11.2,0.9-22.5,1.7-33.8,2.9c-1.2,0.1-2.9,1.7-3.3,3
			c-4.9,14.6-9.9,29-14.3,43.8c-2.8,9.3,0.4,13.3,10.1,13.4c10,0.1,20.1,0,30,0c15.8-0.1,31.5-0.1,47.3-0.2c3.1-0.6,7.5-0.3,8.9-2.2
			c1.4-2,0.7-6.4-0.5-9.2c-3.9-9.1-11.2-15.3-20.1-19.4C325.8,853.6,315.8,851.1,305.4,855.9z M605.5,562.7
			c0.7,5.2,0.6,10.8,2.2,15.8c1.8,5.4,5,10.3,7.9,15.3c0.6,1,2.7,1.9,3.7,1.5c5.5-2.1,10.8-4.6,15.1-6.4c-2.2-7.1-4.7-13.2-5.9-19.4
			c-1.2-5.8-1.1-12-1.6-17.9c0.3-4.1,0.3-8.3,1-12.3c3.3-18.6,6.9-37.2,10.3-55.7c1.7-5.2,3.5-10.5,5.4-16.2c-3.4,0.9-5.9,2-8.5,2.2
			c-11.5,1-15.9,8.4-17.2,18.7c-2.1,7.6-4.5,15.3-6.3,23.1C607.9,528.1,604.5,545.2,605.5,562.7z M274.9,688.5c5-4,8.3-9.1,9.7-16.7
			c-4.9,2-8.9,3.6-13.1,5.3c-3.9,2.2-8.1,4-11.5,6.8c-8,6.5-15.7,13.7-17.6,24.6c-2.3,7.8,0.6,13,9.9,16.8c13.7,5.6,27.9,8.2,42.5,7
			c8.1-0.7,16.1-3.6,24-5.5c8.9-3.2,12.9-8.8,11.5-16.9c-4,1.7-6.8,0-9.7-2.8c-9.1-8.8-16.4-18.9-21.8-30.4
			c-0.7-1.5-1.8-2.8-2.1-3.4c-4.1,6.8-7.8,13.6-12.2,19.8c-1.3,1.8-4.9,3.1-7.1,2.7C273.9,694.9,274.6,691.3,274.9,688.5z
			 M382.4,331.7c-3.4-2-6.6-4.6-10.2-5.9c-22.1-8-54.3,6.8-62.6,28.8c-3.4,9.1-2,17.7,3.4,25.7c1.6,2.4,3.2,2.9,4.9,0.2
			c6.1-9.8,14.9-17,24.2-23.5c15.3-8.3,31.6-12.7,50.7-13.7C388.6,338.7,385.5,335.2,382.4,331.7z M472.8,251.9
			c-17.8-5.1-36-7.3-54.2-7.2c-13.5,0.1-26.8,1.8-40.3,2.7c-1.3,0.1-2.7,0-4,0.3c-41.2,6.5-79.1,21.6-114.8,42.8
			c-1.1,0.7-2.6,1.4-3,2.5c-2.1,5.8-4,11.9-6.2,18.6c2.4-1,3.7-1.5,5.1-2.1c25.6-12,52-21.9,79.3-29.3c18-4.9,36.4-8.5,54.6-12.7
			c1.3-0.1,2.6-0.2,4-0.2c17.7-1,35.2-2.6,52.9-2.9c10.9-0.2,21.6,1.4,32.4,2.2c7.6,1.4,15.3,2.7,22.9,4.1c0.3-0.3,0.6-0.7,0.9-1
			c-3.1-3.7-5.5-8.6-9.4-10.8C486.8,255.4,479.6,254.1,472.8,251.9z M278.7,332.7c-1.6,0.3-3.3,0.3-4.9,0.8
			c-45.8,13.5-88.7,32.9-126.1,63c-12.4,9.9-23.6,21.1-32.3,34.8c-10.6,16.6-2.9,36.2,8.7,44.2c8.9,4,17.8,8,26.6,12.2
			c3.3,1.5,5.4,0.4,7.9-2c25.9-25.6,45.2-55.5,57.8-89.8c1.7-4.6,3-9.3,4.9-15.4c-2.3,1.3-3.2,1.6-3.9,2.2
			c-9.1,7.8-18.3,15.6-27.3,23.5c-2.5,2.1-5.4,3.4-7.2,0.5c-1.1-1.7-1-5.7,0.3-7.3c3.3-4.1,7.3-7.7,11.4-11.2
			c7.2-6.1,14.6-12,21.9-18.1c13.3-8.3,26.4-17,39.9-25.1C263.6,340.4,271.3,336.8,278.7,332.7c0.5,0,1-0.2,1.4-0.3
			c-0.1-0.2-0.2-0.4-0.3-0.6C279.5,332.2,279.1,332.5,278.7,332.7z M600,298.3c1.2-0.4,2.4-0.7,3.6-1.1c1.9-0.2,3.7-0.5,5.6-0.7
			c-0.1-0.2-0.1-0.5-0.2-0.7c-4.7,0-9.4,0-14.2,0c-2.7-0.4-5.5-1.1-8.2-1.2c-26.9-1-52.8-7.5-79-12.5c-17.9-3.4-36-5.1-54-7.5
			c-0.8-0.2-1.6-0.6-2.4-0.5c-18.3,0.9-36.6,1.8-54.8,2.8c-65,10-125.5,32.2-182.6,66.2c1.4,0.5,1.7,0.8,2,0.7c1-0.3,1.9-0.6,2.8-1
			c65.3-28.4,133.9-39.8,204.7-38.7c22.7,0.3,45.4,2.6,68,3.5c28.1,1,56.1,0.6,84.1-3.9c7.6-1.3,15.2-3.3,22.8-4.9
			C598.8,298.5,599.4,298.4,600,298.3z M423.6,465.4c1.7-0.6,3.4-1.2,5.2-1.6c8.5-2.2,17-5.3,25.6-6.2c22-2.4,40.9,5.6,57.5,19.6
			c8,6.7,16,13.7,23.9,20.4c7.5,6.5,16.1,11,26.4,9.5c12.8-1.8,22.5-9.2,33-17.9c-15.3-1.2-25.4-9.3-34.2-19.5
			c-7-8.2-13.2-17.4-20.4-25.4c-6.8-7.6-14.6-14.6-21.9-21.8c-1.3-0.8-2.6-1.6-3.8-2.4c-17.2-12-32.7-9.4-42.4,6.9
			c-3.3,1.4-5.8,0.2-8.6-1.8c-5.2-3.9-10.5-7.6-16.4-10.7c-10.5-5.4-21.7-8.7-33.8-6.9c-16.3,2.5-27.2,13.2-37.6,24.7
			c-7.4,8.3-14.8,16.9-22.2,25.1c-13.2,14.5-26.3,29-48.9,31.6c5.9,4,10.6,7.4,15.6,10.5c16.4,9.9,33.4,10.8,49.8,0.8
			C388.5,489.1,405.9,477.1,423.6,465.4z M281.5,343.5c-15.4,8.7-30.7,17.5-46,26.4c-1,0.6-1.7,2.4-2,3.7
			c-10.4,43.1-30.9,80.5-61.6,112.6c-4.3,4.5-9,8.7-14,13.6c3,1.2,4.9,2.1,7,2.7c10.9,3.2,22.1,2.9,33.3,1.7c2-0.2,5,0.6,6,2
			c1,1.4,0.4,4.4-0.3,6.3c-1.2,2.9-3.2,5.4-4.7,8.2c-6.6,12.5-11.1,25.6-11.9,41.1c2.7-0.6,4.8-0.7,6.7-1.5
			c3.9-1.6,7.6-4.2,11.6-5.4c14-4,28.1-7.4,42.1-11.3c1.7-0.5,4-1.7,4.5-3.1c5.6-15.7,8.3-31.8,9.1-48.4c-6.7,0-13.5,1.1-19.6-0.2
			c-20.2-4.4-32-24.2-27.4-44.4c4.3-19.3,23.7-31.3,43.7-27.9c5.9,1,7.9,3.6,8.8,9.1c4.3,24.7,6.3,49.4,3.7,74.4
			c-2.8,27.9-10.6,54-27.9,76.6c-0.6,0.7-0.9,1.6-1.4,2.7c9.2,2.7,18.3,3.7,27,0.8c7.9-2.6,15.6-6.6,23-10.5
			c3.2-1.7,6.1-2.8,9.2-0.6c2.9,2.1,3.7,5,2.4,8.4c-0.3,0.9-0.5,1.9-0.7,2.9c-5.9,26.2-7.1,52.3,1.5,78.2c4.3,13.1,11,24.8,21,35
			c8.6-17.2,23.5-25.5,40.5-30.3c15.1-4.2,30.5-7.4,45.7-11.2c25.6-6.2,49.3-16,67.4-36.2c2.6-2.9,5.8-3.4,9-1.5
			c3.6,2.1,4,5.5,2.8,9.2c-4.5,13.6-9.6,26.7-20.5,36.8c-0.3,0.3-0.2,0.9-0.3,1.3c26.3,1.2,53.8-12,73-35.2
			c20.6-24.7,31.5-53.7,36.7-85.1c1.7-10.8,2.2-21.8,3.2-32.6c-1.4-0.2-1.5-0.3-1.7-0.2c-1.2,0.5-2.5,0.9-3.7,1.5
			c-15.5,6.7-30.1,5.1-43.5-4.8c-6.8-5.1-13.1-11-19.6-16.5c-3.2-2.7-6.4-5.5-9.9-8.5c-10.2,18.9-25.3,29.3-46.2,29.8
			c-21,0.5-36.6-9.5-47.4-27.5c-4.5,3.2-8.5,6.2-12.7,9c-8.5,5.5-16.9,11.5-25.8,16.3c-15.4,8-31.3,8.5-47.4,1.6
			c-13.8-5.8-25-15.3-35.8-25.4c-2.3-2.2-5-4.4-2.9-8.1c2-3.6,5.1-2.7,8.3-1.7c6.8,2,13.7,2.2,21.2-1.1c-1-0.5-1.4-0.8-1.8-1
			c-22.2-12-35.7-39.2-27.3-67.5c0.3-1.1-0.1-3-0.9-3.9c-12.9-14.9-17-38.5-2.4-59.5c0.3-0.5,0.6-1,0.9-1.5
			C282.9,343.1,282.1,343.3,281.5,343.5z M258.8,844.8c4.5-13.5,8.7-25.7,12.7-38.1c0.3-0.9-1.8-3.6-2.9-3.7
			c-17.5-1.9-35.1-2.9-52.1,2c-10.4,3-20.4,7.1-30.2,11.7c-5.3,2.4-5.4,5.4-0.5,8.9c3.8,2.8,8.2,5.6,12.8,6.6
			C218.3,836.7,238.3,840.6,258.8,844.8z M212.5,563.9c-11.2,0.8-16.3,5.6-15,15.1c3.7,26.4,12.9,50.8,28.8,72.4
			c7.2,9.8,15.5,18.8,25.1,26c5-3.2,9.5-6.2,14.6-9.5c-3.7-4.3-7-8.7-10.9-12.5c-17.3-17.3-29.6-37.6-36.3-61
			C216.1,584.2,214.6,574,212.5,563.9z M261.6,469.2c-0.3-3.7-0.7-10-1.4-16.4c-0.7-6.4-1.8-13-2.7-19.4c-0.3-2.6-1.2-4.1-4.3-4.3
			c-15.2-1.4-29.2,10.5-29.7,25.4c-0.6,15.7,11.9,28.7,27.3,28.5C260.6,482.7,262,481.4,261.6,469.2z M673.2,511.5
			c-0.5-0.3-1.1-0.6-1.6-0.9c-9.5,4.3-19.1,8.5-28.6,13.1c-1.1,0.5-2.1,2.2-2.3,3.5c-1.8,14.2-4.1,28.4-0.5,42.7
			c0.9,3.5,3.1,6.7,4.6,10c3-2.6,7.2-4.7,8.8-8c5.1-10.7,9.8-21.5,13.6-32.6C670.1,530.2,671.3,520.8,673.2,511.5z M549.6,325.5
			c0.9,1.4,1.3,2.1,1.8,2.8c12.5,19.1,18.5,39.5,12.5,62.3c-0.3,1.1-0.1,2.6,0.4,3.7c8.4,19.9,8.4,39.9,0.5,59.9
			c-0.4,1.1-0.8,3-0.3,3.6c4,4.7,8.3,9.2,12.5,13.9c0.4-5.1,0-9.4-0.4-13.8c-2.3-27.8-3.2-55.7,0.2-83.6
			C579.5,353.2,569.4,334.3,549.6,325.5z M187,571.1c-9.3-1.2-16,2.9-18.6,11.5c-2.4,7.9-1.1,15.5,2.3,22.9
			c3.6,7.8,9.8,12.8,16.9,17.3c1.6,1,2.8,4.2,2.5,6.1c-0.2,1.3-3.4,2.2-5.3,3.1c-0.6,0.3-1.4,0-2.3,0c4.5,5.8,11.4,7.6,17.1,4.8
			c3.1-1.5,4.4-3.2,2.6-7C193.5,611.5,187.9,592,187,571.1z M364.2,854.3c25.2,0.8,49.7,1.5,74.1,2.2c-5.2-2.8-10.6-4.3-16-6.1
			c-15.2-5.2-30.2-10.6-45.5-15.7c-1.7-0.6-5.3-0.1-5.7,1C368.5,841.5,366.6,847.5,364.2,854.3z M467.6,674.7
			c-4.7,0.6-8.4,0.4-11.5,1.7c-17,7.3-32.9,16.4-45.4,30.4c-3.7,4.1-6.5,8.9-9.8,13.6c4.8,2.9,7.4,2.2,10.9-1.3
			c8.4-8.7,17.2-17.3,26.7-24.8C447.1,687.3,457,681.7,467.6,674.7z M352.5,856c1.8-4.7,3.6-9.3,5.1-14.1c0.3-1-0.4-3.1-1.3-3.6
			c-4.8-2.6-9.7-5-14.8-7.1c-0.8-0.3-3.1,0.9-3.5,1.9c-1.6,4.1-2.7,8.5-3.9,12.7C340.3,849.2,346.1,852.5,352.5,856z M403.5,667.6
			c0,0.2,0,0.4,0.1,0.5c1.3,0,2.5,0,3.8,0c12.9,0,25.6-0.1,38.5-0.2c1.1,0,2.3-0.4,3.2-1c2.3-1.6,4.4-3.4,6.5-5.2
			c1.5-1.2,3-2.5,4.6-3.8c-10.9-3.2-20.6-1.4-30.3,2.3C421.2,663.6,412.2,665.2,403.5,667.6z M585.6,409.6c0,13.2,0,26.6,0,40.9
			C599.3,439,598.6,418.7,585.6,409.6z M246.5,556.1c-0.4-0.5-0.9-0.9-1.3-1.4c-6.7,1.8-13.4,3.5-20,5.4c-0.7,0.2-1.6,1.5-1.5,2.2
			c0.7,6.9,1.5,13.9,2.3,20.8c0.5,0,1,0.1,1.6,0.1C233.8,574.2,240.2,565.2,246.5,556.1z M279.2,816.9c15.7,0,31.1,0,46.6,0
			c-10.6-3.6-21.3-6.6-32.1-8.9c-12.8-2.7-10.1-5.1-14.6,8.5C279.1,816.6,279.2,816.8,279.2,816.9z M460.9,722.2
			c0.4,0,1.3,0.1,2.2,0.2c1.2,0.1,2.4,0.4,3.5,0.2c1.9-0.4,4.5-0.5,5.4-1.8c7.3-9.4,11.5-20.1,10.5-31.1
			C475.7,700.1,468.4,711.1,460.9,722.2z M379.4,375.4c-4.2,0-8.1,3.9-7.9,7.9c0.2,4.4,3.6,7.6,8.2,7.5c4.2-0.1,7.6-3.4,7.6-7.5
			C387.3,379.3,383.6,375.4,379.4,375.4z M527,385.1c0.1-5.8-2.6-9.4-6.2-9.5c-4,0-5.4,2.7-5.5,6.2c-0.2,4.3,2.8,8.1,6.4,8.1
			C525.7,390,526.9,387.3,527,385.1z M575.6,832.7c-6.3,3.8-12,7.2-17.9,10.8c6.4,0,12.7,0,19.1,0
			C576.4,839.9,576,836.7,575.6,832.7z"/>
		<path class="st1" d="M282.6,344.4c-14.6,21-10.5,44.6,2.4,59.5c0.8,0.9,1.2,2.7,0.9,3.9c-8.2,28.3,5.2,55.5,27.3,67.5
			c0.4,0.2,0.8,0.5,1.8,1c-7.5,3.3-14.4,3.1-21.2,1.1c-3.2-1-6.3-1.9-8.3,1.7c-2.1,3.7,0.6,5.9,2.9,8.1c10.8,10.1,22,19.5,35.8,25.4
			c16.1,6.8,32,6.4,47.4-1.6c8.9-4.7,17.3-10.7,25.8-16.3c4.2-2.7,8.1-5.8,12.7-9c10.9,17.9,26.4,28,47.4,27.5
			c20.8-0.5,36-11,46.2-29.8c3.4,3,6.6,5.8,9.9,8.5c6.5,5.5,12.8,11.3,19.6,16.5c13.5,10,28.1,11.7,43.5,4.8c1.2-0.5,2.4-1,3.7-1.5
			c0.1-0.1,0.3,0,1.7,0.2c-1,10.8-1.5,21.8-3.2,32.6c-5.1,31.3-16.1,60.3-36.7,85.1c-19.2,23.1-46.6,36.3-73,35.2
			c0.1-0.5,0.1-1.1,0.3-1.3c10.9-10,16.1-23.2,20.5-36.8c1.2-3.7,0.8-7.1-2.8-9.2c-3.2-1.9-6.5-1.3-9,1.5
			c-18.1,20.2-41.8,29.9-67.4,36.2c-15.3,3.7-30.6,6.9-45.7,11.2c-17.1,4.8-31.8,13.1-40.5,30.3c-9.9-10.3-16.7-22-21-35
			c-8.6-25.9-7.4-52-1.5-78.2c0.2-1,0.3-2,0.7-2.9c1.3-3.4,0.5-6.3-2.4-8.4c-3.1-2.3-6-1.1-9.2,0.6c-7.5,3.9-15.1,7.9-23,10.5
			c-8.7,2.9-17.8,1.9-27-0.8c0.5-1,0.9-2,1.4-2.7c17.3-22.6,25.1-48.8,27.9-76.6c2.5-25,0.6-49.7-3.7-74.4c-1-5.5-2.9-8.1-8.8-9.1
			c-19.9-3.4-39.3,8.6-43.7,27.9c-4.5,20.2,7.2,40,27.4,44.4c6.1,1.3,12.8,0.2,19.6,0.2c-0.8,16.6-3.5,32.8-9.1,48.4
			c-0.5,1.4-2.8,2.6-4.5,3.1c-14,3.8-28.1,7.3-42.1,11.3c-4,1.2-7.7,3.7-11.6,5.4c-1.9,0.8-4.1,1-6.7,1.5
			c0.8-15.5,5.3-28.6,11.9-41.1c1.5-2.8,3.5-5.3,4.7-8.2c0.8-1.9,1.3-4.9,0.3-6.3c-1-1.4-4-2.2-6-2c-11.2,1.2-22.4,1.4-33.4-1.7
			c-2-0.6-4-1.5-7-2.7c5-4.8,9.6-9,14-13.6c30.6-32,51.1-69.5,61.6-112.6c0.3-1.3,0.9-3.1,2-3.7c15.3-8.8,30.6-17.6,46-26.4
			C281.9,343.8,282.2,344.1,282.6,344.4z M513.2,606.5c0.8,0.1,1.5,0.3,2.1,0.2c14.1-2.6,25.4-9.8,34.5-20.7
			c12.7-15.4,18.9-33.7,23.1-52.7c1.6-7.4-1.2-13.8-11.3-10.5c-12.2,3.8-24.6,3.3-36.1-2.1c-8.3-3.9-16-9.5-23.6-14.7
			c-2.9-1.9-4.8-3.7-8.5-1.1c-5,3.5-10.8,6.1-16.3,8.9c-12.8,6.3-25.8,11.8-38.2,18.9c-8.1,4.6-15.9,10.7-22.4,17.3
			c-9.7,10-14.3,23.3-17,36.9c-1.6,8-2.3,16.3-3.5,25.5c5.9-0.6,10.9-0.8,15.7-1.7c32.2-5.9,59.9-21.1,83.9-43.2
			c6.1-5.6,11.8-4.3,14.5,3.5C514,582.4,514.7,594.3,513.2,606.5z"/>
		<path class="st2" d="M333.1,730.6c7.3-7.3,9.1-16.3,7.7-26.2c2.2-1.7,4.3-3.5,6.6-5.2c11.8-8.4,25.3-13,39.1-17
			c2.1-0.6,3.9-1.8,5.9-2.7c12.4-0.8,24.7-1.6,37.1-2.3c0.1,0.3,0.1,0.6,0.2,0.9c-4.8,3.4-9.7,6.6-14.4,10.5
			c-10.2,8.4-19.4,17.9-24.6,30.3c-3.1,7.5-2.1,9.5,5.8,11.7c4.3,1.1,8.6,2.4,13,3.6c-4.1,6.4-7.1,13.5-6.6,21.1
			c0.7,10.1,9.6,17.2,20.4,17.5c13.9,0.4,25.5-5.7,37.1-12.2c2-1.1,4.1-1.9,6.2-2.9c-1.6,1.7-3,3.5-4.8,4.9
			c-17,14.1-36.8,21.5-58.5,24.2c-3.5,0.4-6,1.9-5.7,5.5c0.3,3.5,3.1,5,6.6,4.5c4.4-0.6,8.9-1.1,13.4-2.1
			c24.5-5.4,46-16.5,62.4-35.8c7.9-9.3,14-20.2,20.9-30.3c0.3,0.7,0.9,1.4,1,2.2c0.7,8.6,1.6,17.3,1.9,25.8
			c0.6,14.4,15.2,23.2,27.9,16.8c7.8-3.9,12.2-10.7,15.2-18.5c1.6-4.2,4.4-6.4,9.1-6.4c4.6,0,7.1,2.7,8.6,6.4
			c6.1,15.1,9.9,30.7,11.5,46.9c0.5,5.4,1.3,10.8,2,16.2c-25.8,19.6-54.3,32.2-87.2,34.4c-18.7,1.2-36.7-2.3-54-8.1
			c-27.3-9.2-54.3-19.6-81.6-29.1c-28.8-10.1-58.2-18.5-88.7-22.3c-1.6-0.2-3.3-0.6-4.9-0.9c6.8-17.3,18.5-30.2,35.2-38.3
			c7.9-3.8,16.7-6,24.2-10.3C325.9,740.3,329.1,734.8,333.1,730.6z"/>
		<path class="st2" d="M195.3,245.4c5.2-11,9.5-22.5,15.7-32.8c17.1-28.6,38.3-53.9,65.9-73.1c18-12.5,37.5-21.1,60-20.7
			c16.7,0.3,31.2,6.7,44.9,15.4c6.5,4.1,12.5,9.3,18.6,14c-0.7-0.1-1.4-0.2-2-0.3c-6.7-1.9-13.3-4.2-20.1-5.5
			c-17.1-3.3-30.6,7.1-28.6,23.2c1.6,12.8,4.9,25.5,8.8,37.8c3.7,11.8,9.1,22.9,13.9,34.2c-9.5,2.1-19.2,4-28.7,6.4
			c-26.2,6.6-51,17.1-74.8,29.7c-2.2,1.2-4.5,2.1-6.8,3.1l-0.3-0.3c2.5-12.4,5.4-24.7,7.3-37.2c2.1-13.7,3.2-27.4,4.6-41.2
			c0.3-3.1-0.6-6.3-4.3-6.8c-4.3-0.6-5.8,2.3-6.4,5.9c-2.8,0.9-5.8,1.5-8.4,2.8c-16.3,7.6-30.4,18.5-43.6,30.6
			C205.4,235.4,200.4,240.5,195.3,245.4z"/>
		<path class="st3" d="M374.2,356c4.9-0.7,9.8-1.8,14.8-2.2c9.3-0.8,13.4-5.8,11.8-15c3.6-0.4,7.2-0.8,10.9-1.4
			c18-2.6,36.1-2.6,54.1-1.5c3.9,0.3,7.8,1.2,11.8,1.8c-0.3,2-0.8,3.9-1,5.9c-0.5,7.4,4.1,11.8,11.6,11.5c7.3-0.3,14.7-0.5,22-0.4
			c11.3,0.1,20.9,4.5,29.2,11.7c5.1,4.4,10.1,5.1,17.5,1.4c-1.1,7.5-2.3,14.1-2.9,20.7c-0.3,2.9-0.4,6.3,0.7,8.9
			c7,16.2,7.7,32.4,2.1,49.5c-8.7-9.9-17.2-19.6-26-29.6c4.8-9.8,6-21,2.1-32.1c-1.7-4.9-4.4-9.8-7.8-13.8
			c-7.8-8.8-19.6-7.9-26.7,1.6c-5.2,7-6.8,15.2-6.5,23.7c0.1,1.8,0,3.6,0,5.9c-9.3,0.9-17.3,5.1-23.6,12.5
			c-20.1-14-41.3-23-66.4-15.1c-0.3-3.4-0.2-6.8-1-9.9c-3.8-15.3-14.2-23.2-29.5-25C372.2,362.1,373.2,359,374.2,356z"/>
		<path class="st4" d="M515,420c1.3,0.8,2.6,1.6,3.8,2.4c0.5,1.2,0.7,2.6,1.4,3.6c5.1,6.9,10.5,13.7,15.6,20.7
			c11,15.3,20.4,31.6,36.8,42.2c2.6,1.7,2.4,5.1-0.7,6.4c-4.6,1.8-9.4,3.7-14.3,3.9c-7.2,0.2-14.6-1.1-21.8-1.7
			c-7.9-6.8-15.9-13.7-23.9-20.4c-16.7-14-35.5-22-57.5-19.6c-8.6,0.9-17.1,4.1-25.6,6.2c-1.7,0.4-3.4,1.1-5.2,1.6
			c-4.8,0-9.7,0.3-14.5-0.2c-19-1.8-34.6-10.5-32.8-32.9c10.3-11.5,21.3-22.2,37.6-24.7c12-1.9,23.2,1.5,33.8,6.9
			c5.7,2.9,11.1,6.7,16.4,10.7c2.8,2.1,5.3,3.2,8.6,1.8c1.9,4.7,5.4,6,9.7,2.8C492.1,422.3,502.9,419.2,515,420z"/>
		<path class="st5" d="M578.1,817.9c-0.7-5.4-1.4-10.8-2-16.2c-1.6-16.2-5.4-31.8-11.5-46.9c-1.5-3.7-3.9-6.4-8.6-6.4
			s-7.5,2.2-9.1,6.4c-3,7.8-7.3,14.6-15.2,18.5c-12.9,6.4-27.4-2.4-27.9-16.8c-0.3-8.6-1.2-17.3-1.9-25.8c-0.1-0.7-0.7-1.4-1-2.2
			c0-0.7,0-1.4,0.2-2c1.1-3.2,0-5.7-3.1-6.7c-3.3-1.1-5.1,0.9-6.5,3.8c-5.9,13.1-13.5,24.8-24.8,34c-2.1,1-4.2,1.8-6.2,2.9
			c-11.5,6.4-23.2,12.5-37.1,12.2c-10.8-0.3-19.7-7.4-20.4-17.5c-0.5-7.5,2.5-14.7,6.6-21.1c2-1.3,4.5-2.2,5.9-4
			c14.9-18.9,33.5-32.9,54.5-44.1c0.4-0.2,0.9-0.2,2.6-0.6c-2.8,5.1-4.7,9.8-7.7,13.7c-6,7.5-12.9,14.5-19.2,21.8
			c-1.5,1.7-3.4,4.7-2.8,6.2c0.8,1.9,3.7,3.6,6,4c7,1.2,14.3,1.9,21.4,2.2c2.3,0.1,5.2-1.2,6.8-2.9c11.5-12.2,16.4-26.9,15.5-43.6
			c-0.1-1.6,0-3.2,0-5.8c8,1.3,15.9,2.5,23.7,4.1c1.3,0.3,2.6,1.9,3.4,3.3c3.7,6.3,7.3,12.8,10.8,19.2c1.7,3.2,3.7,5.5,7.4,3.8
			c4.1-1.8,3.3-5.2,1.7-8.5c-0.7-1.5-1.2-3-1.7-4.6c1,0.7,2.3,1.3,3,2.2c17.4,24.2,30.5,50.5,39.4,78.9c1.6,5.1,3.6,10.2,5.3,15.4
			c0.6,4.4,1.4,8.8,1.8,13.3c0.1,1.3-0.9,3-1.9,4C583.3,814.2,580.7,816,578.1,817.9z"/>
		<path class="st6" d="M372.2,237.3c-4.7-11.4-10.1-22.5-13.9-34.2c-3.9-12.2-7.2-25-8.8-37.8c-1.9-16,11.5-26.4,28.6-23.2
			c6.8,1.3,13.4,3.6,20.1,5.5c0.7,0.4,1.4,0.8,2.1,1.2l-0.1-0.1c4.7,4.6,9.8,8.9,14.1,14c20,23.3,35.5,49.6,50.2,76.4
			c-18.4-1.6-36.8-3.9-55.1-4.5C397.1,234.3,384.6,236.4,372.2,237.3z"/>
		<path class="st7" d="M216.5,369.9c-7.3,6-14.8,12-21.9,18.1c-4,3.5-8.1,7-11.4,11.2c-1.3,1.6-1.4,5.6-0.3,7.3
			c1.9,2.9,4.8,1.6,7.2-0.5c9-7.9,18.2-15.7,27.3-23.5c0.7-0.6,1.6-0.9,3.9-2.2c-1.9,6-3.2,10.8-4.9,15.4
			c-12.6,34.2-31.8,64.2-57.8,89.8c-2.4,2.4-4.6,3.5-7.9,2c-8.8-4.1-17.8-8.1-26.6-12.2c0-1.3,0.4-2.8,0.1-4
			c-3.7-12.9-1.6-25.2,4.4-36.7c7.6-14.6,19.2-26,32.7-35c11.6-7.7,23.7-15,35.9-21.8C203.2,374.4,210,372.4,216.5,369.9z"/>
		<path class="st8" d="M374.2,356c-1,3-2,6.1-3,9.1c-13.5,0.5-23.9,6-29.7,18.6c-7.8,16.7,0.7,36.6,18.2,42.6c1.8,0.6,3.7,1.2,7,2.3
			c-13,13.6-25.1,26.6-37.6,39.3c-1.1,1.2-4.4,1.4-6.1,0.7c-23.4-9.4-35-35.8-26.4-59.7c1.5-4,1-6.6-2-9.7
			c-15.4-16.4-14.8-38,1.2-53.6c3.2-3.1,7-5.6,10.5-8.3c0.3,0.4,0.5,0.7,0.8,1.1c-5.3,7.9-9.6,16.3-9.5,26.3
			c0.1,8.7,2.9,16.4,8.1,23.1c5.3,7,15,7,19.9-0.4c11.2-17.3,27.7-26.4,47.2-31C373.2,356,373.8,356,374.2,356z"/>
		<path class="st9" d="M333.1,730.6c-3.9,4.2-7.1,9.7-12,12.5c-7.5,4.4-16.3,6.6-24.2,10.3c-16.8,8-28.4,21-35.2,38.3
			c-14-0.7-27.9-1.1-41.8,1.9c-13.9,3.1-27.5,6.8-39.9,14.3c-0.4,0.2-0.9,0.2-2.6,0.6c15-31.5,38.9-54.7,61.5-79.2
			c17.3,11,36.1,13.8,55.5,13.3C308.5,742,321.6,739,333.1,730.6z"/>
		<path class="st10" d="M598.2,298.5c-7.6,1.7-15.2,3.7-22.8,4.9c-27.8,4.6-55.9,4.9-84.1,3.9c-22.7-0.8-45.4-3.1-68-3.5
			c-70.8-1-139.4,10.3-204.7,38.7c-0.9,0.4-1.9,0.7-2.8,1c-0.2,0.1-0.6-0.2-2-0.7c57.2-33.9,117.6-56.1,182.6-66.2
			c0.6,1.4,0.9,3.4,2,4.2c4.8,3.4,9.5,7.3,15,9.5c19,7.4,39.3,8.6,59.3,9.7c18.6,1,37.3,0.7,55.9,0.2c21.1-0.5,42.2-2,63.4-2.9
			C594,297.6,596.1,298.2,598.2,298.5z"/>
		<path class="st1" d="M376.3,432.3c-1.9,22.5,13.8,31.1,32.8,32.9c4.8,0.5,9.6,0.1,14.5,0.2c-17.7,11.7-35,23.8-53,34.8
			c-16.5,10.1-33.5,9.1-49.8-0.8c-4.9-3-9.6-6.4-15.6-10.5c22.6-2.6,35.8-17.1,48.9-31.6C361.6,449.2,368.8,440.7,376.3,432.3z"/>
		<path class="st11" d="M389.3,267.4c-18.2,4.2-36.6,7.7-54.6,12.7c-27.3,7.4-53.7,17.3-79.4,29.3c-1.3,0.6-2.7,1.1-5.1,2.1
			c2.2-6.7,4.1-12.7,6.2-18.6c0.4-1.1,1.9-1.8,3-2.5c35.7-21.2,73.6-36.3,114.8-42.8c1.3-0.2,2.6-0.2,4-0.3
			C381.9,254.1,385.6,260.8,389.3,267.4z"/>
		<path class="st2" d="M586.3,385.1c0.3-4.5,0.6-8.9,0.9-13.5c1.6-22.8-8.1-39.7-26.8-52c-1.2-0.8-2.5-1.7-3.7-2.5
			c-0.1-0.1-0.1-0.3-0.1-0.4c13.6-2.3,27.1-4.6,40.7-6.9c1.1,0.6,2.1,1.4,3.2,1.9c5.4,2.1,11,3.7,16.3,6.3
			c14.1,7.1,17.6,19.4,8.4,32.1c-5.5,7.7-12.3,14.8-19.5,21.2C599.9,376.7,592.8,380.6,586.3,385.1z"/>
		<path class="st9" d="M258.8,844.8c-20.4-4.2-40.5-8.1-60.4-12.7c-4.5-1-8.9-3.8-12.8-6.6c-4.8-3.6-4.8-6.5,0.5-8.9
			c9.8-4.5,19.9-8.6,30.2-11.7c17.1-4.9,34.7-3.9,52.1-2c1.2,0.1,3.2,2.8,2.9,3.7C267.5,819.1,263.3,831.3,258.8,844.8z"/>
		<path class="st5" d="M598.2,298.5c-2.1-0.3-4.1-1-6.2-0.9c-21.1,0.9-42.2,2.3-63.4,2.9c-18.6,0.5-37.4,0.8-55.9-0.2
			c-20-1.1-40.3-2.3-59.3-9.7c-5.4-2.1-10.1-6.1-15-9.5c-1.1-0.8-1.4-2.8-2-4.2c18.3-0.9,36.6-1.9,54.8-2.8c0.8,0,1.6,0.4,2.4,0.5
			c22.3,5.6,44.4,12,66.8,16.8c14.3,3,29,4,43.6,4.9c10.2,0.7,20.6-0.2,30.9-0.5c4.7,0,9.4,0,14.2,0c0.1,0.2,0.1,0.5,0.2,0.7
			c-1.9,0.2-3.7,0.5-5.6,0.7c-1.2,0.4-2.4,0.7-3.6,1.1C599.4,298.4,598.8,298.5,598.2,298.5z"/>
		<path class="st10" d="M216.5,369.9c-6.4,2.6-13.3,4.5-19.3,7.9c-12.2,6.8-24.2,14.1-35.9,21.8c-13.6,9-25.1,20.5-32.7,35
			c-6,11.5-8.1,23.8-4.4,36.7c0.4,1.2,0,2.7-0.1,4c-11.7-8-19.3-27.5-8.7-44.2c8.6-13.7,19.9-24.8,32.3-34.8
			c37.6-29.9,80.4-49.5,126.1-63c1.6-0.5,3.2-0.5,4.9-0.8l0.1,0.1c-7.5,4-15.2,7.6-22.5,12C242.9,353,229.7,361.5,216.5,369.9z"/>
		<path class="st12" d="M212.5,563.9c2.1,10.1,3.5,20.4,6.3,30.3c6.6,23.5,19.1,43.7,36.3,61c3.8,3.8,7.1,8.2,10.9,12.5
			c-5,3.3-9.6,6.2-14.6,9.5c-9.7-7.2-17.9-16.2-25.1-26c-16-21.6-25.1-45.9-28.8-72.4C196.3,569.5,201.3,564.7,212.5,563.9z"/>
		<path class="st8" d="M477.5,337.8c-3.9-0.6-7.8-1.6-11.8-1.8c-18.1-1.2-36.2-1.1-54.1,1.5c-3.6,0.5-7.2,0.9-10.9,1.4
			c-5.3-10.5-13.5-18.1-24.3-23c38.5-3.6,76.6,0,116.3,1.7C484.5,323.1,480.2,329.8,477.5,337.8z"/>
		<path class="st6" d="M586.3,385.1c6.5-4.5,13.7-8.4,19.5-13.7c7.1-6.4,13.9-13.5,19.5-21.2c9.1-12.8,5.7-25-8.4-32.1
			c-5.1-2.6-10.8-4.2-16.3-6.3c-1.1-0.5-2.2-1.3-3.2-1.9c6.7-1.4,13.4-2.7,20.1-4.1c5.8-0.3,11.7-1,17.4-0.8
			c7.7,0.4,15.7,0.8,23.2,2.7c6.8,1.7,8.3,7.1,5,13.5c-1.1,2.2-2.3,4.5-4,6.3c-8.1,8.6-16.3,17.3-24.7,25.5
			c-7.1,6.9-14.7,13.5-22,20.2l0.1-0.1c-0.7,0.7-1.4,1.3-2.2,2l0.1-0.1c-0.7,0.5-1.4,1-2.1,1.5c-7.3,4-14.7,7.9-22.1,12l-0.1-0.3
			l-0.3-0.1C586,387,586.1,386,586.3,385.1z"/>
		<path class="st13" d="M319,726.7c-8,1.9-16,4.8-24,5.5c-14.6,1.2-28.9-1.3-42.5-7c-9.2-3.8-12.1-8.9-9.9-16.8
			c8.3-2.1,16.6-4.7,25-6.1c15.7-2.6,30,1.5,42.7,11C314.4,716.6,318.7,720.4,319,726.7z"/>
		<path class="st13" d="M299.9,889.1c-10,0-20.1,0.2-30,0c-9.7-0.1-13-4-10.1-13.4c4.3-14.7,9.3-29.2,14.3-43.8
			c0.4-1.3,2.1-2.9,3.3-3c11.2-1.1,22.5-1.9,33.8-2.9c-1.6,1.5-3.2,3.2-4.9,4.6c-5.8,5-11.2,10.3-13.3,18.2
			c-6.3,4.5-12.9,8.8-19,13.6c-2.7,2.1-3.4,5.3-0.9,7.9c2.7,2.9,5.4,1.6,8.2-0.9c3.5-3.1,7.6-5.6,11.5-8.4c1.3,2,3.5,3.9,3.9,6.1
			C298,874.3,298.8,881.8,299.9,889.1z"/>
		<path class="st14" d="M389.3,267.4c-3.7-6.6-7.3-13.3-11-19.9c13.5-1,26.8-2.7,40.3-2.7c18.4-0.1,36.6,2.2,54.2,7.2
			c2,4.8,3.9,9.6,5.9,14.5c-10.9-0.8-21.7-2.4-32.4-2.2c-17.7,0.4-35.2,1.9-52.9,2.9C391.9,267.2,390.6,267.3,389.3,267.4z"/>
		<path class="st1" d="M342.1,357.1c-9.4,6.4-18.2,13.7-24.2,23.5c-1.7,2.7-3.3,2.1-4.9-0.2c-5.4-8-6.9-16.6-3.4-25.7
			c8.3-22,40.5-37,62.6-28.8c3.6,1.3,6.8,3.9,10.2,5.9c-5.8,1.1-12,1.5-17.5,3.5C354.4,339.1,345.6,345.4,342.1,357.1z"/>
		<path class="st8" d="M261.6,469.2c0.4,12.2-0.9,13.7-10.8,13.8c-15.4,0.3-27.9-12.9-27.3-28.5c0.5-15,14.6-26.8,29.7-25.4
			c3.1,0.3,3.9,1.8,4.3,4.3c0.9,6.4,1.9,12.9,2.7,19.4C261,459,261.3,465.4,261.6,469.2z"/>
		<path class="st15" d="M319,726.7c-0.2-6.2-4.5-10-8.8-13.3c-12.5-9.4-26.9-13.7-42.7-11c-8.4,1.4-16.7,4-25,6.1
			c1.9-11,9.4-18.1,17.6-24.6c3.4-2.8,7.6-4.6,11.5-6.8c1.1,3.8,2.2,7.6,3.3,11.5c-0.3,2.8-1,6.4,2.5,7.1c2.2,0.4,5.8-0.9,7.1-2.7
			c4.4-6.2,8.1-13.1,12.2-19.8c0.4,0.6,1.4,1.9,2.1,3.4c5.4,11.5,12.7,21.6,21.8,30.4c2.9,2.8,5.7,4.6,9.7,2.8
			C331.8,717.8,328,723.5,319,726.7z"/>
		<path class="st16" d="M638.2,483.4c-3.5,18.6-7,37.2-10.3,55.7c-0.7,4-0.7,8.2-1,12.3c-3,1.7-5.9,3.5-9,5.1c-4,2.1-8.2,4-12.3,6
			c-0.9-17.5,2.4-34.5,6.2-51.4c1.7-7.7,4.2-15.4,6.3-23.1c1.5,0,3.1,0.4,4.5,0.1C627.8,486.7,633,485,638.2,483.4z"/>
		<path class="st9" d="M673.2,511.5c-1.9,9.2-3.1,18.7-6,27.6c-3.7,11.2-8.4,22.1-13.6,32.6c-1.6,3.3-5.8,5.4-8.8,8
			c-1.6-3.3-3.7-6.5-4.6-10c-3.6-14.3-1.3-28.4,0.5-42.7c0.2-1.3,1.2-2.9,2.3-3.5c9.4-4.4,19.1-8.7,28.6-13.1
			C672.2,510.9,672.8,511.2,673.2,511.5z"/>
		<path class="st7" d="M195.3,245.4c5.1-4.9,10.2-9.9,15.5-14.8c13.2-12.1,27.2-23,43.6-30.6c2.7-1.3,5.6-1.9,8.4-2.8
			c-0.3,6.5-0.5,13-1.1,19.5c-0.1,1.4-1.2,3.1-2.4,3.9c-16.9,11.1-34.1,21.8-52.9,29.3c-3.7,1.5-7.8,2.1-13.1,3.4
			C194.2,249.7,194.7,247.6,195.3,245.4z"/>
		<path class="st17" d="M299.9,889.1c-1.1-7.3-1.9-14.8-3.3-22c-0.4-2.2-2.6-4-3.9-6.1c4.2-1.7,8.4-3.3,12.7-5
			c8.7,0,17.1,2,24.1,6.9c9,6.3,16.3,14.4,17.7,26C331.4,889,315.7,889.1,299.9,889.1z"/>
		<path class="st18" d="M549.6,325.5c19.8,8.8,29.9,27.6,27.3,48.9c-3.5,27.8-2.5,55.7-0.2,83.6c0.4,4.3,0.8,8.6,0.4,13.8
			c-4.2-4.6-8.5-9.1-12.5-13.9c-0.6-0.7-0.2-2.5,0.3-3.6c7.9-20.1,7.9-40-0.5-59.9c-0.5-1.1-0.7-2.6-0.4-3.7
			c6-22.8,0.1-43.2-12.5-62.3C550.9,327.6,550.5,326.9,549.6,325.5z"/>
		<path class="st13" d="M535.2,854.3c-2.8,2.8-5.7,5.6-8.3,8.5c-2.2,2.5-2.8,5.3,0.2,7.8c3.1,2.5,5.4,1,7.7-1.4
			c2.2-2.2,4.6-4.2,6.9-6.3c11.2,5.1,16,14.8,18.3,26.1c-14.2,0-28.4,0.1-42.6,0.1c-6.1,0-9.5-2.3-10.9-8.3
			c-1.1-5.1-1.5-10.6-1.7-15.9c-0.1-1.2,1.6-3.3,2.9-3.7c8.9-2.7,18-5.1,26.9-7.5C534.8,853.9,535,854.1,535.2,854.3z"/>
		<path class="st10" d="M274.7,642c-1.3,1-2.7,2-4,2.9c-7.2,5.1-7,4.9-13.2-1.9c-13.9-15.5-23.7-33.1-29.4-53
			c-0.2-0.6-0.3-1.2-0.6-2.3c11.8,5.8,23.7,8.3,36.4,6.9c-3.9,3.5-8,6.8-11.8,10.5c-1.8,1.7-4.5,4.4-4.1,5.8
			c0.6,2.1,3.4,4.4,5.7,5.1c6.6,1.8,13.6,2.8,19.8,4C273.9,627.1,274.3,634.6,274.7,642z"/>
		<path class="st8" d="M187,571.1c0.9,20.9,6.4,40.4,15.2,58.9c1.8,3.7,0.5,5.5-2.6,7c-5.7,2.7-12.6,0.9-17.1-4.8c1,0,1.8,0.2,2.3,0
			c1.9-0.9,5-1.8,5.3-3.1c0.3-1.9-0.9-5.1-2.5-6.1c-7-4.5-13.3-9.5-16.9-17.3c-3.4-7.3-4.7-15-2.3-22.9
			C171.1,574,177.7,569.9,187,571.1z"/>
		<path class="st9" d="M274.7,642c-0.4-7.4-0.7-14.9-1.1-22c-6.2-1.2-13.2-2.2-19.8-4c-2.3-0.6-5.1-3-5.7-5.1
			c-0.4-1.5,2.3-4.1,4.1-5.8c3.8-3.6,7.8-7,11.8-10.5c8.8-2.6,17.8-5.1,27-7.8c-0.7,5-1.7,10.5-2.1,15.8c-0.6,9.3-0.9,18.6-1,27.9
			c0,3.3-0.9,5.2-4,6.5C280.7,638.5,277.7,640.3,274.7,642z"/>
		<path class="st17" d="M560.1,889.1c-2.4-11.3-7.1-21-18.3-26.1c2.1-1.6,4.2-3.2,6.4-4.7c6.2,0.3,12.5,0.4,18.6,0.8
			c15.9,1.2,29.8,15,30.5,29.9C584.9,889.1,572.4,889.1,560.1,889.1z"/>
		<path class="st19" d="M612.3,373.1c7.3-6.7,14.9-13.3,22-20.2c8.4-8.3,16.6-16.9,24.7-25.5c1.7-1.8,2.8-4.1,4-6.3
			c3.2-6.3,1.8-11.8-5-13.5c-7.4-1.9-15.4-2.3-23.2-2.7c-5.8-0.3-11.7,0.5-17.4,0.8c18.9-4.4,37.9-8.1,57.3-7.1c0.5,0,1,0.1,1.5,0.1
			c9.5,1,11.8,4.6,6.3,12.1c-7.1,9.6-14.8,19.1-23.7,27c-13.3,11.8-27.8,22.4-41.9,33.3C615.7,372.1,613.9,372.4,612.3,373.1z"/>
		<path class="st3" d="M678.6,473.3c0.9-7.8,1.7-15.6,10-19.6c1.8-0.9,3.2-2.9,4.3-4.7c4-6.8,11.8-7.6,17.1-1.4
			c4.3,5.1,5.4,11.2,4.7,17.8c-3.1,4-5.9,8.5-9.5,12C695.3,487.1,684.6,485.2,678.6,473.3z"/>
		<path class="st20" d="M535.8,497.5c7.2,0.7,14.6,2,21.8,1.7c4.8-0.1,9.7-2,14.3-3.9c3.1-1.3,3.4-4.7,0.7-6.4
			c-16.4-10.5-25.9-26.9-36.8-42.2c-5-7-10.5-13.8-15.6-20.7c-0.7-1-1-2.4-1.4-3.6c7.3,7.2,15.1,14.2,21.9,21.8
			c7.2,8.1,13.4,17.2,20.4,25.4c8.7,10.2,18.9,18.3,34.2,19.5c-10.5,8.5-20.4,16.1-33,17.9C551.9,508.5,543.4,504,535.8,497.5z"/>
		<path class="st19" d="M464.6,239.2c-14.7-26.8-30.2-53.1-50.2-76.4c-4.3-5-9.3-9.3-14.1-14c2.9,1.8,6.1,3.2,8.6,5.4
			c23.7,20.6,43.6,44.7,62.2,69.8c4.7,6.4,9.2,13,14.8,20.8C477.9,242.8,471.3,241.1,464.6,239.2z"/>
		<path class="st15" d="M697.5,433c-1.8,0-3.6,0-5.4,0c0.5-1.6,0.6-3.5,1.6-4.8c9.9-13.3,19.9-26.4,30-39.5c4-5,9-8.8,15.8-9.8
			c2.1-0.3,4.2-1.1,6.2-1.8c11-3.7,14.2-8.1,15.2-19.8c0.5-6.1,1.6-12.2,2.2-18.4c0.9-11,8.9-16.7,16.4-22.9c2-1.7,4.3-3,6.4-4.5
			l0.1,0.1c-2,2.7-4,5.3-6,8c-7,3.4-10.8,9.1-11,17c-0.4,9.1-0.4,18.4-1.2,27.5c-0.2,2.7-1.6,6.3-3.6,7.7c-5.8,4.1-12,7.8-18.4,10.8
			c-7.6,3.5-15.3,6.8-20.8,13.6c-3.9,4.7-8.3,9.1-12,14.2C707.6,417.7,702.7,425.5,697.5,433z"/>
		<path class="st13" d="M697.5,433c5.1-7.5,10-15.3,15.5-22.6c3.6-4.9,8-9.3,12-14.2c5.5-6.7,13.2-9.9,20.8-13.6
			c6.4-3,12.7-6.7,18.4-10.8c2.1-1.5,3.4-5,3.6-7.7c0.7-9.1,0.8-18.3,1.2-27.5c0.3-7.8,4-13.5,11-17c-6.7,9.6-7,20.8-5.8,31.7
			c1.6,15.6-4.3,27-18.4,32.6c-21.3,8.4-33.7,25.6-45.9,43.2C706.5,432.1,703.2,434.2,697.5,433z"/>
		<path class="st10" d="M595.2,569.8c0.7,3.4,1.1,6.8,2.3,10c2.4,6.6,5.3,13.2,8.3,20.8c-12,3.8-24.9,7.8-38.1,12
			c5.3-13.6,10.3-26.1,15.3-38.8C587.1,572.5,591.1,571.1,595.2,569.8z"/>
		<path class="st9" d="M364.2,854.3c2.4-6.7,4.3-12.9,6.9-18.5c0.5-1,4-1.5,5.7-1c15.2,5,30.3,10.4,45.5,15.7
			c5.3,1.8,10.8,3.3,16,6.1C413.8,855.8,389.4,855,364.2,854.3z"/>
		<path class="st12" d="M605.5,562.7c4.1-2,8.2-3.9,12.3-6c3.1-1.6,6-3.4,9-5.1c0.5,5.9,0.4,12,1.6,17.9c1.3,6.2,3.7,12.2,5.9,19.4
			c-4.2,1.8-9.5,4.3-15.1,6.4c-0.9,0.4-3.1-0.6-3.7-1.5c-2.9-5-6.2-9.9-7.9-15.3C606.1,573.4,606.2,567.9,605.5,562.7z"/>
		<path class="st21" d="M545.8,340.8c3.3,5.6,4,11.5,2.1,19.5c-17.6-16.5-38.8-17.6-62.1-15c1.5-3.8,2.6-6.7,3.8-9.6
			c12.9-3.7,25.8-4.7,38.9-1C534.3,336.5,540.1,338.8,545.8,340.8z"/>
		<path class="st19" d="M595,295.8c-10.3,0.2-20.7,1.1-30.9,0.5c-14.6-1-29.3-2-43.6-4.9c-22.5-4.7-44.6-11-66.8-16.8
			c18,2.5,36.2,4.2,54,7.5c26.2,4.9,52.2,11.5,79,12.5C589.5,294.7,592.2,295.4,595,295.8z"/>
		<path class="st5" d="M595.2,569.8c-4,1.3-8,2.7-12.2,4c2.8-16.9,5.6-33.8,8.3-50.7c0.2-1.5,0.1-3,0.1-4.5c0-15.3,0-15.3,13.6-23.9
			c-2,8.9-4.6,17.6-5.7,26.3C597.5,537.2,596.5,553.5,595.2,569.8z"/>
		<path class="st22" d="M585.7,794.8c-1.8-5.1-3.7-10.1-5.3-15.4c-8.8-28.4-22-54.7-39.4-78.9c-0.7-1-2-1.5-3-2.2l0,0
			c-0.4-0.7-0.7-1.3-1.1-2l0,0c-0.4-0.7-0.8-1.3-1.2-2c-1.2-1.8-2.3-3.6-3.6-5.6c5.1-0.3,8.4,2.3,11.5,5.7
			c16.5,18.1,26.2,39.8,33.1,62.8C580.5,769.6,582.8,782.3,585.7,794.8z"/>
		<path class="st23" d="M597.2,889c-0.7-15-14.7-28.8-30.5-29.9c-6.2-0.5-12.3-0.5-18.6-0.8c20.6-10.8,45.5-3.5,57.5,17.5
			c1.9,3.3,2,7.7,2.9,11.7C604.8,887.9,601,888.5,597.2,889z"/>
		<path class="st13" d="M467.6,674.7c-10.6,7-20.6,12.7-29.3,19.6c-9.4,7.5-18.3,16.1-26.7,24.8c-3.4,3.5-6,4.1-10.9,1.3
			c3.3-4.5,6.1-9.4,9.8-13.6c12.5-14,28.4-23.1,45.4-30.4C459.2,675,462.9,675.2,467.6,674.7z"/>
		<path class="st21" d="M342.1,357.1c3.5-11.5,12.2-18,22.9-21.9c5.5-2,11.6-2.4,17.5-3.5c3.1,3.5,6.2,7,10.5,11.7
			C373.8,344.3,357.4,348.7,342.1,357.1z"/>
		<path class="st23" d="M347.1,889c-1.5-11.7-8.7-19.7-17.7-26c-7-4.9-15.4-6.9-24.1-6.9c10.5-4.8,20.5-2.4,30.2,2.1
			c8.8,4.1,16.2,10.1,20.1,19.4c1.2,2.8,1.9,7.2,0.5,9.2C354.8,888.6,350.2,888.3,347.1,889z"/>
		<path class="st8" d="M678.6,473.3c6,12,16.8,13.8,26.5,4.1c3.6-3.6,6.3-8,9.5-12c-0.2,12-4.8,22.1-14.6,29.2
			c-8,5.8-16.4,3.6-19.7-5.7C678.7,484,679.1,478.5,678.6,473.3z"/>
		<path class="st1" d="M545.8,340.8c-5.7-2-11.5-4.4-17.3-6c-13-3.7-26-2.8-38.9,1c4.1-9.1,12-12.3,21.3-13.4
			C525.3,320.8,541,329.1,545.8,340.8z"/>
		<path class="st15" d="M292.9,848.9c2-7.8,7.4-13.1,13.3-18.2c1.7-1.5,3.3-3.1,4.9-4.6c5.6,0.5,11.1,0.9,17.9,1.5
			c-1.7,5.5-3,10.1-4.6,14.6c-0.3,0.7-1.8,1.5-2.7,1.4C311.5,842.6,302.1,845.5,292.9,848.9z"/>
		<path class="st24" d="M441.5,500.3c-4.9-2.8-9.9-5.6-15.1-8.5c12.1-15.1,37.5-13.3,47.4,2.4c-1.1-0.3-2.3-0.4-3.3-0.8
			C458.5,487.8,450.1,489.8,441.5,500.3z"/>
		<path class="st9" d="M392.3,679.5c-2,0.9-3.8,2.1-5.9,2.7c-13.7,4.1-27.2,8.5-39.1,17c-2.3,1.6-4.4,3.4-6.6,5.2
			c-4-9.7-0.2-18.3,10-20C364.6,682.2,378.6,681.1,392.3,679.5z"/>
		<path class="st3" d="M645.6,496.5c3.5-15.5,8.2-30.6,16.8-44.2c3-4.8,7.5-8.8,11.7-12.9c1.3-1.3,3.7-2.3,5.4-2
			c1.9,0.3,4.5,2.1,4.8,3.6c0.3,1.6-1.7,4.9-3.1,5.1c-6.4,1-10.5,4.9-14.2,9.6c-8.9,11.8-13.8,25.4-16.6,39.8
			C648.8,495.8,647.2,496.1,645.6,496.5z"/>
		<path class="st15" d="M352.5,856c-6.3-3.5-12.2-6.8-18.4-10.2c1.2-4.1,2.3-8.4,3.9-12.7c0.4-1,2.7-2.2,3.5-1.9
			c5,2.1,9.9,4.5,14.8,7.1c0.9,0.5,1.6,2.6,1.3,3.6C356.1,846.7,354.3,851.3,352.5,856z"/>
		<path class="st1" d="M515,420c-12-0.8-22.9,2.3-32.7,9.6c-4.3,3.2-7.8,1.9-9.7-2.8C482.2,410.6,497.9,408.1,515,420z"/>
		<path class="st13" d="M403.5,667.6c8.8-2.4,17.9-4.1,26.3-7.3c9.8-3.8,19.5-5.5,30.3-2.3c-1.6,1.3-3.1,2.6-4.6,3.8
			c-2.2,1.8-4.3,3.6-6.5,5.2c-0.9,0.6-2.1,1-3.2,1c-12.9,0.1-25.6,0.1-38.5,0.2c-1.3,0-2.5,0-3.8,0
			C403.5,668,403.5,667.8,403.5,667.6z"/>
		<path class="st3" d="M585.6,409.6c13,9.1,13.7,29.4,0,40.9C585.6,436.2,585.6,422.8,585.6,409.6z"/>
		<path class="st25" d="M441.5,500.3c8.5-10.5,17.1-12.5,29-6.9c1,0.5,2.2,0.6,3.3,0.8l0,0c0.3,0.4,0.6,0.8,0.9,1.2
			c0.6,0.8,1.1,1.5,2,2.7C465,504,453.5,505.3,441.5,500.3z"/>
		<path class="st10" d="M246.5,556.1c-6.3,9-12.7,18.1-19,27.1c-0.5,0-1-0.1-1.6-0.1c-0.8-6.9-1.6-13.9-2.3-20.8
			c-0.1-0.7,0.8-2,1.5-2.2c6.6-1.9,13.4-3.6,20-5.4C245.7,555.1,246.1,555.6,246.5,556.1z"/>
		<path class="st19" d="M638.2,483.4c-5.2,1.6-10.5,3.3-15.8,4.8c-1.4,0.4-3,0-4.5-0.1c1.3-10.2,5.6-17.7,17.2-18.7
			c2.6-0.2,5.1-1.3,8.5-2.2C641.7,473,640,478.2,638.2,483.4z"/>
		<path class="st10" d="M548.9,656.1c-3,4.7-5.9,9.4-8.9,14.2c-6.3-3.1-12-5.8-18.4-8.9c5.4-3.9,10.5-7.6,15.5-11.2
			C541,652.2,544.9,654.2,548.9,656.1z"/>
		<path class="st26" d="M478.7,266.4c-2-4.8-3.9-9.6-5.9-14.5c6.8,2.1,14.1,3.4,20.2,6.7c3.9,2.1,6.4,7.1,9.4,10.8
			c-0.3,0.3-0.6,0.7-0.9,1C494,269.1,486.3,267.8,478.7,266.4z"/>
		<path class="st27" d="M279.2,816.9c0-0.1-0.1-0.3-0.1-0.4c4.5-13.7,1.8-11.2,14.6-8.5c10.9,2.3,21.5,5.3,32.1,8.9
			C310.5,816.9,295,816.9,279.2,816.9z"/>
		<path class="st15" d="M460.9,722.2c7.4-11,14.8-22.2,21.7-32.5c0.9,11-3.2,21.7-10.5,31.1c-1,1.3-3.5,1.4-5.4,1.8
			c-1.1,0.2-2.3-0.1-3.5-0.2C462.2,722.3,461.3,722.2,460.9,722.2z"/>
		<path class="st5" d="M548.9,656.1c-4-2-7.9-4-12-5.9c5.9-4.8,12-9.6,17.5-14.3C557.7,642.1,553.6,649.1,548.9,656.1z"/>
		<path class="st20" d="M379.4,375.4c4.3,0,8,3.7,7.9,7.9s-3.4,7.4-7.6,7.5c-4.6,0.1-8-3.1-8.2-7.5
			C371.2,379.4,375.1,375.4,379.4,375.4z"/>
		<path class="st8" d="M645.6,496.5c1.6-0.3,3.2-0.7,4.8-1c4,2.7,8,5.4,12,8c-0.1,0-0.5,0.5-1.1,0.8c-6,2.7-12,5.3-19.3,8.5
			C643.3,506.8,644.4,501.6,645.6,496.5z"/>
		<path class="st20" d="M527,385.1c-0.1,2.2-1.3,4.9-5.4,4.8c-3.5,0-6.5-3.9-6.4-8.1c0.1-3.5,1.5-6.2,5.5-6.2
			C524.4,375.6,527.1,379.3,527,385.1z"/>
		<path class="st13" d="M280.7,650.9c2.6-1.6,5.2-3.3,8.4-5.3c1.4,5.7,2.6,10.5,4,16.5c-3.3,0-5.8,0-8.4,0
			C283.5,658.4,282,654.7,280.7,650.9z"/>
		<path class="st13" d="M274.9,688.5c-1.1-3.8-2.2-7.6-3.3-11.5c4-1.6,8.1-3.3,13.1-5.3C283.2,679.4,279.9,684.4,274.9,688.5z"/>
		<path class="st15" d="M527.9,676.2c-7.5-1.1-15.1-2.3-22.6-3.4c-2.1-0.3-4.2-0.6-6.3-0.9C507,666.3,516.1,667.6,527.9,676.2
			L527.9,676.2z"/>
		<path class="st15" d="M575.6,832.7c0.4,3.9,0.8,7.1,1.2,10.8c-6.4,0-12.7,0-19.1,0C563.6,839.9,569.3,836.4,575.6,832.7z"/>
		<path class="st15" d="M280.7,650.9c1.3,3.7,2.7,7.4,4,11.2c-5.1,1.6-9.5,0.7-13.8-4.5C274.4,655.3,277.6,653,280.7,650.9z"/>
		<path class="st13" d="M670.4,494.5c-2.9-1-5.8-2.1-9.1-3.2c1.8-5.1,3.4-9.5,5.3-15C668.1,483,669.3,488.7,670.4,494.5L670.4,494.5
			z"/>
		<path class="st10" d="M474.8,638.2c-2.7,9.8-4.8,11.3-14.3,8.7c5-3.3,9.4-6.2,13.9-9C474.5,638,474.6,638.1,474.8,638.2z"/>
		<path class="st10" d="M600,298.3c1.2-0.4,2.4-0.7,3.6-1.1C602.4,297.6,601.2,297.9,600,298.3z"/>
		<path class="st19" d="M610.3,375c0.7-0.7,1.4-1.3,2.2-2C611.7,373.6,611,374.3,610.3,375z"/>
		<path class="st19" d="M608.3,376.3c0.7-0.5,1.4-1,2.1-1.5C609.6,375.4,608.9,376,608.3,376.3z"/>
		<path class="st10" d="M212.5,344.8c-0.4,0.3-0.8,0.6-1.2,0.9c-0.1-0.2-0.2-0.4-0.3-0.6c0.5-0.1,0.9-0.3,1.4-0.4L212.5,344.8z"/>
		<path class="st19" d="M400.4,148.9c-0.7-0.4-1.4-0.8-2.1-1.2c0.7,0.1,1.4,0.2,2,0.3C400.5,148.3,400.5,148.6,400.4,148.9z"/>
		<path class="st10" d="M278.7,332.7c0.4-0.3,0.7-0.6,1.1-0.9c0.1,0.2,0.2,0.4,0.3,0.6C279.7,332.6,279.2,332.7,278.7,332.7
			C278.8,332.8,278.7,332.7,278.7,332.7z"/>
		<path class="st15" d="M789,309.7c-0.7,0.3-1.3,0.6-2,1l0.1,0.1C787.8,310.4,788.3,310,789,309.7L789,309.7z"/>
		<path class="st5" d="M536.8,696.3c0.4,0.7,0.7,1.3,1.1,2C537.7,697.7,537.3,696.9,536.8,696.3z"/>
		<path class="st13" d="M534.8,853.8c0.5-0.2,1-0.3,1.5-0.5c-0.3,0.3-0.7,0.6-1,1C535,854.1,534.8,853.9,534.8,853.8z"/>
		<path class="st1" d="M281.5,343.5c0.7-0.2,1.4-0.4,2.1-0.5c-0.3,0.5-0.6,1-0.9,1.5C282.2,344.1,281.9,343.8,281.5,343.5z"/>
		<path class="st15" d="M527.8,676.2C528.3,676.3,528.7,676.5,527.8,676.2C528.6,676.8,528.2,676.5,527.8,676.2
			C527.9,676.2,527.8,676.2,527.8,676.2z"/>
		<path class="st10" d="M474.4,637.8c0.2-0.4,0.5-0.8,0.7-1.2c-0.1,0.5-0.2,1-0.3,1.5C474.6,638.1,474.5,638,474.4,637.8z"/>
		<path class="st5" d="M535.8,694.3c0.4,0.7,0.8,1.3,1.2,2C536.5,695.6,536.2,695,535.8,694.3z"/>
		<path class="st2" d="M261.9,276.6c-0.2,0.1-0.4,0.2-0.6,0.3c0.1-0.2,0.2-0.4,0.3-0.6C261.6,276.3,261.9,276.6,261.9,276.6z"/>
		<path class="st2" d="M586.2,388.4c-0.2,0.1-0.4,0.1-0.6,0.2c0.1-0.2,0.2-0.4,0.2-0.6l0.3,0.1L586.2,388.4z"/>
		<path class="st15" d="M789,309.7c0-0.1,0.1-0.2,0.1-0.4C789.2,309.5,789,309.6,789,309.7L789,309.7z"/>
		<path class="st10" d="M212.4,344.7c0.2-0.2,0.4-0.4,0.6-0.6c-0.1,0.3-0.3,0.5-0.4,0.8C212.5,344.8,212.4,344.7,212.4,344.7z"/>
		<path class="st13" d="M670.5,494.4c0.1,0.2,0.3,0.3,0.4,0.5C670.8,494.8,670.6,494.6,670.5,494.4
			C670.4,494.5,670.5,494.4,670.5,494.4z"/>
		<path class="st24" d="M474.7,495.5c-0.3-0.4-0.6-0.8-0.9-1.2C474.1,494.7,474.4,495.1,474.7,495.5z"/>
		<path class="st8" d="M308,336.9c-0.3,0.4-0.5,0.8-0.8,1.2c-0.3-0.4-0.5-0.7-0.8-1.1c0.4-0.2,0.7-0.4,1.1-0.6
			C307.7,336.6,307.9,336.7,308,336.9z"/>
		<path class="st15" d="M786,311.7c0.4-0.3,0.7-0.6,1.1-0.9l-0.1-0.1C786.6,311,786.3,311.4,786,311.7L786,311.7z"/>
		<path class="st8" d="M307.5,336.4c0.4-0.1,0.7-0.3,1.1-0.4c-0.2,0.3-0.4,0.6-0.6,0.9C307.9,336.7,307.7,336.6,307.5,336.4z"/>
		<path class="st18" d="M513.2,606.5c1.4-12.2,0.7-24.1-3.3-35.7c-2.7-7.8-8.3-9.1-14.5-3.5c-24,22.1-51.5,37.3-83.9,43.2
			c-4.8,0.9-9.7,1.1-15.7,1.7c1.2-9.1,1.9-17.5,3.5-25.5c2.7-13.6,7.1-26.7,17-36.9c6.5-6.7,14.3-12.7,22.4-17.3
			c12.2-7,25.4-12.5,38.2-18.9c5.5-2.7,11.2-5.4,16.3-8.9c3.7-2.6,5.7-0.8,8.5,1.1c7.7,5.1,15.4,10.8,23.6,14.7
			c11.5,5.4,23.8,6,36.1,2.1c10.2-3.2,13,3.1,11.3,10.5c-4.2,19.1-10.3,37.4-23.1,52.7c-9,11-20.4,18.1-34.5,20.7
			C514.8,607,514.2,606.7,513.2,606.5z"/>
		<path class="st0" d="M466.5,757.5c11.2-9.1,18.9-20.9,24.8-34c1.3-2.9,3.2-4.9,6.5-3.8c3,1,4.2,3.5,3.1,6.7
			c-0.2,0.6-0.1,1.3-0.2,2c-6.9,10.1-13.1,21.1-20.9,30.3c-16.4,19.3-37.9,30.3-62.4,35.8c-4.4,1-8.8,1.5-13.4,2.1
			c-3.5,0.5-6.2-0.9-6.6-4.5c-0.3-3.6,2.2-5.1,5.7-5.5c21.7-2.7,41.5-10,58.5-24.2C463.4,761,464.9,759.2,466.5,757.5z"/>
	</g>
</g>
<path class="st28" d="M835.2,302c0.3-0.4,0.7-0.9,1.1-1.3c2.5-2.5,6.7-1.9,8.3,1.2c0.5,0.9,0.6,1.8,0.6,2.9c0,2.4-0.9,4.4-2.6,6
	c-1.5,1.4-3,2.7-4.6,4.1c-0.9,0.8-1.9,1.7-2.8,2.5c0,0-0.1,0-0.1-0.1c-2-1.8-4-3.5-5.9-5.3c-0.8-0.7-1.6-1.5-2.3-2.4
	c-1.6-1.9-2-4.2-1.5-6.6c0.8-3.7,5.2-5.1,8.2-2.8C834.2,300.8,834.8,301.5,835.2,302z"/>
<path class="st28" d="M871,272.3c0.3-0.7,0.5-1.6,0.9-2.4c2.3-4.8,8.5-6.1,12.3-2.5c1.1,1,1.8,2.3,2.3,3.7c1.2,3.4,1,6.6-0.6,9.8
	c-1.4,2.7-2.9,5.4-4.3,8.1c-0.9,1.7-1.8,3.3-2.7,5c-0.1,0-0.1,0-0.2,0c-3.7-1.5-7.4-2.9-11.2-4.4c-1.5-0.6-3.1-1.3-4.5-2.2
	c-3.2-1.9-5-4.9-5.5-8.5c-0.8-5.6,4.7-9.9,10.2-8.1C869,271.1,870,271.8,871,272.3z"/>
<path class="st28" d="M775,269.6c0.8-0.2,1.6-0.4,2.5-0.6c5.3-0.8,9.8,3.6,9,8.8c-0.2,1.5-0.9,2.8-1.8,4c-2.1,2.8-4.9,4.5-8.4,5
	c-3,0.4-6.1,0.6-9.1,1c-1.9,0.2-3.8,0.4-5.7,0.6c0-0.1-0.1-0.1-0.1-0.2c-0.8-3.9-1.7-7.8-2.5-11.6c-0.3-1.6-0.6-3.3-0.7-4.9
	c-0.2-3.7,1.3-6.9,4-9.3c4.2-3.8,11-1.6,12.5,3.9C774.8,267.2,774.8,268.4,775,269.6z"/>
<path class="st28" d="M828,237.3c0.6-0.9,1.3-2.1,2.1-3.1c4.9-6.1,14.3-5.9,18.5,0.4c1.3,1.8,1.8,3.9,2,6.1
	c0.6,5.2-0.8,9.8-4.1,13.9c-2.9,3.4-5.9,6.8-8.9,10.2c-1.8,2.1-3.6,4.2-5.5,6.3c-0.1,0-0.2-0.1-0.2-0.1c-4.8-3.3-9.6-6.6-14.5-10
	c-2-1.4-4-2.9-5.7-4.6c-3.9-3.8-5.5-8.7-5-14.1c0.7-8.2,10.1-12.7,17.4-8.2C825.4,235,826.7,236.3,828,237.3z"/>
<polygon class="st29" points="2371.3,771.8 2367.5,771.8 2367.5,771.8 "/>
<g>
	<g>
		<path class="st30" d="M1096.8,327c0-10.4,0-19.4,0-28.4c0-27,0-54.1,0-81.2c0-16.3,10-27.1,25.6-27.7c19.9-0.8,32.4,8.8,33.7,25.9
			c0.1,1.4,0.1,2.8,0.1,4.1c0,93.2-0.2,186.4,0.1,279.6c0.1,26.8-25.2,34.9-42,27.9c-11-4.6-16.4-13-17.3-24.7
			c-0.2-3.1,0-6.3,0-10.9c-5.4,6.3-9.3,11.7-14.1,16.1c-30.7,28.2-81.7,30.4-117.7,5.5c-19.5-13.5-31.9-32.2-38.8-54.3
			c-11.2-35.9-11.3-72,2.6-107.3c16.2-40.8,52.2-64.1,96.2-62.7c28.4,0.9,52.2,11.2,68.7,35.4C1094.4,325,1095,325.4,1096.8,327z
			 M1096.6,409.5c0-4.2,0.3-8.3-0.1-12.5c-1.4-14.9-4.9-29.2-14-41.5c-12.6-16.9-30.1-21.7-50.2-20.4c-21.7,1.4-37.8,11.6-46.1,31.3
			c-11.8,28.2-11.5,57.4,0.4,85.6c8.9,21.1,25.8,32.1,48.8,32.7c21.4,0.5,39.1-6.8,50.2-26C1094.6,443.7,1097.1,426.9,1096.6,409.5z
			"/>
		<path class="st30" d="M1581.4,531.1c-23.5-0.6-46.1-4.7-66.4-17.2c-24.8-15.3-40.7-37.4-47.9-65.5c-8-31.3-7.4-62.5,5.1-92.5
			c14.7-35.3,41.8-56.5,79.1-63.9c35.4-7,69.6-3.6,100.6,17c18.8,12.5,32.1,29.5,39.3,50.6c12.3,36.3,12.3,72.8-3.5,108.2
			c-15.3,34.2-42.8,53.7-79.3,60.4C1599.4,529.8,1590.4,530.2,1581.4,531.1z M1520.9,406.2c1.1,11.4,1.5,19.5,2.7,27.4
			c5,31.6,22.8,48.9,53.6,51c26.2,1.7,47.5-9.1,56.6-35.2c9.1-26.1,9.2-52.8,0-79c-7.3-20.8-22.1-32.8-44.4-35.7
			c-29.7-3.8-53.7,10.2-62.5,38.7C1523.4,384.9,1522.5,397.3,1520.9,406.2z"/>
		<path class="st30" d="M1200.9,827c-10.6,15.8-23.8,27-41.9,32c-36.9,10.4-81.6-3.3-100-38.9c-11.2-21.7-10.2-60.2,12.7-76.8
			c14.4-10.5,31.1-15.8,48.4-17.5c23.9-2.4,48-3.1,72-4.5c2.7-0.2,5.4,0,9.8,0c-1.3-11.1-1.5-21.6-4-31.5
			c-3.8-15.1-16-22.9-33.6-23.9c-18.7-1-36.2,3.9-53.5,10.3c-7.2,2.6-14.2,5.6-21.3,8.4c-12.1,4.8-21,3.1-26.7-5.3
			c-5.9-8.7-5.3-23.8,2.9-30.7c6.9-5.8,15.2-10.7,23.6-14.1c32.4-13.2,66.3-17,100.8-11.3c37.3,6.1,60.3,30.8,65.4,69
			c1.1,8.5,1.8,17,1.9,25.5c0.1,39.1,0.4,78.2-0.2,117.2c-0.3,17.1-11.7,26.8-28.3,26.3c-16.9-0.5-27.5-11.1-28-28.1
			C1200.8,831.1,1200.9,829,1200.9,827z M1200.3,753.5c-15.9-2.2-54.9,0.6-68.5,4.8c-10,3.1-18.5,8-20.8,19
			c-2.6,12.5,0,23.8,9.8,32.8c12.1,11,32.7,13,49.6,4.8C1192.2,804.3,1203.3,781.7,1200.3,753.5z"/>
		<path class="st30" d="M1358.8,389.6c-1.4-11.3-1.7-22-4.3-32.1c-4-15.1-16.1-22.5-33.9-23.4c-18.5-0.9-35.8,4-52.8,10.3
			c-7.4,2.7-14.6,5.8-21.9,8.7c-11.6,4.6-20.4,2.6-26.1-5.5c-5.6-8.1-5-22.4,1.8-29.9c2.9-3.2,6.4-6.2,10.2-8.2
			c39.1-20,80.5-26.1,123.2-16.2c33.5,7.8,53.4,32,57.4,67.6c1.6,14.6,1.9,29.5,2,44.3c0.2,32.6,0.2,65.2-0.3,97.8
			c-0.3,16.8-10.9,26.3-27.5,26.5c-16.5,0.1-27.7-10.2-28.7-26.6c-0.1-2.5,0-5,0-7.5c-0.8-0.6-1.7-1.3-2.5-1.9c0,1,0.3,2.1-0.1,2.9
			c-10.5,18.5-26.5,29.6-47.3,32.8c-34.4,5.2-64.3-3.3-86.5-31.7c-18.2-23.3-17.1-68.2,7.1-85.7c14.5-10.5,31.1-15.8,48.4-17.6
			c24.2-2.4,48.4-3.1,72.7-4.5C1352,389.5,1354.5,389.6,1358.8,389.6z M1357.4,421.1c-23.3,0-46-0.6-68.2,5.2
			c-10.6,2.8-19.4,8.1-21.5,20c-2.4,13,0.8,24.3,11.3,33c14.6,12.2,41.5,11.1,57.6-1.8C1354.4,463.1,1358.5,443.8,1357.4,421.1z"/>
		<path class="st30" d="M1542.2,753c1.6,39.1,21.6,61.9,57.2,63.9c22.7,1.3,42.8-6.3,62.6-15.7c1.9-0.9,3.7-2,5.6-2.8
			c12.8-5.4,20.5-4.3,26.2,3.7c6.5,9.1,6.5,23.9-2,31.4c-7.7,6.7-16.9,12.2-26.3,16.3c-33.9,14.5-69,17.4-104.5,6.8
			c-37.2-11.1-62-35.7-72.3-73.1c-10.9-39.5-8.1-78.2,14.1-113.6c18.5-29.5,46.3-45.1,80.9-48.4c20.3-1.9,40.4-0.4,59,8.7
			c31.9,15.5,49.1,41.9,54.9,76.1c1.6,9.1,2.1,18.4,2.2,27.6c0.1,13.7-5.9,19.3-19.5,19.3c-43.3,0-86.7,0-130,0
			C1547.6,753,1544.9,753,1542.2,753z M1648.7,720.9c0.4-36.1-19-58-50.9-58.4c-36.6-0.5-54.2,28.5-55.5,58.4
			C1577.5,720.9,1612.8,720.9,1648.7,720.9z"/>
		<path class="st30" d="M932.1,620.6c27,0.8,50.2,5.6,71.3,18c11.7,6.9,18.4,16.5,17.2,30.8c-1.2,14.7-12.4,22.8-26.2,17.4
			c-10.1-3.9-19.4-9.8-29.3-14.2c-40.7-17.7-80.4,4.8-86.4,48.8c-2.2,15.7-2.1,31.3,1.3,46.9c9.7,45.9,50.9,54.9,82.8,42.8
			c8.8-3.4,17-8.3,25.5-12.5c14.4-7,23.5-5.4,29.7,5c6.5,11,3.5,28.1-6.8,35c-24,16.2-50.7,24.4-79.8,23.8
			c-17.5-0.4-34.6-2.7-50.8-9.8c-33.5-14.8-53.3-40.9-61-75.9c-7.1-31.9-5.4-63.6,9.2-93.5c16.6-34,44.5-53.6,81.5-60.3
			C918.2,621.4,926.6,621.2,932.1,620.6z"/>
		<path class="st30" d="M1374.9,662.2c7.7-8.2,14.6-17.5,23.4-24.5c15.6-12.4,34.7-16.2,54.2-16c13.7,0.1,21.2,7.8,22.3,20.9
			c1.3,14.8-4.8,24.5-18.4,27.4c-10.8,2.3-21.9,3.5-32.8,5.4c-27.7,4.8-45.2,24.7-45.6,52.8c-0.4,34-0.1,68-0.2,102
			c-0.1,17.3-7.3,27-22.3,30.7c-20.4,4.9-37.2-7.8-37.2-28.4c-0.1-61.3-0.1-122.6,0-183.9c0-12.8,6-21,17.8-25.3
			c11.8-4.3,26.8-1.5,32.9,7.7c3.5,5.2,4.6,12.3,5.8,18.7C1375.6,654,1374.9,658.7,1374.9,662.2z"/>
	</g>
</g>
</svg>
