<?xml version="1.0" encoding="utf-8"?>
<!-- Generator: Adobe Illustrator 24.1.0, SVG Export Plug-In . SVG Version: 6.00 Build 0)  -->
<svg version="1.1" id="Layer_1" xmlns="http://www.w3.org/2000/svg" xmlns:xlink="http://www.w3.org/1999/xlink" x="0px" y="0px"
	 viewBox="0 0 1800 1000" style="enable-background:new 0 0 1800 1000;" xml:space="preserve">
<style type="text/css">
	.st0{fill:#FFFFFF;stroke:#FFFFFF;stroke-width:10;stroke-miterlimit:10;}
	.st1{fill:#6DAE42;}
	.st2{fill:#252525;}
	.st3{fill:#333333;}
	.st4{fill:#6CAD3F;}
	.st5{fill:#F4F4F4;}
	.st6{fill:#F1F1F1;}
</style>
<path class="st0" d="M907.5,632.5l166.1-239.4L907,491.4l-1.3,141C906.3,632.4,906.9,632.5,907.5,632.5z"/>
<path class="st0" d="M903.6,632.2c0.7,0,1.4,0.1,2.1,0.1l1.3-141l-167-97.2L903.6,632.2C903.6,632.2,903.6,632.2,903.6,632.2z"/>
<path class="st0" d="M913.7,458l170.1-102L961.4,155.4l-17.3,22.1L910,458.4C911.2,458.4,912.5,458.3,913.7,458z"/>
<path class="st0" d="M910,458.4l34.1-280.9l-54.8-82.3L732.9,355.7l173.2,102.6C907.4,458.4,908.7,458.4,910,458.4z"/>
<path class="st1" d="M716.2,414.7"/>
<path class="st2" d="M910.4,289.7l-4.1,4.1C907.7,292.8,909.4,291.4,910.4,289.7z M906.3,450.9c1.4,1.4,2.4,2.4,4.1,3.1
	C908.7,452.9,907.7,451.6,906.3,450.9z"/>
<g>
	<path class="st3" d="M757.7,314.9c43.2-72.1,130.9-219,130.9-219s36.7,55.8,54.8,82.3c6.1-7.5,10.9-13.6,17.3-22.1
		c34,56.4,67,111.5,100.3,166.6c-8.2,0-16,0-24.1-0.3c-19.7-0.7-38.4,0-55.4,10.9c-9.5,6.1-18.7,12.6-28.9,18.7
		c-10.9-7.1-20.8-14-31.3-21.4c-20.1-13.6-42.5-22.8-66.3-24.1c-28.2-1.7-57.1-3.7-84.7,7.1C766.2,315.9,761.8,314.9,757.7,314.9z
		 M847.8,195.9c9.2-4.4,18.7-9.2,27.9-13.6c7.5,8.5,14.3,16,22.1,24.8c4.1-9.5,7.5-17.3,10.9-24.8c8.8,2.7,16.3,5.8,24.1,8.2
		c-13.6-23.5-27.2-45.2-44.2-67.3c-15.6,25.8-29.2,48.6-43.2,71.1c-0.7,1.4-1.7,2.4-2.4,3.7C844.8,196.9,846.1,196.6,847.8,195.9z
		 M952.6,216.6c1.4,7.1,2,13.3,3.7,24.1c5.1-8.8,8.5-13.6,10.9-18c9.9,4.8,16.3,8.2,23.1,11.2c1.4-0.7,2-2,3.1-2.7
		c-10.9-17.7-21.4-35.4-33.7-55.1c-8.5,13.3-16,24.5-24.1,37.1C942,214.6,946.5,215.6,952.6,216.6z"/>
	<path class="st4" d="M913.6,458c56.8-34.5,113-67.8,170.2-102c-8.8-12.6-15.6-22.8-22.8-33.3c-8.2,0-16,0-24.1-0.3
		c-19-0.7-38.1,0-55.4,10.9c-9.9,5.8-19,12.2-28.9,18.7c-10.5-7.5-20.8-14.6-31.3-21.4c-20.1-13.3-42.2-22.8-66.3-24.1
		c-28.2-1.7-57.1-3.7-84.7,7.1c-3.4,1.3-7.8,0.7-11.9,0.7c-8.2,13.9-25.5,41.5-25.5,41.5s113.4,67,173.3,102.6
		C908.7,458.4,911.3,458.6,913.6,458z"/>
	<path class="st1" d="M903.6,632.2c1.4,0.1,2.9,0.2,4.3,0.3c33.3-39.8,161.1-223.9,165.7-239.5c-56.4,33.3-111.2,65.3-166.6,98.3
		c-28.6-17.4-55.8-33.7-84.3-49c-27.5-16.3-53.7-34.7-82.6-48.3c-0.7,1-1.7,1.7-2.4,3.1c55.4,78.2,110.1,156.4,165.8,234.9
		C903.5,632.1,903.5,632.2,903.6,632.2z"/>
	<path class="st5" d="M846.5,193.5c13.6-22.4,27.2-45.2,43.2-71.1c17.3,22.1,30.9,43.9,43.9,67c-7.5-2.4-15.3-5.1-24.1-8.2
		c-3.7,8.2-6.8,15.6-10.9,24.8c-8.2-8.8-14.6-16.3-22.1-24.8c-9.5,4.4-18.7,9.2-27.9,13.6C847.5,194.8,847.1,193.8,846.5,193.5z"/>
	<path class="st6" d="M953.2,215.9c-6.1-1.4-10.5-2-17.3-3.1c8.2-12.6,15.6-24.1,24.1-37.1c11.9,19.7,22.8,37.4,33.7,55.1
		c-1.4,0.7-2,2-3.1,2.7c-6.8-3.1-13.6-6.5-23.1-11.2c-2.4,4.4-5.4,9.2-10.9,18C955.3,229.2,953.9,223.1,953.2,215.9z"/>
	<path class="st5" d="M848.5,195.2c-1.4,0.3-2.7,1.4-4.1,1.7c0.7-1.4,1.7-2.4,2.4-3.7C847.1,193.8,847.5,194.8,848.5,195.2z"/>
</g>
<g>
	<g>
		<path class="st3" d="M204.5,770.8c-2.3,6.5-4.5,13-6.8,19.5c-11.7,34.4-23.4,68.7-35,103.1c-0.8,2.4-1.8,3.6-4.6,3.6
			c-9.2-0.2-18.4-0.2-27.5,0c-2.9,0-4.1-1.1-4.9-3.8c-11.4-34.6-22.9-69.2-34.4-103.8c-7.2-21.5-14.3-43.1-21.6-65.2
			c1.6-0.2,2.9-0.6,4.3-0.6c8.4,0,16.8,0.1,25.1-0.1c3.2-0.1,4.4,1.3,5.3,4.1c13.2,40.7,26.5,81.3,39.9,121.9
			c0.4,1.1,0.9,2.2,2.5,3.3c1.9-5.5,4-11.1,5.9-16.7c12.3-36.1,24.6-72.3,36.8-108.5c1-3,2.4-4.3,5.6-4.2c6.9,0.2,13.9,0.2,20.9,0
			c3.3-0.1,5.1,0.8,6.1,4.2c12.9,39.4,26,78.8,39,118.2c0.9,2.6,1.9,5.1,2.8,7.7c0.4,0,0.9,0,1.3,0c2-6,4.1-12,6.2-18
			c12-35.9,24.1-71.8,36-107.7c1-3,2.3-4.4,5.6-4.3c7.4,0.2,14.9,0,22.3,0.1c1.2,0,2.4,0.3,4.1,0.6c-4.7,14.2-9.2,27.9-13.8,41.7
			c-13.7,41.3-27.3,82.7-41.1,124c-2.8,8.2-0.8,6.9-9.7,7c-7.6,0.1-15.2-0.2-22.8,0.1c-3.3,0.1-4.6-1.1-5.6-4.1
			c-12.9-38.9-25.9-77.9-38.8-116.8c-0.6-1.8-1.3-3.5-1.9-5.2C205.3,770.8,204.9,770.8,204.5,770.8z"/>
		<path class="st3" d="M593.8,723.9c0.9-0.2,1.3-0.4,1.8-0.4c28.6,0.2,57.2-0.3,85.8,1c24.2,1.1,45.4,10.2,62,28.7
			c10.7,11.9,16.9,25.9,19.3,41.5c2.9,19,1.1,37.5-7.5,55c-10.2,20.7-26.9,33.8-48.4,41.3c-11.7,4.1-23.8,5.9-36.3,5.9
			c-24-0.1-48.1,0-72.1,0c-1.4,0-2.8,0-4.5,0C593.8,839.1,593.8,781.7,593.8,723.9z M625.9,750.9c0,39.9,0,79,0,118.3
			c1,0.2,1.7,0.5,2.5,0.5c16.6-0.1,33.2,0.2,49.7-0.6c11.7-0.6,22.4-4.9,31.8-12.1c13.9-10.8,20.4-25.2,21.3-42.5
			c1.5-28.7-12.2-53.6-42.3-60.5c-12.6-2.9-26-2.3-39-2.9C642,750.6,634.1,750.9,625.9,750.9z"/>
		<path class="st3" d="M1341.6,896.4c0-57.7,0-115,0-172.3c0.6-0.2,1-0.5,1.4-0.5c28.8,0.2,57.5-0.2,86.2,1c22.6,1,42.7,9.2,59,25.6
			c16.7,16.8,23.5,37.5,23.3,60.7c-0.3,32.6-13.8,57.9-42.8,74c-12.7,7.1-26.6,11.4-41.1,11.7c-28.1,0.6-56.2,0.3-84.4,0.3
			C1342.9,896.8,1342.4,896.6,1341.6,896.4z M1373.9,869.2c18.1,0,35.7,1.1,53.1-0.3c27.1-2.2,46.4-20.4,51.2-46.2
			c6.4-34.2-11.5-64-44.4-69.4c-19.3-3.2-39.3-1.7-59-2.2c-0.2,0-0.5,0.4-0.8,0.7C1373.9,790.7,1373.9,829.9,1373.9,869.2z"/>
		<path class="st3" d="M1308.2,896.8c-11.7,0-22.4,0.1-33.1-0.1c-1.3,0-2.8-1.8-3.7-3.1c-10.3-14.6-20.5-29.2-30.6-43.9
			c-1.6-2.3-3.2-3.3-6.1-3.3c-12.3,0.2-24.7,0.1-37,0.1c-1.5,0-3.1,0-5.1,0c0,16.8,0,33.2,0,50c-10.9,0-21.3,0-32,0
			c0-57.6,0-115,0-172.7c1-0.1,1.7-0.3,2.5-0.3c25.3,0.1,50.6-0.1,75.9,0.5c14.2,0.3,27.9,3.8,40.1,11.5
			c18.8,11.9,26.8,29.6,26.2,51.4c-0.6,24.1-11.6,41.4-33.6,51.6c-0.8,0.4-1.6,0.9-3,1.7C1281.7,858.9,1294.6,877.3,1308.2,896.8z
			 M1192.8,819.9c1.6,0,2.7,0,3.7,0c13.3-0.1,26.5,0,39.8-0.3c3.6-0.1,7.2-0.9,10.7-1.7c16.2-3.7,25.7-15.7,25.8-32.3
			c0.1-16.9-9-30.3-25.1-32.5c-18-2.5-36.4-2.2-54.9-3.1C1192.8,774,1192.8,796.7,1192.8,819.9z"/>
		<path class="st3" d="M1137.8,896.9c-10.8,0-20.9,0.1-31.1-0.2c-1.3,0-3.2-1.8-3.8-3.2c-4.9-10.8-9.6-21.7-14.2-32.6
			c-1.2-2.9-2.7-4-6-4c-26.2,0.1-52.5,0.1-78.7,0c-3,0-4.4,0.9-5.5,3.7c-4.5,11-9.2,21.8-13.9,32.7c-0.6,1.4-2.1,3.3-3.2,3.4
			c-10.2,0.3-20.4,0.2-31.4,0.2c5.4-12.1,10.5-23.4,15.6-34.7c20.2-44.8,40.3-89.6,60.4-134.4c1.4-3.2,3.1-4.6,6.7-4.5
			c7.6,0.2,15.2,0.2,22.8,0c3.2-0.1,4.8,1.1,6.1,4c17.7,39.5,35.5,78.9,53.3,118.3c6.8,15.1,13.6,30.2,20.4,45.3
			C1136.1,892.6,1136.8,894.3,1137.8,896.9z M1043.7,755.7c-11.1,26-21.6,50.6-32.3,75.8c21.9,0,42.9,0,64.9,0
			C1065.4,806.2,1054.8,781.6,1043.7,755.7z"/>
		<path class="st3" d="M1542.4,854.1c21.5,14.4,44.2,20.8,69.3,17.8c6.8-0.8,13.2-2.8,18.9-6.9c9.4-6.7,10.7-22.6-1.2-29.5
			c-9.6-5.6-20.2-8-30.6-10.9c-12-3.4-24.2-6.3-35.8-10.8c-15.4-6-25.6-17-27.5-34.3c-2-18.1,3.9-33,18.4-44.1
			c11.1-8.5,24-12.1,37.9-13.4c21.7-2,42.6,0.4,62.4,9.7c8.8,4.1,8.8,4.2,5.1,13.1c-2.1,5.1-4.2,10.2-6.3,15.3
			c-0.1,0.3-0.4,0.5-0.8,0.9c-5.3-2.3-10.7-5-16.2-7c-17-6.2-34.4-8.8-51.9-3c-5.1,1.7-10.3,5.3-13.5,9.6
			c-7.7,10.5-3.4,22.9,10,28.1c11.4,4.4,23.5,7.1,35.3,10.4c13.1,3.7,26.1,7,37.5,15.2c22,15.7,20.4,49.9,2.9,66.5
			c-13,12.3-28.9,17.4-46.1,18.6c-22.1,1.5-43.5-1.6-63.8-11.1c-4.4-2.1-8.5-4.8-12.5-7.6c-1-0.7-2-3.1-1.6-4.1
			C1535.6,868.9,1539,861.7,1542.4,854.1z"/>
		<path class="st3" d="M948.4,749c-8.2,7.7-14.8,13.9-22,20.6c-16.9-17.6-37.4-23-60.8-18.6c-14.3,2.7-26.2,9.9-35.3,21.4
			c-17.9,22.7-15.6,60.3,4.7,81.2c19.5,20.1,63.8,27.6,91.7-2.5c6.7,6.4,13.4,12.8,20.3,19.3c-6.2,7.8-13.5,13.9-22,17.9
			c-35.8,17-71.3,16-103.8-6.9c-29.9-21-39.8-52-33.9-87.3c6.2-37,29.5-60.3,64.9-69.5c31.7-8.2,62.2-3.8,88.2,18.4
			C942.8,745.1,945.5,746.8,948.4,749z"/>
		<path class="st3" d="M445.4,723.9c10.8,0,21.1,0,31.9,0c0,48.7,0,97,0,145.8c30.3,0,60.1,0,90.2,0c0,9.2,0,17.8,0,26.8
			c-40.5,0-81.2,0-122.1,0C445.4,839,445.4,781.6,445.4,723.9z"/>
		<path class="st3" d="M366.2,723.7c10.6,0,20.9,0,31.5,0c0,57.7,0,115.2,0,173c-10.5,0-20.8,0-31.5,0
			C366.2,839.1,366.2,781.7,366.2,723.7z"/>
	</g>
</g>
</svg>
