<?xml version="1.0" encoding="utf-8"?>
<!-- Generator: Adobe Illustrator 24.1.0, SVG Export Plug-In . SVG Version: 6.00 Build 0)  -->
<svg version="1.1" id="Layer_1" xmlns="http://www.w3.org/2000/svg" xmlns:xlink="http://www.w3.org/1999/xlink" x="0px" y="0px"
	 viewBox="0 0 100 100" style="enable-background:new 0 0 100 100;" xml:space="preserve">
<style type="text/css">
	.st0{fill:#FFFFFF;}
</style>
<g>
	<path class="st0" d="M50,26.6c-12.7,0-23.2,10.3-23.2,23.2S37.1,73,50,73s23.2-10.5,23.2-23.2S62.7,26.6,50,26.6z M50,64.7
		c-8.2,0-14.9-6.7-14.9-14.9S41.8,34.9,50,34.9s14.9,6.7,14.9,14.9S58.2,64.7,50,64.7z"/>
	<circle class="st0" cx="74.1" cy="26" r="5.3"/>
	<path class="st0" d="M87.7,12.4C83,7.5,76.3,5,68.7,5H31.3C15.5,5,5,15.5,5,31.3v37.2c0,7.8,2.5,14.5,7.6,19.4
		c4.9,4.7,11.4,7.1,18.9,7.1h37c7.8,0,14.3-2.5,19.1-7.1c4.9-4.7,7.4-11.4,7.4-19.2V31.3C95,23.7,92.5,17.2,87.7,12.4z M87,68.7
		c0,5.6-2,10.2-5.3,13.2s-7.8,4.7-13.2,4.7h-37c-5.4,0-10-1.6-13.2-4.7c-3.3-3.3-4.9-7.8-4.9-13.4V31.3c0-5.4,1.6-10,4.9-13.2
		c3.1-3.1,7.8-4.7,13.2-4.7h37.4c5.4,0,10,1.6,13.2,4.9C85.2,21.5,87,26,87,31.3V68.7L87,68.7z"/>
</g>
</svg>
