<?xml version="1.0" encoding="utf-8"?>
<!-- Generator: Adobe Illustrator 24.1.0, SVG Export Plug-In . SVG Version: 6.00 Build 0)  -->
<svg version="1.1" id="Layer_1" xmlns="http://www.w3.org/2000/svg" xmlns:xlink="http://www.w3.org/1999/xlink" x="0px" y="0px"
	 viewBox="0 0 100 100" style="enable-background:new 0 0 100 100;" xml:space="preserve">
<style type="text/css">
	.st0{fill:#FFFFFF;}
</style>
<g>
	<path class="st0" d="M77,92.1V58c0,0-1-9.1-9.8-9.1c-8.8,0-10.4,8.7-10.4,8.7v34.5H38.6l0.3-56.3h17.6l-0.1,7.1
		c0,0,3.7-9.2,17.5-9.2c13.8,0,20.1,7.9,21.2,22.8c0,14.8,0,35.7,0,35.7H77z M16.3,27.8c-6.2,0-11.3-4.5-11.3-10s5.1-10,11.3-10
		s11.3,4.5,11.3,10S22.6,27.8,16.3,27.8z M27.5,92.2H5.2V36l22.3-0.1V92.2z"/>
</g>
</svg>
