<?xml version="1.0" encoding="utf-8"?>
<!-- Generator: Adobe Illustrator 24.1.0, SVG Export Plug-In . SVG Version: 6.00 Build 0)  -->
<svg version="1.1" id="Layer_1" xmlns:sketch="http://www.bohemiancoding.com/sketch/ns"
	 xmlns="http://www.w3.org/2000/svg" xmlns:xlink="http://www.w3.org/1999/xlink" x="0px" y="0px" viewBox="0 0 100 100"
	 style="enable-background:new 0 0 100 100;" xml:space="preserve">
<style type="text/css">
	.st0{fill-rule:evenodd;clip-rule:evenodd;fill:#FFFFFF;}
</style>
<g id="Icons_with_numbers">
	<g id="Group" transform="translate(-336.000000, 0.000000)">
		<path id="Shape" class="st0" d="M397.1,53.1L429,80.4c-1.2,1.1-2.7,1.8-4.4,1.8h-77.1c-1.7,0-3.3-0.7-4.4-1.7l31.8-27.3l11.1,9.7
			L397.1,53.1z M386,56.4l-43-36.8c1.2-1.1,2.7-1.8,4.4-1.8h77.1c1.7,0,3.3,0.7,4.4,1.7L386,56.4z M431,76.9l-31.1-26.4l31.1-27
			V76.9L431,76.9z M341,76.9V23.5l31.1,27L341,76.9L341,76.9z"/>
	</g>
</g>
</svg>
