<?xml version="1.0" encoding="utf-8"?>
<!-- Generator: Adobe Illustrator 24.1.0, SVG Export Plug-In . SVG Version: 6.00 Build 0)  -->
<svg version="1.1" id="Layer_1" xmlns="http://www.w3.org/2000/svg" xmlns:xlink="http://www.w3.org/1999/xlink" x="0px" y="0px"
	 viewBox="0 0 100 100" style="enable-background:new 0 0 100 100;" xml:space="preserve">
<style type="text/css">
	.st0{fill:#FFFFFF;}
</style>
<g id="_x32_11-medium">
	<g>
		<g>
			<path class="st0" d="M15.7,28.9c0.1-1.1-0.3-2.2-1.1-2.9L6.1,15.8v-1.5h26.1l20.2,44.2l17.7-44.2H95v1.5l-7.2,6.9
				c-0.6,0.5-0.9,1.2-0.8,2v50.6c-0.1,0.8,0.2,1.5,0.8,2l7,6.9v1.5H59.5v-1.5l7.3-7.1c0.7-0.7,0.7-0.9,0.7-2V34.2L47.3,85.6h-2.7
				L21,34.2v34.4c-0.2,1.5,0.3,2.9,1.3,3.9l9.5,11.5v1.5H5v-1.5l9.5-11.5c1-1,1.5-2.5,1.2-3.9V28.9z"/>
		</g>
	</g>
</g>
<g id="Layer_1_1_">
</g>
</svg>
